<svg xmlns="http://www.w3.org/2000/svg">
  <defs>
    <symbol id="icon-airplane" viewBox="240 240 720 720">
      <g>
        <path d="m540 444h120v24h-120z" />
        <path
          d="m792 780c-28.801 0-55.199 10.199-75.961 27.121-8.5195-22.801-30.359-39.121-56.039-39.121-2.7617 0-5.6406 0.23828-8.5195 0.71875-18.121-23.16-45.84-36.719-75.48-36.719-24.602 0-48.238 9.4805-66 26.398-6-1.5586-12-2.3984-18-2.3984-31.801 0-58.801 20.762-68.281 49.441-5.1602-0.83984-10.32-1.4414-15.719-1.4414-3.8398 0-7.6797 0.23828-11.52 0.71875-22.68-30.598-58.199-48.719-96.48-48.719v24c32.762 0 63 16.559 80.762 44.281l4.4414 6.9609 8.0391-1.6797c4.918-1.082 9.8359-1.5625 14.758-1.5625 39.719 0 72 32.281 72 72h24c0-39.121-23.52-72.84-57.238-87.719 8.3984-23.879 35.281-39.359 62.398-28.922l7.6797 3 5.5195-6.1211c13.68-15.477 33.242-24.238 53.641-24.238 24.359 0 46.922 12.238 60.359 32.762l4.9219 7.4414 8.5195-2.5195c3.8398-1.2031 7.0781-1.6836 10.199-1.6836 19.801 0 36 16.199 36 36h0.23828c-15.117 20.039-24.238 45-24.238 72h24c0-52.922 43.078-96 96-96 3.7188 0 7.3203 0.23828 10.801 0.60156l5.2812 0.60156 3.9609-3.6016c24.355-21.602 55.559-33.602 87.957-33.602v-24c-36.48 0-71.762 12.84-99.84 36.359-2.6406-0.23828-5.3984-0.35938-8.1602-0.35938z"
        />
        <path
          d="m696.6 432c-15.961-32.039-47.398-55.199-84.602-59.281v-72.719h-24v72.719c-37.199 4.0781-68.641 27.238-84.602 59.281h-215.4v57.359l88.078 22.078c-9.8398 10.684-16.078 24.844-16.078 40.562 0 33.121 26.879 60 60 60s60-26.879 60-60c0-13.68-4.8008-26.16-12.602-36.238h30.719c14.883 42 54.844 72.238 101.88 72.238 46.922 0 86.879-30.121 101.76-72.121h30.602c-7.6836 10.082-12.363 22.562-12.363 36.121 0 33.121 26.879 60 60 60s60-26.879 60-60c0-15.719-6.2383-29.879-16.078-40.559l88.078-22.082v-57.359zm-276.6 156c-19.801 0-36-16.199-36-36s16.199-36 36-36 36 16.199 36 36-16.199 36-36 36zm-22.559-96-85.441-21.359v-14.641h182.76c-1.8008 7.6797-2.7617 15.719-2.7617 24 0 4.0781 0.23828 8.0391 0.71875 12zm202.56 72c-46.32 0-84-37.68-84-84s37.68-84 84-84 84 37.68 84 84-37.68 84-84 84zm180 24c-19.801 0-36-16.199-36-36s16.199-36 36-36 36 16.199 36 36-16.199 36-36 36zm108-117.36-85.441 21.359h-95.281c0.48047-3.9609 0.71875-7.9219 0.71875-12 0-8.2812-0.96094-16.32-2.7617-24h182.77z"
        />
      </g>
    </symbol>
    <symbol id="icon-train" viewBox="0 0 1200 1200">
      <g>
        <path d="m60 870.6h1080v48h-1080z" />
        <path d="m943.68 576h98.16v48h-98.16z" />
        <path
          d="m330.6 845.4h48v-25.078h50.16v25.078h48v-25.078h246.48v25.078h48v-25.078h50.16v25.078h48v-25.078h172.44v-48h-172.44v-343.56h-244.32v343.56h-442.92v-181.8h294.6v-261.12h565.08v-48h-698.88l-208.8 261.12v277.8h196.44zm342.48-368.64h148.32v295.56h-148.32zm-306.96-147.36h62.641v213.12h-233.16z"
        />
      </g>
    </symbol>
  </defs>
</svg>
