<svg xmlns="http://www.w3.org/2000/svg">
<defs>
  <symbol id="icon-poi" viewBox="0 0 1200 1200">
  <path d="m600.01 56.25c-217.31 0-393.75 176.44-393.75 393.75 0 63.301 32.961 152.51 81.133 245.68 106.14 205.27 282.98 433.54 282.98 433.54 7.1055 9.168 18.055 14.531 29.645 14.531 11.586 0 22.539-5.3633 29.645-14.531 0 0 176.83-228.26 282.98-433.54 48.168-93.168 81.133-182.38 81.133-245.68 0-217.31-176.44-393.75-393.75-393.75zm0 225c-93.133 0-168.75 75.617-168.75 168.75s75.617 168.75 168.75 168.75c93.133 0 168.75-75.617 168.75-168.75s-75.617-168.75-168.75-168.75z" fill-rule="evenodd"/>
  </symbol>
</defs>
</svg>
