<svg xmlns="http://www.w3.org/2000/svg" viewBox="0 0 1168 1533" fill="none" width="780.190476px" height="1024px" preserveAspectRatio="none" style="width: 780.190476px; height: 1024px;">
<path fill-rule="evenodd" clip-rule="evenodd" d="M1143.08 848.472C1128.8 849.874 1114.52 851.274 1100.24 852.676C1031.86 857.901 963.495 868.813 895.63 875.362C893.94 872.612 890.633 873.065 888.625 874.976C881.853 874.383 874.264 869.207 868.129 874.591C867.93 874.563 867.731 874.53 867.53 874.511C856.608 853.548 849.058 831.189 841.731 808.8C837.054 795.035 830.762 781.71 819.134 772.468C799.29 758.693 753.822 730.76 730.521 731.934C730.134 727.762 728.189 723.462 724.996 720.684C732.034 708.685 703.893 700.856 701.908 702.247C703.18 662.159 684.323 627.345 642.743 619.362C605.492 611.6 552.51 610.296 532.476 649.225C530.273 648.977 507.762 648.86 505.584 649.104C502.198 644.815 465.008 685.457 480.251 699.606C343.978 759.888 266.493 752.695 228.775 922.164C223.676 938.084 223.305 955.505 217.92 971.07C198.764 1015.8 183.226 1063.43 179.359 1112.1C170.02 1114.5 168.946 1130.96 179.764 1133.35C183.896 1134.26 187.351 1135.5 190.364 1137.86C188.009 1177.75 197.656 1268.86 203.734 1268.58C216.127 1308.02 271.409 1319.15 310.547 1305.29C303.8 1317.99 310.547 1325.97 310.547 1332.75C451.374 1338.08 605.353 1335.01 746.141 1342.32C764.15 1342.06 783.093 1346.74 800.856 1344.05C811.688 1341.45 811.706 1324.42 800.718 1322.31L848.731 1311.88C847.658 1311.48 868.522 1297.6 884.291 1271.67C898.969 1242.66 888.979 1207.64 895.63 1176.08C947.575 1171.83 1000.38 1170.02 1051.75 1161.22C1058.76 1182.18 1089.08 1157.11 1098.72 1147.03C1098.71 1147.01 1098.7 1147 1098.69 1146.98C1103.35 1145.71 1107.09 1141.34 1107.22 1136.16C1110.49 1131.49 1111.17 1124.9 1108.04 1120.38C1122.42 1037.41 1144.34 952.7 1152.26 868.952C1155.06 868.332 1157.7 867.104 1159.93 865.212L1159.75 865.031C1163.54 860.807 1164.28 853.516 1157.96 849.927C1152.87 847.029 1148.61 847.928 1143.08 848.472Z" fill="#B0824C"/>
<path fill-rule="evenodd" clip-rule="evenodd" d="M600 1159L611 1166L701 1195L756 1202L801 1195V1272L810 1344C806 1351.33 768 1351.33 696 1344C650.102 1339.33 482.356 1337.06 444.164 1336.06L442 1336C397.12 1334.71 352.787 1334.71 309 1336V1309L434 1247L546 1184L600 1159ZM536.229 642.932L544.495 649.104L526.448 678.754L614.361 749.865V806.664L642.193 832.988L658.102 806.664L680.519 776.852L696.45 728.528L691.026 696.692L701.934 695.664C701.987 697.84 701.978 700.036 701.908 702.247C703.893 700.856 732.034 708.685 724.996 720.684C728.189 723.462 730.134 727.762 730.521 731.934C753.822 730.76 799.29 758.693 819.134 772.468C830.762 781.71 837.054 795.035 841.731 808.8L842.832 812.158L843.969 815.605L845.114 819.05C851.443 837.985 858.276 856.749 867.53 874.511C867.731 874.53 867.93 874.563 868.129 874.591C874.264 869.207 881.853 874.383 888.625 874.976C890.587 873.11 893.787 872.634 895.51 875.175L895.63 875.362L811.259 891.983L755.598 1087.23L707.126 1047.88L681.108 1051.75L612.399 1076.53L532.486 1097.29L350.055 1147.58H326.824L191.639 1114.94L179.456 1110.92C183.479 1062.66 198.92 1015.44 217.92 971.07C223.305 955.505 223.676 938.084 228.775 922.164C266.493 752.695 343.978 759.888 480.251 699.606C465.008 685.457 502.198 644.815 505.584 649.104L505.798 649.085L506.259 649.061L506.854 649.04C512.17 648.885 530.5 649.003 532.476 649.225C533.622 646.998 534.876 644.902 536.229 642.932Z" fill="#210263"/>
<path fill-rule="evenodd" clip-rule="evenodd" d="M1156.57 854.4L1154.05 868.405C1153.46 868.601 1152.85 868.766 1152.23 868.903C1151.44 877.251 1150.51 885.61 1149.47 893.975L1133.89 980.814C1131.2 996.178 1128.65 1011.57 1126.12 1026.97L1122.76 1043.52L1120.68 1053.8C1116.2 1076.07 1111.84 1098.26 1108.01 1120.33C1108.59 1121.16 1109.04 1122.06 1109.36 1123.01L1109.07 1124.25L1108.86 1125.08L1108.65 1125.9C1105.64 1137.5 1100.39 1148.75 1088.01 1152.17C1078.68 1154.74 1068.44 1154.97 1058.8 1155.99L1057.73 1156.11L889.069 1175.07C868.69 1177.36 848.321 1179.72 827.953 1182.11L810.296 1184.18C785.686 1187.03 760.934 1189.27 736.686 1194.43C735.795 1194.62 735.057 1194.98 734.455 1195.45C739.338 1176.96 744.012 1158.5 748.248 1139.83C753.016 1118.82 757.541 1097.77 762.641 1076.83C772.915 1034.65 784.432 992.746 797.04 951.203C799.686 942.484 802.393 933.782 805.159 925.101L807.101 919.032L808.595 914.196C810.906 906.823 813.767 899.245 820.546 895.177C828.48 890.417 839.299 889.628 848.297 887.982L854.39 886.837C863.506 885.136 872.634 883.5 881.773 881.928C925.529 874.402 969.533 868.365 1013.7 863.83C1059.66 859.111 1105.78 856.044 1151.95 854.545L1156.57 854.4ZM737.95 1143.94L738.38 1143.98L732.08 1194.34C731.073 1193.64 729.794 1193.2 728.233 1193.21C707.569 1193.27 687.76 1186.66 668.6 1179.4L665.682 1178.29L657.547 1175.16C649.278 1172 640.965 1168.9 632.497 1166.33L629.074 1165.3L627.334 1164.78C620.923 1162.91 614.178 1161.21 607.509 1160.79L606.6 1160.74L608.542 1159.72C608.826 1159.57 609.075 1159.4 609.296 1159.22C612.967 1159.49 616.645 1159.42 620.517 1158.72C627.799 1157.41 634.88 1154.88 641.382 1151.35L644.286 1149.78L645.475 1149.14L646.26 1148.74L647.041 1148.34C652.626 1145.56 657.965 1143.82 665.016 1145.3C673.021 1146.98 680.035 1151.3 687.25 1154.94L688.531 1155.58L689.392 1156L690.269 1156.41L691.158 1156.81C700.915 1161.21 716.443 1165.94 720.184 1152.68C721.687 1147.35 720.51 1142.36 717.902 1137.98C722.762 1137.56 731.445 1143.29 737.95 1143.94ZM980.828 978.016L980.945 978.62C982.325 986.047 978.865 993.153 973.629 998.332C969.334 1002.58 961.733 1004.94 959.58 1011.05C958.354 1014.53 959.658 1017.83 962.176 1020.13L961.596 1020.41L961.029 1020.7L960.476 1020.99L959.936 1021.29L959.41 1021.59C950.856 1026.5 943.89 1034.49 951.605 1044.15C960.357 1055.1 978.644 1055.45 991.528 1054.59L992.396 1054.53C1004.89 1053.6 1019.69 1049.4 1026.46 1037.86C1029.57 1032.57 1029.23 1026.17 1024.9 1021.64C1022.28 1018.91 1017.62 1016.11 1013.35 1015.77C1013.54 1013.37 1013.25 1011.04 1012.4 1009.08C1010.57 1004.83 1005.7 1001.98 1000.99 1001.87C1001.37 992.864 994.158 983.971 988.844 976.768L988.302 976.029L987.775 975.302C985.337 971.91 980.121 973.811 980.828 978.016ZM987.957 987.605L992.798 1005.74L992.715 1005.89C991.01 1009.13 995.48 1012.8 998.131 1010.08L998.398 1009.79C1001.54 1006.54 1006.37 1010.91 1006.44 1014.37C1006.52 1019.24 1003.35 1023.01 999.574 1025.49L999.31 1025.66L998.614 1026.1C995.514 1028.14 997.861 1032.43 1001.27 1031.91C1005.48 1031.26 1008.94 1027.92 1011.07 1023.74C1013.35 1024.39 1015.94 1024.32 1018.33 1025.66C1024.37 1029.03 1020.9 1034.94 1016.97 1038.52L1016.81 1038.66L1016.49 1038.94C1009.27 1045.09 999.444 1047.23 990.183 1047.69L989.649 1047.71C980.294 1048.11 968.106 1048.25 960.088 1042.74C955.098 1039.32 953.653 1034.46 957.876 1029.87C960.264 1027.27 962.675 1024.64 965.157 1022.11C968.872 1023.88 972.19 1023.16 975.989 1021.49C976.476 1021.27 976.206 1020.53 975.729 1020.53C973.633 1020.52 965.942 1016.63 965.568 1014.15C965.222 1011.85 969.477 1009.91 971.546 1008.79L971.846 1008.63L972.106 1008.48C974.27 1007.17 976.307 1005.64 978.169 1003.93C982.895 999.577 986.327 994.121 987.826 988.15L987.957 987.605Z" fill="white"/>
<path fill-rule="evenodd" clip-rule="evenodd" d="M535.072 640.184C539.315 629.521 553.658 633.666 552.059 644.868C551.102 651.578 547.427 658.665 544.126 664.546C541.438 669.333 538.372 674.005 534.215 677.593C541.615 684.497 549.296 691.149 557.172 697.465C565.766 704.356 574.803 710.708 584.144 716.546C592.335 721.666 600.896 726.202 608.617 732.044C615.796 737.475 622.336 744.007 625.664 752.534C629.209 761.614 627.668 770.992 625.058 780.066L624.758 781.092C622.091 790.082 617.474 800.919 623.876 809.389C627.135 813.701 631.873 816.755 635.964 820.202C639.6 823.266 643.013 826.598 646.143 830.177C652.968 837.979 658.519 846.758 662.022 856.54L662.335 857.429C665.338 866.088 667.532 876.696 663.475 885.198C662.311 887.635 658.557 886.843 657.905 884.47C656.431 879.094 656.508 873.464 655.272 868.012C653.986 862.342 651.846 856.96 649.051 851.868C643.643 842.017 636.319 833.603 627.666 826.489L625.076 824.382C618.326 818.843 612.124 812.966 610.754 803.798C609.288 793.989 613.218 784.645 615.745 775.361C617.506 768.891 618.081 762.689 616.178 756.842C613.853 760.637 610.681 764.239 608.172 767.452C603.175 773.853 598.131 780.215 593.1 786.589C587.942 793.125 582.911 799.764 578.12 806.575C575.977 809.622 573.857 812.687 571.744 815.755C570.155 818.061 567.939 820.365 566.207 822.717C566.628 823.975 566.596 825.425 565.833 826.455C556.648 838.865 543.581 812.971 540.173 806.429C533.233 793.106 528.068 778.952 521.105 765.632C513.89 751.824 505.674 738.384 496.517 725.778C490.978 718.153 484.77 710.991 479.703 703.124C467.766 713.948 452.058 721.204 437.63 727.784C421.777 735.013 405.308 740.918 389.055 747.188L384.254 749.053C356.249 759.983 327.56 771.99 304.283 791.403C276.93 814.216 260.748 846.012 248.701 878.938C234.833 916.843 223.36 955.771 212.665 994.674C207.192 1014.58 201.999 1034.57 197.117 1054.63C192.815 1072.3 189.249 1090.15 184.269 1107.64C194.369 1107.29 205.888 1111.2 214.511 1112.32C253.81 1117.47 292.58 1125.67 329.683 1139.87C334.266 1141.62 335.592 1146.2 334.594 1149.91C337.237 1149.16 339.878 1148.4 342.521 1147.66C339.625 1143.23 341.007 1135.29 341.235 1130.38L341.249 1130.04C341.483 1123.48 342.194 1116.92 342.655 1110.38C343.533 1097.92 344.675 1085.54 346.195 1073.14L346.583 1070.04C348.305 1056.55 349.578 1042.98 351.457 1029.52L351.679 1027.98C350.778 1024.53 349.729 1021.13 348.628 1017.74C345.694 1008.72 341.553 1000.22 337.924 991.482C337.496 990.453 338.962 989.862 339.647 990.479C345.793 996.008 350.675 1003.02 354.597 1010.36C354.665 1010.01 354.725 1009.66 354.796 1009.32L355.243 1007.12C356.347 1001.74 357.689 996.092 360.985 991.735C361.336 991.272 362.03 991.175 362.362 991.735C365.516 997.072 365.869 1003.83 366.354 1009.9C366.903 1016.77 366.972 1023.73 366.875 1030.62C366.686 1044.08 365.737 1057.58 364.981 1071.02C364.239 1084.23 362.783 1097.27 360.906 1110.35L360.549 1112.8C359.631 1119.03 358.88 1125.33 357.67 1131.51L357.328 1133.2C356.681 1136.26 356.283 1140.59 354.995 1144.18C388.133 1134.93 421.322 1125.9 454.574 1117.03C478.607 1110.62 502.665 1104.3 526.713 1097.94C527.982 1095.65 529.562 1093.52 531.534 1091.61C538.031 1085.32 546.641 1082.51 554.538 1087.35C555.18 1087.75 555.234 1088.75 554.538 1089.13C553.025 1089.96 551.509 1090.81 550.02 1091.69L564.46 1087.78C575.253 1084.86 586.175 1081.2 597.222 1079.16C617.569 1069.12 639.453 1061.85 660.887 1054.67L663.413 1053.82C674.387 1050.08 685.739 1045.89 697.078 1043.81C705.379 1042.29 715.123 1044.13 718.461 1052.63C722.687 1055.41 726.663 1058.69 730.5 1061.91C733.274 1064.23 735.933 1066.71 738.637 1069.11L739.135 1069.55C741.346 1071.47 743.097 1072.75 743.64 1075.81C743.92 1077.38 742.918 1079.52 740.973 1079.31C735.022 1078.67 730.183 1071.77 726.147 1067.65C723.029 1064.47 719.886 1061.18 717.04 1057.68C715.381 1058.58 713.107 1058.42 712.051 1056.42C706.575 1046.05 691.574 1053.23 683.274 1055.69L671.384 1059.21C665.439 1060.98 659.497 1062.75 653.565 1064.55C637.261 1069.5 621.037 1075.04 604.585 1079.59C606.057 1081.2 605.854 1084.08 603.058 1085.18C590.18 1090.23 576.052 1092.84 562.673 1096.31C554.226 1098.5 545.784 1100.71 537.345 1102.92C535.898 1105.27 534.857 1107.92 534.419 1111.01C532.808 1122.36 535.914 1135.45 538.94 1146.43L539.396 1148.07C541.883 1156.89 545.542 1167.71 553.157 1173.29C555.016 1174.65 557.383 1175.59 559.769 1175.81C574.676 1168.13 589.582 1160.46 604.497 1152.8C607.26 1151.38 609.813 1153.31 610.433 1155.59C615.692 1154.73 620.939 1153.37 625.718 1151.74C633.748 1149.02 640.018 1143.82 647.546 1140.22C662.112 1133.26 676.987 1141.81 690.028 1148.31L693.034 1149.78C698.882 1152.62 711.049 1158.07 713.856 1150.31C716.57 1142.8 707.989 1134.78 702.447 1131.4C695.841 1127.37 688.149 1125.22 680.683 1123.42C676.42 1122.39 672.105 1121.56 667.764 1120.95C662.84 1120.25 657.754 1120.36 653.013 1118.76C650.657 1117.97 650.295 1114.23 653.013 1113.61C660.311 1111.95 669.021 1113.76 676.637 1115.61L680.618 1116.59C688.291 1118.47 696.038 1120.84 703.027 1124.59C708.109 1127.32 713.473 1131.47 716.977 1136.55C720.02 1133.73 723.807 1133.82 727.752 1134.87L729.893 1135.47C733.429 1136.45 736.295 1137.12 739.736 1136.44C740.196 1133.94 740.662 1131.44 741.161 1128.93C746.064 1104.32 751.441 1079.8 757.374 1055.41C767.608 1013.34 779.45 971.735 792.8 930.555L794.14 926.439C797.219 917.02 799.697 906.758 804.661 898.105C809.356 889.923 816.878 885.21 825.815 882.714C835.957 879.882 846.614 878.4 856.96 876.487C859.268 876.061 861.582 875.656 863.892 875.237C861.94 871.712 860.483 867.711 859.17 864.641L858.94 864.109C856.12 857.68 853.587 851.136 851.141 844.556L849.312 839.61C844.895 827.699 840.336 815.984 834.127 804.844C827.591 793.12 818.92 783.535 808.111 775.602C786.073 759.426 759.51 751.175 738.135 733.888C737.259 733.18 738.382 731.969 739.271 732.417C753.704 739.669 769.285 744.6 784.297 750.504L787.258 751.672C799.124 756.376 811.174 761.497 821.444 769.112C832.894 777.604 841.912 788.15 848.69 800.691C855.37 813.053 859.643 826.89 864.356 840.094L865.616 843.612C867.517 848.888 869.481 854.148 871.731 859.282C873.517 863.358 876.85 868.011 878.365 872.667C882.51 871.948 886.654 871.227 890.803 870.534C980.67 855.53 1071.54 846.714 1162.61 844.135C1166.18 844.034 1168.02 847.434 1167.49 850.542C1158.75 902.223 1150.99 954.081 1142.47 1005.8C1138.75 1028.37 1134.95 1050.93 1131.07 1073.47C1129.1 1084.9 1126.83 1096.27 1124.96 1107.71C1123.46 1116.95 1122.37 1126.26 1119.79 1135.29C1117.47 1143.38 1113.92 1151.18 1108.08 1157.35C1101.79 1164.01 1093.01 1167.23 1084.17 1168.75C1061.72 1172.61 1038.71 1174.19 1016.08 1176.76L895.637 1190.46C897.397 1206.46 897.528 1222.21 896.721 1238.4L896.261 1247.23C895.884 1254.34 895.435 1261.46 894.414 1268.49C893.134 1277.31 889.098 1284.78 883.153 1291.37C877.694 1297.43 871.062 1302.59 864.611 1307.54C857.915 1312.68 850.996 1317.63 843.123 1320.81L842.101 1321.22C835.194 1323.91 822.238 1328.09 812.797 1326.56C814.031 1332.75 816.419 1339.39 814.302 1345.51C813.32 1348.35 809.605 1349.77 807.329 1347.35C802.82 1342.56 802.468 1336.23 801.4 1329.98C800.289 1323.48 799.331 1316.95 798.48 1310.41C796.834 1297.76 795.553 1284.99 795.162 1272.23C794.76 1259.13 794.915 1246.01 795.621 1232.92C795.984 1226.2 796.434 1219.49 797.287 1212.81C797.651 1209.96 798.023 1207.11 798.448 1204.27C798.603 1203.23 798.775 1202.2 798.96 1201.17L788.149 1202.39C771.572 1204.24 754.988 1205.92 738.294 1206.17C736.317 1206.2 734.796 1205.3 733.802 1203.99C732.743 1205.72 730.899 1206.95 728.258 1206.94C704.945 1206.86 683.235 1199.23 662.031 1190.25C651.343 1185.72 640.821 1180.81 630.117 1176.32C620.126 1172.13 609.445 1169.14 599.695 1164.42L574.075 1177.86C573.887 1178.52 573.646 1179.14 573.39 1179.67C571.722 1183.07 568.433 1184.92 565.074 1186.31C561.85 1187.65 558.511 1188.06 555.258 1187.72C535.828 1197.91 516.393 1208.08 496.945 1218.23L477.493 1228.37C438.737 1248.55 400.134 1269.06 361.134 1288.76L358.263 1290.21C344.792 1296.96 330.327 1303.81 315.378 1308.92C315.112 1312.7 315.28 1316.38 315.597 1320.39L315.673 1321.26C316.119 1325.99 317.075 1331.92 313.278 1335.29C311.303 1337.04 307.775 1337.05 306.432 1334.41C303.995 1329.62 306.183 1322.06 306.955 1316.86C307.229 1315.01 307.563 1313.11 308.057 1311.26C290.919 1316.36 273.262 1318.84 255.822 1315.97C238.842 1313.18 225.691 1302.49 215.089 1289.4C203.9 1275.6 195.949 1259.5 191.683 1242.26C186.828 1222.63 186.511 1202.36 186.625 1182.25C186.746 1160.84 187.538 1139.33 190.142 1118.06C187.289 1117.39 184.125 1116.81 181.242 1117.01C179.814 1119.3 177.044 1120.26 174.541 1119.96C169.098 1125.97 182.904 1132.1 187.316 1133.64C188.848 1134.17 188.684 1136.66 186.917 1136.58L185.804 1136.53C178.986 1136.17 171.943 1135 167.935 1128.67C164.723 1123.59 165.688 1117.57 169.517 1113.43C172.046 1089.52 178.092 1066.24 183.719 1042.91C189.241 1020.02 195.382 997.268 201.891 974.635L204.809 964.505C215.057 929.016 225.769 893.241 239.906 859.163C246.965 842.147 255.097 825.444 266.12 810.607C276.395 796.776 288.526 784.941 302.47 774.833C328.465 755.987 358.967 744.6 388.937 733.751L390.279 733.266C405.81 727.648 421.303 721.963 436.657 715.876C450.236 710.493 463.245 703.668 476.76 698.204C476.321 697.407 475.897 696.601 475.489 695.786L475.239 695.996C475.196 696.03 475.152 696.063 475.107 696.094C473.748 697.036 471.747 696.573 470.627 695.516C467.464 692.532 468.535 689.219 470.646 686.125L470.921 685.731C473.503 682.114 475.806 678.29 478.189 674.542L479.681 672.198C483.681 665.936 487.884 659.633 493.218 654.458C495.688 652.06 498.392 650.266 501.257 648.929C501.012 648.411 503.16 647.352 503.769 647.885C512.846 644.563 523.289 645.259 533.185 646.175M889.809 1191.13L877.189 1192.56C863.305 1194.14 849.415 1195.67 835.524 1197.18L805.352 1200.46C805.275 1202.18 805.066 1203.86 805.028 1205.16C804.831 1211.86 804.684 1218.56 804.545 1225.26C804.266 1238.68 804.572 1252.13 805.456 1265.53C806.313 1278.51 807.441 1291.5 809.195 1304.4L809.554 1306.98L809.762 1308.33C811.193 1308.47 812.599 1309.15 813.768 1310.55C816.32 1313.6 825.561 1310.63 829.17 1309.35C835.105 1307.24 840.694 1303.67 845.851 1300.09C850.887 1296.6 855.422 1292.53 859.78 1288.23L863.345 1284.71C866.892 1281.18 870.443 1277.43 872.616 1272.99C875.563 1266.98 875.944 1259.6 876.808 1253.05C877.872 1245 879.139 1236.95 880.478 1228.93M523.454 1106.58L522.145 1106.93C474.594 1119.56 427.114 1132.57 379.417 1144.65C355.813 1150.63 332.097 1156.17 308.464 1162.03L304.638 1162.99C285.994 1167.7 267.126 1173.37 252.849 1186.89C252.322 1187.39 251.557 1186.63 252.053 1186.1C267.44 1169.72 289.324 1162.78 310.336 1156.77C314.22 1155.66 318.109 1154.58 321.994 1153.47C293.418 1143.29 264.391 1134.42 234.694 1128.1C227.047 1126.47 219.311 1125.28 211.67 1123.64C206.341 1122.5 201.137 1120.86 195.864 1119.49L191.717 1118.45L191.662 1131.55C191.593 1150.12 191.626 1168.67 192.573 1187.23L192.752 1190.67C193.857 1211.33 195.582 1232.41 202.913 1251.89C208.87 1267.72 218.365 1282.63 230.782 1294.16C237.065 1299.99 243.82 1304.53 252.17 1306.77C259.923 1308.86 268.046 1309.1 276.016 1308.54C314.245 1305.88 348.275 1285.11 381.483 1267.92C435.8 1239.79 490.123 1211.68 544.495 1183.67C543.025 1182.66 541.641 1181.51 540.382 1180.21C533.091 1172.68 529.245 1162.37 526.719 1152.38C524.03 1141.76 522.422 1130.37 522.235 1119.4M592.637 1194.53C593.117 1194.27 593.673 1194.59 593.695 1195.13C593.863 1199.29 591.568 1203.38 589.853 1207.12L589.672 1207.52C587.589 1212.16 585.308 1216.73 582.949 1221.23C578.234 1230.22 573.334 1239.11 568.22 1247.88C557.936 1265.52 546.508 1282.42 533 1297.78C529.949 1301.25 524.931 1296.8 526.889 1293.07C536.329 1275.06 547.334 1258.05 558.662 1241.2C564.333 1232.76 570 1224.31 575.727 1215.91C578.116 1212.4 580.536 1208.91 583.021 1205.47L584.52 1203.41M1156.59 854.45C1108.87 855.891 1061.21 859.003 1013.72 863.88C969.558 868.415 925.554 874.452 881.798 881.978C872.659 883.55 863.531 885.186 854.414 886.887L848.946 887.915C839.828 889.643 828.689 890.356 820.571 895.227C812.012 900.362 809.699 911.094 806.851 919.944C803.503 930.352 800.24 940.79 797.065 951.253C784.457 992.796 772.94 1034.7 762.666 1076.88C757.566 1097.82 753.041 1118.87 748.273 1139.88C744.037 1158.55 739.363 1177.01 734.48 1195.49C735.082 1195.03 735.82 1194.67 736.711 1194.48C760.959 1189.32 785.71 1187.08 810.321 1184.23L812.702 1183.95C838.161 1180.96 863.62 1177.99 889.094 1175.12L1057.75 1156.15C1067.7 1155.04 1078.36 1154.88 1088.04 1152.22C1104.49 1147.68 1108.35 1129.28 1111.11 1114.62L1111.2 1114.18C1119.52 1069.91 1126.15 1025.25 1133.91 980.864M738.405 1144.03C731.857 1143.6 722.895 1137.6 717.927 1138.03C720.535 1142.41 721.712 1147.4 720.209 1152.73C716.026 1167.56 697.109 1159.88 687.997 1155.35C680.526 1151.64 673.312 1147.09 665.041 1145.35C655.671 1143.38 649.323 1147.1 641.407 1151.4C634.905 1154.93 627.824 1157.46 620.542 1158.77C616.67 1159.47 612.992 1159.54 609.321 1159.27C609.1 1159.45 608.851 1159.62 608.567 1159.77L606.625 1160.78C615.406 1161.19 624.35 1163.9 632.522 1166.38C640.99 1168.95 649.303 1172.05 657.572 1175.21L665.706 1178.34C685.772 1186.02 706.542 1193.32 728.258 1193.26C729.819 1193.25 731.098 1193.68 732.105 1194.39M701.769 1097.55C708.238 1096.76 714.209 1097.61 719.378 1101.82C725.612 1106.9 729.8 1115.32 738.762 1115.88C741.375 1116.04 741.982 1119.71 739.385 1120.48C732.714 1122.45 727.313 1118.84 722.768 1114.16L719.712 1110.97C715.221 1106.32 711.078 1102.72 703.457 1103C695.295 1103.3 687.119 1105.18 679.01 1106.14C669.824 1107.23 660.64 1108.15 651.425 1108.95C650.997 1108.99 650.924 1108.31 651.325 1108.22L661.646 1105.65M695.525 1071.11L696.592 1071C705.985 1070.09 714.576 1070.05 722.966 1075.11L724.575 1076.08C732.139 1080.68 740.372 1086.09 745.102 1093.54C745.876 1094.76 744.597 1096.19 743.302 1095.88C734.211 1093.7 727.565 1087.03 719.92 1082.04C711.34 1076.43 702.477 1077.36 692.694 1078.23C683.222 1079.07 673.755 1080.23 664.376 1081.81C655.563 1083.29 646.722 1085.63 637.82 1086.38L637.822 1086.36C636.805 1086.36 636.225 1084.83 637.262 1084.31C646.296 1079.8 656.759 1077.66 666.586 1075.6M980.89 978.264C979.982 973.921 985.324 971.907 987.8 975.352L988.326 976.078C993.675 983.407 1001.41 992.603 1001.02 1001.92C1005.72 1002.03 1010.59 1004.88 1012.43 1009.13C1013.27 1011.09 1013.56 1013.41 1013.37 1015.82C1017.65 1016.15 1022.31 1018.96 1024.92 1021.69C1029.25 1026.22 1029.59 1032.62 1026.49 1037.91C1019.71 1049.45 1004.91 1053.65 992.421 1054.58L991.976 1054.61C979.072 1055.51 960.478 1055.27 951.63 1044.19C943.095 1033.52 952.528 1024.87 962.201 1020.17C959.683 1017.88 958.379 1014.58 959.605 1011.1C961.758 1004.99 969.359 1002.63 973.654 998.382C978.889 993.202 982.349 986.097 980.97 978.669M987.981 987.655C986.558 993.839 983.062 999.495 978.193 1003.98C976.331 1005.69 974.294 1007.22 972.13 1008.53L971.87 1008.68C969.95 1009.76 965.229 1011.78 965.592 1014.2C965.966 1016.68 973.657 1020.57 975.753 1020.57C976.23 1020.57 976.5 1021.32 976.013 1021.54C972.214 1023.21 968.896 1023.93 965.181 1022.16C962.699 1024.69 960.288 1027.32 957.9 1029.91C953.677 1034.51 955.122 1039.37 960.112 1042.79C968.13 1048.3 980.318 1048.16 989.673 1047.76C999.089 1047.36 1009.15 1045.26 1016.51 1038.99L1016.83 1038.71C1020.83 1035.15 1024.48 1029.13 1018.36 1025.71C1015.96 1024.36 1013.37 1024.44 1011.09 1023.79C1008.96 1027.97 1005.51 1031.31 1001.29 1031.96C997.885 1032.48 995.539 1028.19 998.638 1026.15L999.334 1025.71C1003.23 1023.23 1006.55 1019.4 1006.46 1014.42C1006.4 1010.96 1001.57 1006.59 998.423 1009.84L998.278 1010C995.645 1012.97 991.008 1009.23 992.739 1005.94L992.822 1005.79M373.862 815.676C373.851 814.933 374.896 814.655 375.261 815.298C381.373 826.051 384.568 839.232 387.824 851.079C391.234 863.489 393.986 876.025 396.459 888.653C401.468 914.224 404.137 939.648 404.319 965.71C404.343 969.431 398.281 970.421 397.688 966.608C393.751 941.257 389.979 915.88 386.012 890.536C384.016 877.789 381.694 865.091 379.47 852.382M434.371 834.405C433.921 832.922 436.079 832.426 436.631 833.782C448.897 863.891 453.051 898.013 445.176 929.778C443.971 934.637 436.854 932.532 437.763 927.734M592.588 807.651C592.526 806.541 593.967 806.366 594.51 807.13C600.322 815.319 602.733 826.286 612.93 830.518C618.021 832.631 623.75 832.263 628.248 835.832C631.255 838.219 633.561 841.987 631.304 845.602C630.576 846.77 628.538 847.355 627.55 846.086C626.108 844.237 625.345 842.023 623.386 840.637C620.623 838.682 616.897 838.561 613.729 837.642C609.631 836.454 606.019 834.375 603.061 831.286M689.686 671.067C690.285 670.762 690.86 670.957 691.243 671.475C691.79 672.213 691.723 672.931 691.053 673.437C691.948 675.266 693.005 679.848 693.156 680.515C693.768 683.219 694.419 685.907 695.1 688.593C696.474 694.01 697.678 699.469 699.053 704.888C700.511 710.632 702.248 716.315 704.181 721.916C704.306 722.279 704.443 722.649 704.587 723.025L704.807 723.592L704.861 723.506C705.254 722.885 706.072 723.319 705.975 723.975C705.885 724.573 705.764 725.168 705.662 725.766L705.865 726.302C707.129 729.705 707.995 733.289 705.675 736.292C704.807 737.415 703.852 738.08 702.662 738.278C700.754 744.568 698.36 750.741 695.797 756.669L695.046 758.401C691.276 767.051 687.255 775.587 681.252 782.951C674.698 790.991 665.683 796.481 659.974 805.291C657.318 809.389 655.47 813.698 653.97 818.326L653.406 820.083C652.341 823.356 651.113 826.529 648.042 828.449C647.062 829.061 645.594 828.866 644.804 828.031C638.507 821.37 645.099 808.932 648.896 802.483C654.174 793.515 661.813 787.778 669.462 781.012C677.707 773.719 682.966 763.963 688.053 754.352C691.169 748.464 694.177 742.449 697.344 736.535C694.035 733.611 692.976 727.802 691.855 723.764L691.753 723.402C689.9 716.936 688.428 710.302 687.498 703.639C686.603 697.233 686.23 690.918 686.467 684.476L686.535 682.835M701.988 701.559C701.257 700.557 702.467 699.422 703.47 699.631C709.569 700.892 715.531 704.583 721.004 707.568L721.588 707.885C725.957 710.241 730.353 713.127 732.647 717.704C735.142 722.679 734.937 728.408 734.597 733.814L734.564 734.32C734.147 740.803 734.08 747.539 732.708 753.905C732.006 757.163 729.055 758.081 726.532 757.311C723.53 766.79 715.097 773.774 708.937 781.254C701.083 790.79 702.561 803.665 703.382 815.15C703.714 819.8 697.93 821.122 694.951 818.641L688.086 812.939C686.943 811.987 685.801 811.033 684.662 810.076C683.687 809.255 682.721 808.429 681.762 807.591L680.33 806.327C679.695 805.759 676.894 802.63 676.075 802.5C674.092 802.185 669.379 807.413 667.766 809.053L667.561 809.257C664.525 812.234 661.782 815.437 659.227 818.834C658.757 819.458 657.838 818.94 658.174 818.219C660.464 813.315 663.126 808.626 666.287 804.238L666.925 803.364C669.028 800.53 671.851 795.526 675.563 794.689C680.096 793.668 684.622 798.213 687.92 800.736L688.128 800.894C689.697 802.071 691.248 803.269 692.796 804.475C692.634 795.924 693.714 787.284 698.129 779.915C701.242 774.718 705.906 770.869 709.897 766.403C714.34 761.43 716.66 755.318 720.682 750.139C721.2 749.473 721.914 749.114 722.687 749C722.842 744.837 723.455 740.632 723.929 736.513L724.066 735.28C724.545 730.805 725.677 725.339 723.486 721.148C721.417 717.19 716.668 714.395 713.152 711.71L710.28 709.482M504.074 654.241C502.238 655.303 500.522 656.624 498.965 658.275C494.064 663.474 490.56 669.944 487.15 676.168C485.314 679.52 483.544 682.909 481.693 686.253C480.888 687.708 480.06 689.147 479.223 690.584C478.836 691.246 477.686 692.562 477.116 693.373C477.749 694.26 478.404 695.134 479.072 695.998C479.327 696.328 496.908 715.48 503.036 722.975C512.42 734.456 520.808 746.583 527.979 759.563C535.001 772.274 540.347 785.732 546.852 798.689C550.108 805.176 553.744 811.617 558.379 817.231C558.558 817.45 558.747 817.657 558.93 817.873C560.699 813.094 565.232 807.977 567.458 805.039L567.666 804.762C572.715 797.956 578.047 791.355 583.495 784.866C588.471 778.941 593.573 773.143 598.799 767.442L600.765 765.308C604.406 761.375 609.031 755.49 614.361 752.68C613.79 751.662 613.129 750.655 612.369 749.661C607.375 743.135 600.315 738.399 593.35 734.126L588.832 731.378C571.804 721.001 555.042 710.144 540.259 696.661C532.438 689.527 524.725 682.054 518.151 673.733L515.826 670.791M532.486 649.104C524.512 649.773 515.901 649.614 508.532 652.212C515.083 658.405 521.31 665.092 527.707 671.389C528.276 667.13 529.44 662.923 530.426 658.77" fill="#210263"/>
<path fill-rule="evenodd" clip-rule="evenodd" d="M802.719 604.844C798.763 598.982 789.239 556.442 783.155 549.899C783.614 524.769 790.546 437.762 770.745 398.65C774.91 394.429 785.979 358.074 783.155 344.331C792.483 315.549 732.556 269.836 709.75 257.483C603.753 200.524 450.156 263.397 401.95 368.912C372.983 432.457 372.449 503.603 369.174 571.978C368.787 586.614 367.444 601.364 367.459 615.982C369.554 628.827 379.717 641.908 372.013 652.589C363.502 658.488 346.3 672.86 353.959 681.01C358.447 684.755 365.617 682.582 370.488 686.183C372.968 687.573 374.514 690.62 377.414 691.083C403.904 690.075 422.597 689.989 449.169 688.913C460.801 688.531 478.514 693.462 491.866 683.646C538.506 709.642 518.997 671.927 528.428 645.075C557.147 654.806 614.356 685.837 644.969 686.839C669.845 689.92 693.107 675.402 717.563 678.707C747.946 690.018 783.553 692.533 811.383 673.395C818.328 668.383 826.055 674.189 834.809 668.776C851.822 660.623 811.305 613.889 802.719 604.844Z" fill="#B0824C"/>
<path fill-rule="evenodd" clip-rule="evenodd" d="M401.95 368.912C450.156 263.397 603.753 200.524 709.75 257.483C732.556 269.836 792.483 315.549 783.155 344.331C785.289 354.721 779.485 378.032 774.725 390.615C752.624 406.983 688.09 403.586 581.125 380.423L577.018 379.529L540.492 401.218L525.488 457.717C515.415 467.705 507.275 479.899 501.068 494.299C501.068 494.299 485.967 477.678 463.58 479.799C449.023 486.008 438.304 492.774 431.423 500.096C424.679 507.271 424.544 523.358 431.018 548.357L431.423 549.899L463.58 559.932H478.502L519.501 610.143L525.487 661.795C524.14 684.407 529.232 704.473 491.866 683.646C478.514 693.462 460.801 688.531 449.169 688.913C422.597 689.989 403.904 690.075 377.414 691.083C374.514 690.62 372.968 687.573 370.488 686.183C365.617 682.582 358.447 684.755 353.959 681.01C346.3 672.86 363.502 658.488 372.013 652.589C379.717 641.908 369.554 628.827 367.459 615.982C367.444 601.364 368.787 586.614 369.174 571.978L369.462 565.817C372.506 499.341 373.852 430.551 401.95 368.912ZM774.217 573.495L783.555 538.055L783.348 543.385C783.257 545.863 783.188 548.049 783.154 549.899C789.239 556.442 798.763 598.982 802.719 604.844L803.576 605.758C813.684 616.658 851.311 660.867 834.809 668.777C826.055 674.189 818.328 668.383 811.383 673.395C783.553 692.533 747.946 690.018 717.563 678.707C714.001 678.226 710.465 678.122 706.945 678.288L705.494 673.736L738.742 645.075L774.217 573.495Z" fill="url(#paint0_linear_341_19270)"/>
<path fill-rule="evenodd" clip-rule="evenodd" d="M767.985 395.313C767.608 393.142 770.593 391.523 771.748 393.723C780.135 409.704 783.495 428.211 786.465 445.863C789.466 463.701 791.449 481.613 791.559 499.721C791.642 513.65 790.38 527.74 788.01 541.679L788.299 542.671V542.671C788.831 544.493 789.368 546.314 789.911 548.133L790.729 550.861C792.312 556.099 793.811 561.361 795.436 566.586C798.83 577.491 802.404 588.427 806.78 598.98C811.051 609.278 816.245 619.209 822.419 628.491C828.37 637.439 837.813 645.005 842.005 654.943C843.466 658.406 841.305 662.984 837.27 662.431C837.008 662.748 836.607 662.978 836.065 663.026C832.931 663.3 829.994 663.039 826.868 662.745C825.123 662.581 825.126 660.19 826.868 660.026C828.196 659.901 829.489 659.791 830.782 659.716C821.841 654.407 815.462 644.04 810.362 635.553C803.808 624.649 798.857 612.735 794.822 600.687C790.678 588.317 787.743 575.689 785.385 562.867C785.114 561.391 784.857 559.914 784.609 558.435C781.63 571.128 777.793 583.589 773.245 595.565L772.608 597.232C762.125 624.466 747.927 651.961 724.312 669.961C723.24 670.777 722.145 671.552 721.042 672.31L722.385 673.082C723.722 673.847 725.04 674.581 726.328 675.183C731.099 677.414 736.28 679.115 741.404 680.32C751.987 682.811 763.102 682.097 773.899 682.444C777.441 682.558 779.455 687.879 775.835 689.607C763.909 695.298 751.028 694.09 738.718 690.086C732.627 688.103 726.911 685.328 721.624 681.705C719.437 680.208 716.898 678.36 714.755 676.224C691.138 689.466 661.784 690.948 635.498 686.212C621.837 683.75 608.6 679.255 596.954 671.566C585.752 664.172 577.767 654.81 572.066 642.681C571.56 641.606 572.966 640.267 573.829 641.318C591.736 663.113 622.553 672.207 649.664 673.937C664.129 674.861 678.927 674.093 692.834 669.756C706.027 665.64 717.348 658.096 726.8 648.063C745.958 627.726 757.438 600.06 765.682 573.731C774.651 545.088 778.922 514.952 779.803 484.976C780.25 469.789 779.688 454.474 777.308 439.455C774.947 424.56 770.565 410.145 767.985 395.313ZM499.502 266.282C500.771 265.636 501.664 267.317 500.588 268.144C478.258 285.305 458.26 307.065 442.075 330.096C412.225 372.573 393.081 421.727 384.266 472.803C379.061 502.966 377.702 533.586 378.222 564.151C378.428 576.292 379.12 588.397 379.889 600.505L380.758 613.927C381.162 620.18 381.499 626.38 381.238 632.664L381.167 634.116C380.754 641.428 381.472 648.799 379.642 655.932C378.703 659.59 373.554 660.166 371.69 656.973C371.325 656.348 370.984 655.703 370.653 655.052C366.284 662.192 360.626 668.575 354.348 674.277C357.349 673.637 360.378 673.229 363.489 673.602C368.419 674.194 372.842 676.102 375.971 679.446C379.078 678.043 382.272 677.077 385.945 677.057C388.651 677.043 390.679 680.248 389.136 682.629C386.056 687.381 381.759 690.045 376.876 692.678C373.416 694.544 369.286 692.948 368.009 689.258L367.935 689.034C366.497 684.366 358.85 685.12 355.241 685.842L354.179 686.059C347.463 687.46 340.904 689.252 334.061 687.404C329.647 686.211 328.494 679.553 332.749 677.343C346.19 670.363 357.474 660.987 369.071 651.573C366.51 645.282 365.056 638.253 363.38 631.856C361.02 622.852 360.33 613.164 359.478 603.915C357.859 586.33 357.241 568.554 357.415 550.9C358.002 491.272 368.179 431.459 394.173 377.464C405.561 353.811 420.521 331.924 438.205 312.551C455.784 293.292 476.315 278.084 499.502 266.282ZM478.691 558.296C478.002 557.338 479.348 556.071 480.292 556.692C500.73 570.145 514.913 590.573 524.064 613.014C533.123 635.231 538.685 662.444 529.751 685.612C528.329 689.302 521.519 690.672 520.821 685.612C517.707 663.016 517.223 640.388 510.374 618.42C503.584 596.643 491.967 576.701 478.691 558.296ZM462.844 631.652C462.956 631.253 463.607 631.322 463.579 631.752C463.067 639.72 462.719 647.785 461.72 655.709C461.234 659.56 460.591 663.386 460.044 667.228C459.483 671.168 459.568 675.146 457.282 678.511C454.252 682.972 446.203 681.717 446.474 675.578C446.66 671.343 448.602 668.625 450.421 664.908C451.588 662.525 452.605 660.062 453.586 657.587L455.043 653.875C457.939 646.514 460.71 639.277 462.844 631.652ZM426.247 610.545C426.371 609.918 427.379 610.069 427.349 610.694C426.804 621.972 425.534 633.123 423.546 644.236C422.64 649.301 421.583 654.339 420.466 659.361L419.983 661.513C418.788 666.803 418.016 673.022 415.338 677.748C412.662 682.471 406.307 679.041 407.13 674.28C408.092 668.722 411.496 663.131 413.475 657.793C415.301 652.865 416.898 647.85 418.389 642.811C421.53 632.204 424.105 621.398 426.247 610.545ZM494.399 641.855L494.637 641.611C495.567 640.598 496.954 641.273 497.398 642.342C499.216 646.723 498.306 651.889 498.176 656.54L498.152 657.554C498.056 662.265 498.123 666.678 495.991 671.028C493.403 676.309 486.582 673.029 486.054 668.331C485.477 663.204 487.897 658.185 489.46 653.383C490.453 650.331 491.176 647.157 492.686 644.387C491.395 644.61 490.105 645.057 488.925 645.38C488.396 645.523 488.197 644.745 488.701 644.565C490.653 643.872 492.857 643.352 494.399 641.855V641.855ZM766.483 657.402C765.859 656.703 766.636 655.772 767.446 656.15C777.165 660.699 786.256 663.658 796.98 664.627C801.627 665.047 801.656 672.363 796.98 671.939C785.788 670.929 774.058 665.9 766.483 657.402ZM424.53 503.709C433.087 484.42 460.158 467.309 478.311 485.247C478.651 485.582 478.305 486.313 477.811 486.108C466.519 481.419 452.697 487.383 444.882 495.913C438.682 502.679 434.957 511.367 434.218 520.524C433.478 529.689 435.665 539.255 441.739 546.344C444.925 550.063 449.228 553.583 454.291 554.03C459.403 554.481 463.664 550.873 468.497 549.893C472.141 549.155 474.891 551.446 475.248 555.045C476.035 562.988 468.144 568.319 461.303 569.614C453.945 571.006 446.435 569.485 440.094 565.489C419.616 552.583 415.198 524.748 424.53 503.709ZM616.669 314.646C620.39 311.082 626.72 314.625 625.347 319.709C622.427 330.529 616.221 339.674 609.346 348.354C602.731 356.705 595.644 364.73 588.048 372.199C580.502 379.619 572.303 386.485 563.686 392.618L561.091 394.46C554.984 398.775 548.516 403.137 541.68 406.244C540.029 420.494 536.8 434.554 531.914 448.015C527.209 460.977 521.222 473.504 513.967 485.227L512.926 486.906C506.259 497.613 498.243 509.578 486.931 515.447C486.591 515.624 486.251 515.732 485.916 515.795C488.446 517.486 490.585 519.613 491.856 522.669C493.249 526.015 490.337 529.172 487.546 530.277C481.644 532.614 475.886 528.658 470.58 524.438C470.356 524.944 470.144 525.455 469.962 525.97C468.776 529.34 468.427 532.784 465.367 535.02C463.913 536.083 462.122 535.132 461.207 533.928C458.207 529.978 461.313 524.597 463.95 521.369C464.315 520.923 464.693 520.499 465.081 520.092C463.966 519.271 462.878 518.543 461.825 517.984C455.629 514.696 446.444 514.113 442.877 521.392C442.603 521.951 441.744 521.662 441.744 521.084C441.753 512.143 450.893 507.287 458.824 506.627C464.619 506.146 470.224 508.182 475.439 510.553L476.413 511.001C478.354 511.904 480.353 512.756 482.267 513.709C481.956 512.886 481.961 511.918 482.451 510.958C488.449 499.219 498.75 489.673 506.178 478.801C513.544 468.015 519.869 456.472 524.917 444.419C529.817 432.72 533.656 420.654 536.34 408.347C535.456 408.53 534.459 407.741 534.522 406.816C534.672 404.578 535.764 402.562 537.683 401.703C539.797 390.127 540.876 378.355 540.813 366.488C540.808 365.568 542.138 365.601 542.216 366.488C543.15 377.039 543.226 387.693 542.44 398.285C547.432 393.683 552.696 389.308 557.501 384.584C564.733 377.476 571.729 370.178 578.478 362.609C585.363 354.887 591.872 346.881 597.823 338.41L600.938 333.968C605.726 327.158 610.645 320.419 616.669 314.646ZM607.28 238.62C648.349 236.051 692.21 241.109 729.1 260.428C749.36 271.037 765.02 287.072 776.21 307.027C782.89 318.943 787.959 332.138 789.879 345.704C791.85 359.643 789.535 372.072 780.654 383.152C777.127 387.552 771.185 382.637 772.054 378.135C777.371 350.591 768.747 323.377 753.453 300.574C731.259 267.484 692.5 252.785 654.762 246.228C636.221 243.008 617.416 241.662 598.606 242.317C584.265 242.817 569.554 244.156 555.945 248.991C555.371 249.195 555.143 248.299 555.696 248.088C571.929 241.875 590.051 239.698 607.28 238.62ZM668.189 300.903C670.303 299.56 672.89 300.938 673.616 303.117C676.179 310.799 670.808 320.948 667.216 327.596C663.151 335.119 657.923 342.153 652.524 348.76C641.724 361.974 627.529 373 611.952 379.93C610.998 380.355 609.886 379.201 610.761 378.385C622.814 367.138 633.742 355.08 643.202 341.553C647.85 334.906 651.727 327.894 655.429 320.691C658.742 314.245 661.857 304.925 668.189 300.903ZM737.261 309.953C738.612 305.225 746.307 306.03 745.989 311.137C745.166 324.33 738.955 337.573 732.206 348.754C725.257 360.267 716.457 370.527 706.369 379.388C705.872 379.825 705.191 379.152 705.641 378.659C714.345 369.111 721.375 358.235 726.581 346.399C731.781 334.58 733.744 322.248 737.261 309.953ZM699.012 307.817C700.484 303.706 707.529 304.011 707.097 308.914C705.909 322.392 698.016 336.517 690.706 347.649C682.948 359.46 673.046 369.865 661.979 378.604C661.565 378.931 660.979 378.389 661.384 378.007C671.324 368.622 679.385 357.781 685.766 345.689C689.023 339.519 691.755 333.094 693.913 326.457C695.909 320.317 696.846 313.869 699.012 307.817Z" fill="#534247"/>
<path fill-rule="evenodd" clip-rule="evenodd" d="M688.853 627.089L690.986 626.522C698.626 624.441 706.554 621.137 713.848 625.665C716.482 627.3 716.879 630.777 714.797 633.027C708.888 639.411 700.166 638.173 692.175 638.237L691.782 638.241C683.742 638.352 675.762 637.951 667.805 636.798C666.756 636.646 666.549 634.903 667.502 634.485C674.43 631.448 681.556 629.053 688.853 627.089V627.089ZM701.814 510.367C709.366 514.957 720.872 525.66 712.748 537.04C703.186 547.073 689.418 535.569 682.634 530.366C676.343 526.334 669.275 536.704 675.112 541.413C724.136 577.708 744.031 511.567 705.634 504.97C701.406 504.243 699.836 508.947 701.814 510.367ZM754.316 450.005C766.498 449.632 766.509 468.985 754.316 468.933C750.676 468.917 747.036 468.916 743.396 468.908C745.511 476.619 744.303 485.814 740.483 492.291C737.963 496.566 731.932 497.343 728.409 493.847C722.327 487.811 721.128 478.984 723.277 470.98L722.835 469.933V469.933C722.691 469.59 722.588 469.243 722.504 468.894C710.739 468.904 698.974 468.933 687.208 468.952L669.56 468.97C658.102 468.974 646.639 469.067 635.18 468.96C635.321 469.173 635.462 469.385 635.577 469.628C636.292 471.133 636.595 473.033 636.82 474.66C637.204 477.452 637.158 480.459 636.718 483.24C636.397 485.272 635.807 487.692 634.676 489.607L634.669 489.647V489.647C634.136 491.919 633.463 494.094 631.706 495.733C631.178 496.224 630.663 496.574 630.119 496.822C629.092 497.897 627.77 498.608 626.033 498.631C625.111 498.641 624.1 498.372 623.12 497.99C621.613 498.116 620.057 497.434 618.724 496.83C617.655 496.345 616.674 495.701 615.883 494.861C615.512 494.773 615.138 494.628 614.764 494.397C612.472 492.987 611.596 490.161 611.477 487.609C611.469 487.454 611.475 487.291 611.47 487.134C611.385 486.788 611.309 486.44 611.251 486.09C610.489 481.555 611.415 476.448 612.385 472.041C612.629 470.938 612.83 469.657 613.129 468.418C610.842 468.329 608.557 468.241 606.27 468.147C600.542 467.913 593.551 468.68 588.252 466.259C587.866 466.084 587.97 465.57 588.252 465.369C593.144 461.872 600.746 461.306 606.638 460.155L607.138 460.054C614.164 458.613 621.186 457.401 628.283 456.366C641.944 454.374 655.78 453.302 669.56 452.53C697.773 450.95 726.074 450.868 754.316 450.005Z" fill="black"/>
<path fill-rule="evenodd" clip-rule="evenodd" d="M756.809 436C780.281 436 793.676 441.048 798.584 441.441L798.732 441.451C800.773 441.582 802.605 441.753 804.526 442.496C811.592 445.217 812.743 452.627 808.619 457.298C808.33 466.961 809.601 478.253 807.42 487.947C804.73 528.818 785.509 535.716 774.584 538.233C769.098 539.497 762.597 540 756.771 538.666C746.831 538.295 737.004 535.184 728.597 529.765C716.888 522.213 708.191 510.606 705.368 496.83C704.031 490.264 703.406 483.429 704.134 476.754L704.242 475.835C700.436 474.014 696.025 473.67 691.479 473.509C689.307 473.432 687.166 473.363 685.087 473.455C683.054 473.682 681.045 473.984 679.031 474.396C676.831 475.059 674.753 476.155 672.835 477.89L672.703 480.423C672.343 486.749 671.512 493.094 670.231 499.3C668.339 508.458 665.297 517.204 658.822 523.699C656.63 526.973 653.918 529.895 650.626 532.425C638.665 541.634 622.415 545.015 607.502 543.742C577.225 541.158 559.724 517.123 555.691 506.85L555.45 506.228C552.537 498.59 550.215 488.681 541.009 487.04L539.051 486.688C534.85 485.899 530.973 484.802 528.51 480.703C527.43 478.913 526.875 476.912 526.739 474.872C525.301 474.982 523.866 475.088 522.436 475.19C511.028 477.603 442.6 479.648 437.138 479.648C437.138 479.648 426.639 484.067 422.207 480.643C419.134 478.263 418.123 475.09 419.815 471.495C422.367 466.086 434.14 462.833 439.368 461.803C439.368 461.803 523.733 462.503 529.805 461.352C533.562 457.478 540.282 458.008 545.898 457.396C550.546 454.081 557.049 451.861 562.186 450.375C563.233 449.978 564.27 449.595 565.278 449.233C574.695 445.88 584.484 444.103 594.422 443.149C604.67 442.175 614.948 442.616 625.136 444.012C629.429 444.594 633.682 445.347 637.906 446.332C645.468 447.329 652.986 448.971 660.551 450.919L662.065 451.313C670.031 453.401 678.217 455.208 686.464 453.792C693.177 452.647 699.634 450.063 705.824 447.269L706.629 446.904C720.24 440.689 741.496 436 756.809 436ZM637.087 458.722C632.065 457.618 629.92 465.361 634.958 466.468C638.526 467.253 641.549 469.052 643.592 472.099L643.807 472.431C646.548 476.793 653.48 472.766 650.72 468.376C647.614 463.436 642.788 459.976 637.087 458.722ZM784.173 453.922C782.403 452.675 779.724 453.6 778.696 455.363C777.565 457.303 778.306 459.464 779.964 460.733L780.133 460.857C781.654 461.929 783.135 463.851 783.321 465.819L783.338 466.066C783.537 471.218 791.544 471.244 791.344 466.066C791.149 461 788.215 456.767 784.173 453.922Z" fill="black"/>
<defs>
<linearGradient id="paint0_linear_341_19270" x1="792" y1="389" x2="595.49" y2="692.386" gradientUnits="userSpaceOnUse">
<stop stop-color="#E7B6B6"/>
<stop offset="0.195" stop-color="#D8D6C6"/>
<stop offset="1" stop-color="#E7DFB6"/>
</linearGradient>
</defs>
</svg>