<svg width="1136" height="1533" viewBox="0 0 1136 1533" fill="none" xmlns="http://www.w3.org/2000/svg">
<path fill-rule="evenodd" clip-rule="evenodd" d="M806.933 856.977C798.249 853.881 789.879 850.305 782.253 845.045C760.27 828.682 745.936 804.057 732.392 780.726C713.314 746.793 699.723 710.635 690.328 672.915C686.291 656.709 684.92 637.919 675.748 623.551C654.956 593.466 593.987 597.364 561.612 602.645C539.932 606.481 535.451 630.743 530.527 648.696C526.427 663.613 523.743 678.699 521.49 693.987C516.13 697.511 510.079 700.373 504.311 702.866C441.452 722.141 430.404 757.875 406.395 813.073C365.844 893.302 255.809 924.715 239.188 1019.66C228.479 1082.35 258.932 1141.32 290.329 1193.43C319.569 1250.36 360.39 1277.67 425.399 1264.23C486.374 1250.55 544.974 1227.67 604.876 1209.99C633.889 1202.85 662.856 1184.3 693.375 1190.77C756.26 1204.89 820.871 1211.53 885.317 1209.7C975.801 1213.36 975.787 1126.51 966.5 1059.26C959.995 954.599 907.205 887.395 806.933 856.977Z" fill="#B0824C"/>
<path fill-rule="evenodd" clip-rule="evenodd" d="M812.983 1008.42C820.544 1013.42 826.903 1021 832.008 1028.98C810.696 1026.76 789.421 1024.21 768.193 1021.3C770.972 1019.52 773.777 1017.78 776.646 1016.14C787.113 1010.25 801.295 1000.69 812.983 1008.42ZM458.898 1071.42C454.993 1069.89 453.482 1063.94 451.96 1060.52C447.188 1049.82 442.833 1038.94 438.302 1028.13C455.506 1023.22 472.236 1017.78 490.058 1015.17C509.221 1012.36 528.667 1011.68 548.007 1012.31C587.181 1013.59 625.991 1019.99 664.505 1026.86C702.974 1033.71 741.441 1040.3 780.179 1045.47C818.132 1050.54 856.205 1054.24 894.349 1057.5C901.76 1058.13 914.117 1060.8 920.077 1054.96C924.796 1050.35 924.949 1041.83 919.044 1038.07C915.366 1035.73 910.037 1035.7 905.835 1035.16C900.543 1034.48 895.23 1034.02 889.906 1033.67C887.737 1033.53 885.568 1033.39 883.398 1033.26C900.815 1026.7 919.006 1023.11 937.888 1024.11C938.956 1030.6 943.767 1037.27 946.4 1042.62C950.998 1051.96 954.582 1061.42 956.935 1071.57C961.853 1092.8 962.067 1114.83 960.678 1136.48C959.402 1154.54 956.661 1174.5 942.501 1187.29C931.78 1196.97 916.654 1200.55 902.621 1201.68C886.311 1202.99 869.749 1201.59 853.576 1199.4C830.892 1196.34 808.102 1192.28 785.864 1186.85C742.793 1176.32 701.509 1159.57 663.42 1136.85C644.845 1125.78 627.121 1113.32 608.291 1102.66C589.104 1091.81 568.688 1083.38 547.25 1078.15C523.259 1072.3 498.179 1069.8 473.521 1071.25C469.242 1071.5 463.06 1073.05 458.898 1071.42ZM431.096 1060.55C433.617 1068.73 435.546 1078.07 440.927 1084.95C446.257 1091.76 454.298 1094.16 462.628 1094.77C472.672 1095.5 482.834 1095.03 492.9 1095.41C513.545 1096.17 533.907 1099.53 553.643 1105.68C572.035 1111.41 589.108 1120.35 605.554 1130.27C620.762 1139.45 635.524 1149.29 650.737 1158.44C646.688 1160.3 642.685 1162.3 638.66 1164.05C630.218 1167.72 621.724 1171.26 613.192 1174.7C596.367 1181.5 579.471 1188.14 562.402 1194.3C527.984 1206.73 493 1217.59 457.595 1226.84C440.709 1231.25 423.583 1236.41 406.04 1237.14C390.484 1237.79 376.075 1233.39 363.529 1224.14C337.507 1204.96 316.804 1177.27 300.068 1149.96C290.125 1133.73 281.448 1116.68 274.271 1099.05C270.641 1090.14 267.349 1081.08 264.386 1071.93C262.996 1067.63 261.678 1063.3 260.43 1058.96C259.881 1057.05 259.355 1055.13 258.834 1053.21C285.443 1045.09 312.368 1037.76 339.925 1033.7C354.638 1031.52 369.547 1030.42 384.421 1030.58C391.804 1030.66 399.183 1031.06 406.527 1031.82C410.48 1032.23 414.417 1032.76 418.337 1033.41C419.957 1033.68 421.622 1034.08 423.292 1034.37C425.843 1043.12 428.415 1051.85 431.096 1060.55ZM981.138 1025.8C982.572 1022.9 983.177 1020.04 983.691 1016.88C984.083 1014.48 985.123 1011.08 984.212 1007.96C983.192 1004.45 980.413 1001.32 978.418 998.333C976.215 995.031 974.014 991.727 971.816 988.421C967.419 981.81 963.032 975.193 958.652 968.571C940.765 941.53 923 914.411 905.207 887.309C889.417 863.258 873.893 838.991 857.622 815.263C843.709 794.973 828.544 775.018 809.5 759.238C785.421 739.286 756.749 729.887 726.8 722.553C723.529 719.158 719.16 717.304 714.49 717.68C707.892 710.197 702.648 704.97 700.271 695.454C699.132 690.896 699.489 678.089 695.05 675.392C689.777 672.188 687.023 676.428 685.569 681.208C680.704 697.198 686.288 718.696 699.138 734.713C693.724 753.424 686.546 780.016 673.741 795.006C660.029 811.057 641.066 816.053 620.606 816.382C581.588 817.01 542.611 802.509 512.85 777.377C503.804 769.739 495.403 761.208 487.802 752.135C482.101 745.328 475.357 734.823 470.897 726.883C470.897 723.788 467.243 720.553 504.437 718.053C541.63 715.553 544.451 664.626 545.278 657.695C545.95 652.067 548.808 643.331 544.842 638.742C543.159 636.793 539.705 636.479 537.571 637.803C533.547 640.302 532.225 646.692 530.96 651.031C529.188 657.11 523.395 694.837 512.418 699.205C507.279 701.25 501.385 701.288 495.949 701.666C489.236 702.135 482.509 702.478 475.823 703.259C473.357 703.547 470.667 704.345 468.234 704.368C466.651 704.383 465.018 703.614 463.488 703.074C458.324 701.249 453.164 702.618 447.844 703.333C400.808 709.654 352.377 724.081 312.257 750.04C276.895 772.92 251.982 805.825 235.543 844.297C218.77 883.559 209.156 926.016 201.099 967.812C198.4 981.816 196.043 995.885 194.018 1010C192.061 1023.64 189.613 1037.59 189.027 1051.37C188.795 1056.82 190.098 1061.88 192.103 1066.86C194.361 1072.47 199.698 1074.68 204.817 1077.3C216.054 1083.04 227.908 1087.5 240.121 1090.66C247.582 1104.23 253.861 1118.34 258.907 1132.97C257.035 1136.68 256.996 1142.22 256.636 1145.83C255.743 1154.8 255.361 1163.83 255.281 1172.84C255.12 1190.92 256.207 1208.98 257.059 1227.02C257.923 1245.33 260.795 1317.55 261.263 1326.37C261.627 1333.22 261.137 1342.8 264.746 1348.88C270.292 1358.23 283.98 1357.92 290.32 1350.34C447.844 1384.2 743.944 1374 863.199 1356.96C878.715 1354.74 873.843 1357.2 877.789 1353.28C880.75 1350.34 883.27 1345.3 884.089 1341.25C885.183 1335.84 883.417 1330.95 880.321 1326.57C877.066 1321.97 876.473 1314.52 875.264 1309.05C872.405 1296.12 870.984 1239.33 869.648 1233.04C869.232 1231.07 868.829 1229 868.343 1226.93C890.218 1229 913.011 1229 933.822 1221.68C945.623 1217.53 956.629 1211.02 965.101 1201.71C975.359 1190.45 981.066 1176.26 984.001 1161.46C987.788 1142.37 988.592 1122.59 987.848 1103.18C986.814 1080.25 983.01 1056.99 973.568 1035.93C976.675 1033.04 979.279 1029.56 981.138 1025.8Z" fill="#210263"/>
<path fill-rule="evenodd" clip-rule="evenodd" d="M802.719 604.844C798.763 598.982 789.239 556.442 783.154 549.899C783.613 524.769 790.546 437.762 770.745 398.65C774.91 394.429 785.978 358.074 783.154 344.331C792.483 315.549 732.556 269.836 709.75 257.483C603.753 200.524 450.155 263.397 401.95 368.912C372.983 432.457 372.449 503.603 369.174 571.978C368.786 586.614 367.444 601.364 367.459 615.982C369.554 628.827 379.717 641.908 372.013 652.589C363.502 658.488 346.3 672.86 353.959 681.01C358.447 684.755 365.617 682.582 370.488 686.183C372.968 687.573 374.514 690.62 377.414 691.083C403.904 690.075 422.597 689.989 449.169 688.913C460.801 688.531 478.514 693.462 491.866 683.646C538.506 709.642 518.997 671.927 528.428 645.075C557.147 654.806 614.356 685.837 644.969 686.839C669.845 689.92 693.107 675.402 717.563 678.707C747.946 690.018 783.553 692.533 811.383 673.395C818.328 668.383 826.055 674.189 834.809 668.776C851.822 660.623 811.305 613.889 802.719 604.844Z" fill="#B0824C"/>
<path fill-rule="evenodd" clip-rule="evenodd" d="M401.95 368.912C450.155 263.397 603.753 200.524 709.75 257.483C732.556 269.836 792.483 315.549 783.154 344.331C785.289 354.721 779.485 378.032 774.725 390.615C752.624 406.983 688.089 403.586 581.124 380.423L577.018 379.529L540.492 401.218L525.488 457.717C515.415 467.705 507.275 479.899 501.068 494.299C501.068 494.299 485.967 477.678 463.579 479.799C449.023 486.008 438.304 492.774 431.423 500.096C424.679 507.271 424.544 523.358 431.018 548.357L431.423 549.899L463.579 559.932H478.502L519.501 610.143L525.487 661.795C524.14 684.407 529.232 704.473 491.866 683.646C478.514 693.462 460.801 688.531 449.169 688.913C422.597 689.989 403.904 690.075 377.414 691.083C374.514 690.62 372.968 687.573 370.488 686.183C365.617 682.582 358.447 684.755 353.959 681.01C346.3 672.86 363.502 658.488 372.013 652.589C379.717 641.908 369.554 628.827 367.459 615.982C367.444 601.364 368.786 586.614 369.174 571.978L369.462 565.817C372.506 499.341 373.852 430.551 401.95 368.912ZM774.217 573.495L783.555 538.055L783.348 543.385C783.257 545.863 783.188 548.049 783.154 549.899C789.239 556.442 798.763 598.982 802.719 604.844L803.576 605.758C813.684 616.658 851.311 660.867 834.809 668.777C826.055 674.189 818.328 668.383 811.383 673.395C783.553 692.533 747.946 690.018 717.563 678.707C714.001 678.226 710.465 678.122 706.945 678.288L705.494 673.736L738.742 645.075L774.217 573.495Z" fill="url(#paint0_linear_102_19091)"/>
<path fill-rule="evenodd" clip-rule="evenodd" d="M767.985 395.313C767.608 393.142 770.593 391.523 771.747 393.723C780.135 409.704 783.495 428.211 786.465 445.863C789.466 463.701 791.449 481.613 791.559 499.721C791.642 513.65 790.38 527.74 788.01 541.679L788.298 542.671V542.671C788.831 544.493 789.368 546.314 789.911 548.133L790.729 550.861C792.312 556.099 793.811 561.361 795.436 566.586C798.83 577.491 802.404 588.427 806.78 598.98C811.051 609.278 816.245 619.209 822.419 628.491C828.37 637.439 837.813 645.005 842.005 654.943C843.466 658.406 841.305 662.984 837.27 662.431C837.007 662.748 836.607 662.978 836.064 663.026C832.931 663.3 829.994 663.039 826.868 662.745C825.123 662.581 825.126 660.19 826.868 660.026C828.196 659.901 829.489 659.791 830.782 659.716C821.841 654.407 815.462 644.04 810.362 635.553C803.808 624.649 798.857 612.735 794.822 600.687C790.677 588.317 787.743 575.689 785.385 562.867C785.114 561.391 784.857 559.914 784.609 558.435C781.63 571.128 777.793 583.589 773.245 595.565L772.608 597.232C762.125 624.466 747.927 651.961 724.312 669.961C723.24 670.777 722.145 671.552 721.042 672.31L722.385 673.082C723.722 673.847 725.039 674.581 726.327 675.183C731.099 677.414 736.279 679.115 741.404 680.32C751.987 682.811 763.102 682.097 773.899 682.444C777.44 682.558 779.455 687.879 775.835 689.607C763.909 695.298 751.028 694.09 738.718 690.086C732.627 688.103 726.911 685.328 721.623 681.705C719.437 680.208 716.898 678.36 714.755 676.224C691.138 689.466 661.784 690.948 635.498 686.212C621.837 683.75 608.6 679.255 596.954 671.566C585.752 664.172 577.767 654.81 572.066 642.681C571.56 641.606 572.966 640.267 573.829 641.318C591.736 663.113 622.553 672.207 649.664 673.937C664.129 674.861 678.927 674.093 692.834 669.756C706.027 665.64 717.347 658.096 726.799 648.063C745.958 627.726 757.438 600.06 765.682 573.731C774.651 545.088 778.922 514.952 779.803 484.976C780.249 469.789 779.688 454.474 777.308 439.455C774.947 424.56 770.565 410.145 767.985 395.313ZM499.502 266.282C500.77 265.636 501.664 267.317 500.588 268.144C478.258 285.305 458.26 307.065 442.075 330.096C412.225 372.573 393.081 421.727 384.266 472.803C379.061 502.966 377.702 533.586 378.222 564.151C378.428 576.292 379.119 588.397 379.889 600.505L380.758 613.927C381.162 620.18 381.499 626.38 381.238 632.664L381.167 634.116C380.754 641.428 381.472 648.799 379.642 655.932C378.703 659.59 373.554 660.166 371.69 656.973C371.325 656.348 370.984 655.703 370.653 655.052C366.284 662.192 360.626 668.575 354.348 674.277C357.349 673.637 360.378 673.229 363.489 673.602C368.419 674.194 372.842 676.102 375.971 679.446C379.078 678.043 382.272 677.077 385.945 677.057C388.651 677.043 390.679 680.248 389.135 682.629C386.056 687.381 381.759 690.045 376.876 692.678C373.416 694.544 369.286 692.948 368.009 689.258L367.935 689.034C366.497 684.366 358.85 685.12 355.241 685.842L354.179 686.059C347.462 687.46 340.904 689.252 334.061 687.404C329.647 686.211 328.494 679.553 332.749 677.343C346.19 670.363 357.474 660.987 369.071 651.573C366.51 645.282 365.056 638.253 363.38 631.856C361.02 622.852 360.33 613.164 359.478 603.915C357.859 586.33 357.241 568.554 357.415 550.9C358.002 491.272 368.179 431.459 394.173 377.464C405.561 353.811 420.521 331.924 438.205 312.551C455.784 293.292 476.315 278.084 499.502 266.282ZM478.691 558.296C478.001 557.338 479.348 556.071 480.292 556.692C500.729 570.145 514.912 590.573 524.064 613.014C533.123 635.231 538.685 662.444 529.751 685.612C528.329 689.302 521.518 690.672 520.821 685.612C517.707 663.016 517.223 640.388 510.374 618.42C503.584 596.643 491.967 576.701 478.691 558.296ZM462.844 631.652C462.956 631.253 463.607 631.322 463.579 631.752C463.067 639.72 462.719 647.785 461.72 655.709C461.234 659.56 460.591 663.386 460.044 667.228C459.483 671.168 459.568 675.146 457.282 678.511C454.252 682.972 446.203 681.717 446.474 675.578C446.66 671.343 448.602 668.625 450.421 664.908C451.588 662.525 452.605 660.062 453.586 657.587L455.043 653.875C457.939 646.514 460.71 639.277 462.844 631.652ZM426.247 610.545C426.37 609.918 427.379 610.069 427.349 610.694C426.804 621.972 425.534 633.123 423.546 644.236C422.64 649.301 421.583 654.339 420.465 659.361L419.983 661.513C418.787 666.803 418.016 673.022 415.338 677.748C412.661 682.471 406.307 679.041 407.13 674.28C408.092 668.722 411.496 663.131 413.475 657.793C415.301 652.865 416.897 647.85 418.389 642.811C421.53 632.204 424.105 621.398 426.247 610.545ZM494.399 641.855L494.637 641.611C495.567 640.598 496.954 641.273 497.398 642.342C499.216 646.723 498.306 651.889 498.176 656.54L498.152 657.554C498.055 662.265 498.123 666.678 495.991 671.028C493.402 676.309 486.582 673.029 486.054 668.331C485.477 663.204 487.897 658.185 489.46 653.383C490.453 650.331 491.176 647.157 492.686 644.387C491.395 644.61 490.105 645.057 488.925 645.38C488.396 645.523 488.196 644.745 488.701 644.565C490.653 643.872 492.856 643.352 494.399 641.855V641.855ZM766.482 657.402C765.859 656.703 766.636 655.772 767.445 656.15C777.165 660.699 786.256 663.658 796.98 664.627C801.627 665.047 801.656 672.363 796.98 671.939C785.788 670.929 774.057 665.9 766.482 657.402ZM424.53 503.709C433.087 484.42 460.158 467.309 478.31 485.247C478.651 485.582 478.304 486.313 477.81 486.108C466.519 481.419 452.697 487.383 444.882 495.913C438.682 502.679 434.957 511.367 434.218 520.524C433.478 529.689 435.665 539.255 441.739 546.344C444.925 550.063 449.228 553.583 454.291 554.03C459.403 554.481 463.664 550.873 468.497 549.893C472.14 549.155 474.891 551.446 475.248 555.045C476.035 562.988 468.144 568.319 461.303 569.614C453.945 571.006 446.435 569.485 440.094 565.489C419.616 552.583 415.198 524.748 424.53 503.709ZM616.669 314.646C620.39 311.082 626.72 314.625 625.347 319.709C622.427 330.529 616.221 339.674 609.346 348.354C602.731 356.705 595.644 364.73 588.048 372.199C580.502 379.619 572.303 386.485 563.686 392.618L561.091 394.46C554.984 398.775 548.516 403.137 541.68 406.244C540.029 420.494 536.8 434.554 531.914 448.015C527.209 460.977 521.222 473.504 513.967 485.227L512.926 486.906C506.259 497.613 498.243 509.578 486.931 515.447C486.591 515.624 486.251 515.732 485.916 515.795C488.446 517.486 490.585 519.613 491.856 522.669C493.249 526.015 490.337 529.172 487.546 530.277C481.644 532.614 475.886 528.658 470.58 524.438C470.356 524.944 470.144 525.455 469.962 525.97C468.776 529.34 468.427 532.784 465.367 535.02C463.913 536.083 462.122 535.132 461.207 533.928C458.207 529.978 461.313 524.597 463.95 521.369C464.315 520.923 464.693 520.499 465.081 520.092C463.966 519.271 462.878 518.543 461.825 517.984C455.629 514.696 446.444 514.113 442.877 521.392C442.603 521.951 441.744 521.662 441.744 521.084C441.753 512.143 450.893 507.287 458.824 506.627C464.619 506.146 470.224 508.182 475.439 510.553L476.413 511.001C478.354 511.904 480.353 512.756 482.267 513.709C481.956 512.886 481.961 511.918 482.451 510.958C488.449 499.219 498.75 489.673 506.178 478.801C513.544 468.015 519.869 456.472 524.917 444.419C529.817 432.72 533.656 420.654 536.34 408.347C535.456 408.53 534.459 407.741 534.522 406.816C534.672 404.578 535.764 402.562 537.683 401.703C539.797 390.127 540.875 378.355 540.813 366.488C540.808 365.568 542.138 365.601 542.216 366.488C543.15 377.039 543.226 387.693 542.44 398.285C547.432 393.683 552.695 389.308 557.501 384.584C564.733 377.476 571.729 370.178 578.478 362.609C585.363 354.887 591.872 346.881 597.823 338.41L600.938 333.968C605.726 327.158 610.645 320.419 616.669 314.646ZM607.28 238.62C648.349 236.051 692.21 241.109 729.1 260.428C749.36 271.037 765.02 287.072 776.209 307.027C782.89 318.943 787.959 332.138 789.879 345.704C791.85 359.643 789.535 372.072 780.654 383.152C777.127 387.552 771.185 382.637 772.054 378.135C777.371 350.591 768.747 323.377 753.453 300.574C731.258 267.484 692.499 252.785 654.762 246.228C636.221 243.008 617.416 241.662 598.606 242.317C584.265 242.817 569.554 244.156 555.945 248.991C555.371 249.195 555.143 248.299 555.696 248.088C571.929 241.875 590.051 239.698 607.28 238.62ZM668.189 300.903C670.303 299.56 672.89 300.938 673.616 303.117C676.179 310.799 670.808 320.948 667.216 327.596C663.15 335.119 657.923 342.153 652.524 348.76C641.724 361.974 627.529 373 611.952 379.93C610.998 380.355 609.886 379.201 610.761 378.385C622.814 367.138 633.742 355.08 643.202 341.553C647.85 334.906 651.727 327.894 655.429 320.691C658.742 314.245 661.857 304.925 668.189 300.903ZM737.26 309.953C738.612 305.225 746.307 306.03 745.989 311.137C745.166 324.33 738.955 337.573 732.206 348.754C725.257 360.267 716.456 370.527 706.369 379.388C705.872 379.825 705.191 379.152 705.641 378.659C714.345 369.111 721.375 358.235 726.581 346.399C731.781 334.58 733.744 322.248 737.26 309.953ZM699.012 307.817C700.484 303.706 707.529 304.011 707.097 308.914C705.909 322.392 698.016 336.517 690.706 347.649C682.948 359.46 673.046 369.865 661.979 378.604C661.565 378.931 660.979 378.389 661.384 378.007C671.323 368.622 679.384 357.781 685.766 345.689C689.023 339.519 691.755 333.094 693.913 326.457C695.909 320.317 696.846 313.869 699.012 307.817Z" fill="#534247"/>
<path fill-rule="evenodd" clip-rule="evenodd" d="M677.587 606.927C670.864 604.184 664.866 599.61 660.481 593.766C658.957 591.735 658.561 589.59 658.881 587.628C659.241 585.421 660.546 583.422 662.326 582.081C664.112 580.735 666.345 580.072 668.504 580.41C670.381 580.704 672.248 581.731 673.727 583.862L674.035 584.288C676.642 587.815 680.04 590.709 683.91 592.574C687.641 594.372 691.814 595.211 696.132 594.723C704.356 593.794 710.024 589.346 716.049 583.307C716.796 582.544 717.543 581.758 718.294 580.959C718.768 580.234 719.426 579.769 720.157 579.524C720.968 579.253 721.886 579.269 722.726 579.562C723.537 579.845 724.262 580.381 724.748 581.095C725.209 581.773 725.471 582.61 725.386 583.574C724.835 589.833 721.562 595.419 716.914 599.806C711.752 604.677 704.909 608.047 698.466 609.229C691.368 610.531 684.136 609.598 677.587 606.927ZM701.814 510.367C709.366 514.957 720.872 525.66 712.748 537.04C703.186 547.073 689.419 535.569 682.634 530.366C676.343 526.334 669.275 536.705 675.112 541.413C724.136 577.708 744.031 511.567 705.634 504.97C701.406 504.243 699.836 508.947 701.814 510.367ZM613.963 468.146C614.798 457.79 630.57 455.438 632.139 465.686C633.544 474.866 631.89 483.299 627.755 491.564C623.804 499.46 613.874 495.777 613.123 488.587C612.116 478.949 613.444 474.589 613.963 468.146ZM734.027 463.562C736.226 460.682 739.401 458.716 743.205 459.826C755.09 463.3 751.587 480.173 747.413 488.386C745.145 492.846 737.814 493.977 734.501 490.049C729.101 483.646 726.515 470.857 733.38 464.549C733.566 464.223 733.773 463.894 734.027 463.562ZM627.588 422.831L629.465 422.502C635.273 421.497 642.494 420.532 646.603 425.202C648.782 427.678 649.532 432.28 646.603 434.65C641.451 438.82 635.755 437.204 629.581 437.557C624.493 437.849 619.603 438.691 614.702 440.092C603.95 443.165 595.189 448.775 586.006 454.935C584.801 455.743 583.571 454.202 584.146 453.075C589.447 442.692 599.72 434.163 610.01 428.964C615.502 426.189 621.512 423.887 627.588 422.831ZM723.193 418.179L724.63 418.473C740.267 421.742 760.583 428.271 767.988 443.631C768.271 445.803 767.972 446.268 767.73 446.572L767.649 446.674C767.45 446.933 767.29 447.291 766.349 447.587C766.088 447.525 765.824 447.459 765.557 447.389C762.163 446.499 759.477 445.274 756.877 444.002L754.058 442.613C750.788 441.01 747.488 439.465 743.992 438.324C736.53 435.89 728.854 434.175 721.06 433.26C719.37 433.062 717.744 432.491 716.46 431.514C715.242 430.587 714.311 429.302 713.887 427.596C713.337 425.386 713.495 423.714 714.681 421.721C715.572 420.224 716.847 419.187 718.311 418.591C719.804 417.984 721.504 417.841 723.193 418.179Z" fill="black"/>
<path fill-rule="evenodd" clip-rule="evenodd" d="M756.809 436C780.281 436 793.676 441.048 798.584 441.441L798.732 441.451C800.773 441.582 802.605 441.753 804.526 442.496C811.592 445.217 812.743 452.627 808.619 457.298C808.33 466.961 809.601 478.253 807.42 487.947C804.73 528.818 785.509 535.716 774.584 538.233C769.098 539.497 762.597 540 756.771 538.666C746.831 538.295 737.004 535.184 728.597 529.765C716.888 522.213 708.191 510.606 705.368 496.83C704.031 490.264 703.406 483.429 704.134 476.754L704.242 475.835C700.436 474.014 696.025 473.67 691.479 473.509C689.307 473.432 687.166 473.363 685.087 473.455C683.054 473.682 681.045 473.984 679.031 474.396C676.831 475.059 674.753 476.155 672.835 477.89L672.703 480.423C672.343 486.749 671.512 493.094 670.231 499.3C668.339 508.458 665.297 517.204 658.822 523.699C656.63 526.973 653.918 529.895 650.626 532.425C638.665 541.634 622.415 545.015 607.502 543.742C577.225 541.158 559.724 517.123 555.691 506.85L555.45 506.228C552.537 498.59 550.215 488.681 541.009 487.04L539.051 486.688C534.85 485.899 530.973 484.802 528.51 480.703C527.43 478.913 526.875 476.912 526.739 474.872C525.301 474.982 523.866 475.088 522.436 475.19C511.028 477.603 442.6 479.648 437.138 479.648C437.138 479.648 426.639 484.067 422.207 480.643C419.134 478.263 418.123 475.09 419.815 471.495C422.367 466.086 434.14 462.833 439.368 461.803C439.368 461.803 523.733 462.503 529.805 461.352C533.562 457.478 540.282 458.008 545.898 457.396C550.546 454.081 557.049 451.861 562.186 450.375C563.233 449.978 564.27 449.595 565.278 449.233C574.695 445.88 584.484 444.103 594.422 443.149C604.67 442.175 614.948 442.616 625.136 444.012C629.429 444.594 633.682 445.347 637.906 446.332C645.468 447.329 652.986 448.971 660.551 450.919L662.065 451.313C670.031 453.401 678.217 455.208 686.464 453.792C693.177 452.647 699.634 450.063 705.824 447.269L706.629 446.904C720.24 440.689 741.496 436 756.809 436ZM637.087 458.722C632.065 457.618 629.92 465.361 634.958 466.468C638.526 467.253 641.549 469.052 643.592 472.099L643.807 472.431C646.548 476.793 653.48 472.766 650.72 468.376C647.614 463.436 642.788 459.976 637.087 458.722ZM784.173 453.922C782.403 452.675 779.724 453.6 778.696 455.363C777.565 457.303 778.306 459.464 779.964 460.733L780.133 460.857C781.654 461.929 783.135 463.851 783.321 465.819L783.338 466.066C783.537 471.218 791.544 471.244 791.344 466.066C791.149 461 788.215 456.767 784.173 453.922Z" fill="black"/>
<defs>
<linearGradient id="paint0_linear_102_19091" x1="792" y1="389" x2="595.49" y2="692.386" gradientUnits="userSpaceOnUse">
<stop stop-color="#E7B6B6"/>
<stop offset="0.195" stop-color="#D8D6C6"/>
<stop offset="1" stop-color="#E7DFB6"/>
</linearGradient>
</defs>
</svg>
