<svg width="1224" height="1533" viewBox="0 0 1224 1533" fill="none" xmlns="http://www.w3.org/2000/svg">
<path fill-rule="evenodd" clip-rule="evenodd" d="M1163.74 922.357C1173.98 917.01 1183.99 911.201 1193.83 905.155C1200.76 901.008 1194.62 890.562 1187.51 894.336C1183.88 896.267 1180.26 898.217 1176.62 900.135C1179.48 897.672 1182.14 894.99 1184.51 892.067L1184.35 891.904C1193.51 883.693 1181.74 868.201 1171.32 874.946C1162.13 881.608 1152.85 888.406 1142.3 892.793C1120.45 902.059 1096.35 903.592 1072.89 903.86C1064.31 903.215 1056.11 904.702 1047.79 906.359C1051.05 893.261 1059.22 883.37 1063.56 870.684C1066.75 857.876 1048.27 849.151 1041.71 861.463C1040.11 864.486 1038.57 867.544 1037.07 870.618C1022.91 883.499 999.264 882.364 984.981 896.195C976.845 903.416 972.864 913.213 971.291 923.047C970.223 929.724 971.883 936.418 967.846 942.332C948.327 969.94 917.485 1013.58 901.822 1043.96C890.732 971.763 861.121 882.463 830.53 816.446C820.414 795.333 808.841 774.703 793.649 756.807C795.371 750.839 789.293 740.245 785.428 743.506C773.531 728.973 752.501 725.21 735.591 717.985C712.764 708.224 693.825 687.936 684.515 664.876C672.553 620.964 643.106 615.386 602.267 617.327C563.183 617.278 534.266 633.995 525.738 673.781C508.413 703.978 467.507 698.984 438.078 706.979C416.51 711.906 395.579 719.523 375.687 729.194C353.558 708.203 274.303 796.298 267.099 818.97C271.34 819.792 275.555 820.781 279.732 821.987C283.452 823.063 281.89 828.682 278.138 827.782C273.469 826.661 268.77 825.889 264.049 825.353C263.905 825.804 263.779 826.253 263.685 826.697C263.155 826.661 262.626 826.616 262.096 826.58C263.271 827.191 264.402 827.901 265.504 828.817C268.168 831.029 264.7 835.298 261.869 833.535C259.202 831.54 255.709 831.855 252.51 831.185C252.32 837.763 228.847 830.404 225.201 828.224C208.996 826.197 192.325 828.372 177.197 820.557C157.068 816.318 136.788 811.63 116.885 806.232C111.616 808.286 106.664 815.636 110.849 821.03C113.203 823.484 110.177 827.492 107.213 825.747C97.2718 819.896 89.5838 810.762 83.0658 800.922C79.9978 797.827 74.5518 798.493 70.4298 797.208C69.8788 798.198 69.5538 799.302 69.5588 800.434C52.0738 803.312 64.5468 822.409 73.3368 828.359C68.6738 831.395 68.4968 837.341 68.9048 842.306C67.9168 844.074 67.5868 846.266 68.4468 848.248C71.7348 855.825 78.8458 862.206 84.2528 868.345C90.2228 875.124 95.5458 881.941 102.81 887.437C130.498 908.542 163.911 920.342 198.189 924.957C210.36 926.826 227.867 929.687 235.403 939.979C233.554 952.193 230.159 963.907 227.079 975.817C222.772 991.627 223.065 1008.18 223.008 1024.3C222.406 1023.81 221.25 1023.91 221.078 1024.83C220.076 1031.52 219.331 1038.35 215.27 1043.96C211.71 1054.4 209.341 1065.54 208.01 1076.5C202.678 1128.5 201.405 1182.03 213.427 1233.21C218.066 1252.2 225.611 1270.25 235.891 1286.86C238.956 1291.82 243.884 1293.27 248.309 1292.3C263.119 1299.99 281.776 1302.46 297.739 1300.5C352.16 1285.1 333.198 1322.2 409.501 1310.84C541.208 1294.06 674.312 1327.03 805.739 1307.67C808.976 1332.67 851.35 1325.5 866.069 1314.93C910.203 1282.12 932.117 1178.25 954.266 1125.55C969.491 1084.02 994.985 1010.45 1028.37 982.584C1038.38 974.754 1050.48 970.632 1062.59 967.304C1107.78 955.66 1153.14 944.648 1198.42 933.327C1206.09 931.437 1204.71 918.342 1196.5 919.182C1185.61 920.297 1174.67 921.306 1163.74 922.357Z" fill="#B0824C"/>
<path fill-rule="evenodd" clip-rule="evenodd" d="M157.795 914.568C154.735 914.189 151.735 913.099 148.755 912.239C144.205 910.909 139.745 909.359 135.355 907.589C126.295 903.96 117.505 899.669 109.265 894.419C95.9548 885.929 84.1948 875.049 75.3248 861.949L74.7159 861.035C69.652 853.322 60.3112 836.195 70.7848 830.339C64.0345 824.699 57.6545 814.569 58.0145 806.749C58.5245 795.689 72.0845 795.84 79.0945 800.529C83.6845 803.599 87.1245 807.899 90.5745 812.13C94.3945 816.829 98.4745 821.309 102.715 825.619C103.84 826.759 104.976 827.876 106.132 828.975L107.294 830.069C107.115 829.639 106.955 829.199 106.815 828.748C104.475 821.459 107.265 811.969 114.555 808.629C119.016 806.584 123.649 807.832 127.972 809.568L128.635 809.839C134.455 812.248 140.345 814.379 146.405 816.089C171.105 823.059 196.885 824.219 222.195 827.699C231.945 829.049 241.875 830.748 251.575 833.248C255.274 817.538 264.344 802.479 274.184 790.089C321.304 730.818 399.014 711.229 470.104 698.549C476.584 697.399 481.955 705.979 485.725 703.949C492.875 700.109 499.165 694.669 504.685 688.759C516.455 676.149 524.805 661.319 534.615 647.269C539.465 640.329 550.625 646.539 546.125 653.989L543.92 657.63C534.843 672.544 524.792 687.913 511.775 699.479C504.855 705.619 497.175 710.469 488.395 713.498C481.745 715.789 472.415 717.719 465.135 715.498L464.261 714.225C464.55 714.651 464.841 715.075 465.135 715.499C484.134 743.029 507.974 766.329 533.094 788.319C558.45 810.502 585.803 830.368 613.321 849.791L615.614 851.409C660.444 818.71 698.314 776.059 724.884 727.33C719.315 726.659 713.805 723.09 709.045 720.429C703.315 717.21 697.925 713.369 693.725 708.249C684.575 697.099 685.765 682.729 684.115 669.199C684.015 668.359 685.125 668.149 685.635 668.569C690.595 672.689 692.335 679.439 694.405 685.269C696.685 691.679 699.265 696.96 704.495 701.469C709.365 705.67 715.305 708.759 721.075 711.509C724.05 712.92 738.822 716.546 740.504 719.549C766.025 713.559 790.885 723.909 809.795 741.369C828.065 758.239 841.475 780.169 853.315 801.819C865.945 824.919 876.295 848.998 885.215 873.748C894.255 898.869 901.185 924.539 904.995 950.979C908.211 973.27 910.183 995.912 911.459 1018.45L911.615 1021.27C930.494 991.639 949.844 962.319 969.594 933.259C965.104 921.269 970.074 909.029 978.484 899.769C987.804 889.519 1000.69 884.759 1013.02 879.219L1014.65 878.486C1020.59 875.775 1026.51 872.79 1031.64 868.729C1036.58 864.809 1040.21 859.409 1045.41 855.799C1052.97 850.539 1066.69 851.659 1067.04 863.149C1067.22 869.46 1064.51 876.379 1062.03 882.049C1059.22 888.46 1055.43 894.269 1050.93 899.609C1050.73 899.858 1050.5 900.054 1050.27 900.21L1050.09 900.319C1056.31 901.349 1062.58 902.179 1068.97 902.469C1081.86 903.059 1094.89 902.109 1107.51 899.389C1120.43 896.609 1132.95 892.09 1144.57 885.789C1154.5 880.409 1163.7 873.449 1174.98 871.809C1176.02 871.649 1177.07 871.549 1178.15 871.489C1179.95 871.389 1181.75 873.509 1181.04 875.288C1180.65 876.269 1180.24 877.239 1179.79 878.219C1175.89 886.809 1169.91 895.142 1162.45 901.466L1161.87 901.949C1164.5 901.039 1167.09 900.019 1169.64 898.869C1184.63 892.119 1198.23 881.919 1214.3 877.819C1215.06 877.619 1215.83 877.439 1216.6 877.269C1221.57 876.199 1224.19 881.599 1221.27 885.299C1220.8 885.899 1220.33 886.489 1219.84 887.079C1212.67 895.979 1204.76 904.239 1196.04 911.659C1193.05 914.199 1189.97 916.659 1186.83 919.01C1185.51 920.006 1184.18 920.98 1182.84 921.939L1182.17 922.409C1183.74 921.3 1185.29 920.17 1186.83 919.01C1196.67 916.029 1206.37 912.499 1215.86 908.59C1219.63 907.039 1222.56 910.859 1222.96 913.999C1224.3 924.52 1212.62 932.13 1205.02 937.189C1197.4 942.27 1189.01 946.13 1180.42 949.229C1163.91 955.197 1146.56 957.908 1129.24 960.337L1120.83 961.508C1087.53 966.164 1052.76 971.731 1028.86 997.64C1015.47 1012.16 1006.41 1030.2 998.124 1047.95C989.844 1065.68 982.574 1083.88 975.674 1102.18C968.524 1121.12 962.294 1140.41 955.674 1159.54C949.594 1177.1 942.332 1194.44 935.139 1211.61L934.004 1214.32C918.734 1250.8 900.494 1285.16 875.074 1315.62C870.884 1320.65 864.114 1313.51 867.984 1308.53C894.574 1274.25 913.074 1233.8 928.344 1193.45C935.294 1175.09 941.114 1156.29 947.794 1137.83L951.769 1126.86C957.077 1112.24 962.43 1097.64 968.014 1083.14C975.084 1064.79 982.854 1046.66 991.744 1029.12L992.688 1027.27C1001.39 1010.35 1011.73 993.674 1025.96 980.869C1051.58 957.81 1085.67 952.278 1118.63 947.896L1129 946.53C1142.93 944.679 1156.9 942.634 1170.45 938.909C1178.27 936.77 1185.91 934.029 1193.09 930.249C1195.95 928.749 1198.74 927.1 1201.44 925.3C1193.74 927.56 1185.93 929.409 1177.98 930.859C1174.09 931.569 1170.24 932.1 1166.4 932.47C1156.51 933.448 1146.7 933.408 1136.57 932.879C1135.71 932.828 1135.43 931.479 1136.35 931.309C1143.41 930.055 1150.47 928.486 1157.51 926.784L1159.61 926.269C1159.65 925.1 1160.11 923.859 1161.07 922.68C1164.57 918.42 1171.22 916.239 1175.83 913.229C1180.66 910.079 1185.34 906.68 1189.8 903.039C1193.88 899.71 1197.8 896.189 1201.57 892.51L1202.7 891.399C1202.33 891.77 1201.95 892.141 1201.57 892.509C1191.39 897.21 1181.74 903.239 1171.11 906.96C1162.66 909.929 1153.8 911.929 1144.86 912.639L1144.31 912.683L1143.75 912.719C1134.42 913.389 1125.03 913.119 1115.84 915.139C1114.81 915.369 1114.49 913.989 1115.41 913.599C1123.44 910.259 1131.79 908.969 1140.23 907.409C1140.41 906.749 1140.87 906.159 1141.67 905.779L1143.83 904.748C1150.26 901.659 1156.26 898.542 1161.6 893.529C1166.32 889.099 1170.25 883.92 1173.2 878.179C1161.39 880.769 1151.02 889.719 1140.28 894.749C1128.58 900.239 1116.2 904.179 1103.48 906.42L1102.04 906.668C1078.26 910.633 1049.68 910.128 1028.38 897.769C1027.7 897.369 1028.19 896.46 1028.89 896.569C1034.93 897.559 1040.91 898.729 1046.89 899.769C1045.72 898.699 1045.2 896.779 1046.55 895.239C1051.93 889.084 1056.17 882.049 1058.89 874.351L1059.41 872.846C1060.66 869.275 1062.77 863.73 1060.61 860.509C1058.55 857.439 1053.7 857.859 1050.8 859.159C1044.77 861.879 1040.76 868.67 1035.68 872.769C1030.14 877.249 1023.84 880.569 1017.39 883.539L1016.03 884.158C1004.88 889.176 992.956 893.4 984.184 902.259C979.464 907.019 975.404 912.969 974.044 919.639C973.424 922.699 973.424 925.849 974.244 928.879C974.894 931.249 976.254 932.71 975.474 935.119C974.454 938.229 970.844 941.949 968.984 944.719C966.824 947.92 964.674 951.129 962.524 954.339C958.234 960.759 953.964 967.199 949.694 973.629C941.154 986.509 932.704 999.449 924.324 1012.43C921.598 1016.66 918.88 1020.89 916.171 1025.12L912.115 1031.48L909.971 1034.83L906.315 1040.58C906.445 1041.11 906.435 1041.67 906.265 1042.16C905.641 1043.93 904.474 1045.15 903.023 1046.03L902.764 1046.18C881.424 1079.91 860.424 1113.86 839.214 1147.67C838.084 1157.99 837.024 1168.32 836.104 1178.65C834.014 1202.03 832.584 1225.47 832.124 1248.94C831.904 1260.3 832.814 1271.73 833.304 1283.08C833.544 1288.5 833.873 1293.91 834.302 1299.32L834.617 1303.15C835.04 1308.42 835.279 1313.65 833.384 1318.67C831.704 1323.08 826.584 1324.07 823.554 1320.71C784.025 1319.12 744.465 1317.91 704.905 1317.16C634.095 1315.8 563.255 1316.01 492.435 1317.38C456.865 1318.07 421.285 1319.04 385.725 1320.24C368.205 1320.82 350.675 1321.64 333.145 1321.88C323.7 1322.01 308.835 1318.57 308.073 1307.94L308.055 1307.62C306.875 1307.94 305.655 1308.2 304.405 1308.39C303.848 1308.47 303.314 1308.45 302.82 1308.33L302.575 1308.27C288.496 1312.56 270.687 1306.44 257.309 1302.87L256.205 1302.58C243.435 1299.25 233.175 1294.49 224.805 1283.91C210.155 1265.38 205.155 1240.5 202.555 1217.57C200.115 1195.99 199.975 1174.01 202.945 1152.47C201.195 1134.92 202.905 1116.81 204.895 1099.36C205.875 1090.73 207.025 1082.11 208.405 1073.53C209.175 1068.74 210.185 1064 211.215 1059.27C211.626 1057.38 211.968 1055.34 212.49 1053.38L212.725 1052.54C211.125 1052.75 209.375 1052.4 207.685 1051.47C203.665 1049.26 202.495 1044.79 202.425 1040.51C202.205 1027.61 203.745 1014.34 205.105 1001.52C206.475 988.72 208.355 975.869 210.815 963.229L211.451 959.97C213.315 950.514 215.448 940.753 219.205 931.869C205.095 929.469 191.025 926.919 177.335 922.578C170.655 920.448 164.075 917.799 157.795 914.568ZM894.254 1048.82C894.035 1048.87 893.825 1048.93 893.615 1048.99C887.975 1050.57 882.275 1051.91 876.595 1053.35C866.775 1055.82 857.175 1058.58 848.045 1062.87C846.132 1087.01 843.297 1111.07 840.601 1135.14L840.064 1139.96C844.204 1132.28 848.444 1124.66 852.874 1117.13C866.364 1094.18 880.164 1071.41 894.254 1048.82ZM216.165 1051.21C216.195 1054.08 215.595 1057.06 215.275 1059.82C214.755 1064.3 214.335 1068.8 213.805 1073.28C212.725 1082.28 211.805 1091.29 211.135 1100.33C210.705 1106.1 210.425 1111.89 210.175 1117.68C215.845 1096.49 223.355 1075.76 230.495 1055C229.301 1054.87 228.081 1054.58 226.823 1054.25L224.704 1053.68C223.455 1053.35 219.402 1052.36 216.165 1051.21ZM912.115 1031.48L912.155 1032.43C912.305 1035.8 910.285 1037.7 907.835 1038.19C909.255 1035.95 910.685 1033.71 912.115 1031.48ZM263.315 871.76C269.285 872.289 275.135 873.56 280.715 875.76L281.253 875.97C285.38 877.563 291.415 879.564 292.765 883.97C293.145 885.22 292.125 886.249 290.955 886.35C286.475 886.71 281.195 881.909 277.045 880.289C272.425 878.489 267.585 877.149 262.685 876.439C251.675 874.829 240.195 876.05 229.835 880.06C229.225 880.3 228.845 879.329 229.395 879.039C239.835 873.359 251.445 870.71 263.315 871.76ZM136.805 900.359C136.114 899.749 135.424 899.109 134.744 898.47C129.383 893.398 124.635 887.478 121.12 880.974L120.195 879.213C117.332 873.67 113.816 865.773 120.544 861.779C124.564 859.39 129.404 859.989 133.884 861.439C134.174 861.529 134.464 861.63 134.754 861.729C136.754 862.43 138.684 863.269 140.404 864.069C147.874 867.499 154.464 872.489 161.364 876.89C168.841 881.66 176.223 884.71 184.852 886.495L185.664 886.659C193.764 888.26 202.544 889.289 208.194 895.949C209.614 897.63 208.314 900.779 205.864 899.949C190.244 894.68 173.714 893.519 159.374 884.869C153.434 881.289 147.814 877.18 141.744 873.789C138.524 871.987 135.2 870.412 131.657 869.332L129.722 868.762C128.588 868.431 127.234 868.104 126.324 868.43C124.592 869.03 125.145 869.956 125.681 871.575L125.734 871.739C129.944 884.76 141.944 895.659 153.064 902.869C155.614 904.529 158.224 906.05 160.884 907.46C178.89 917.057 199.037 921.523 218.824 926.826C218.824 926.826 230.265 930.019 234.055 931.219C238.275 930.868 243.085 932.359 246.265 934.139C249.355 935.868 251.845 938.189 253.725 940.919C253.725 940.919 255.535 942.429 255.865 944.769C256.815 946.939 257.455 949.278 257.775 951.719C257.955 953.149 257.595 954.248 256.915 955.028C258.96 986.421 250.481 1017.64 240.921 1047.47L239.974 1050.41L239.365 1052.28C229.055 1083.91 217.225 1115.31 211.945 1148.29C208.415 1170.32 208.525 1193.12 211.115 1215.25L211.297 1216.77C213.849 1237.7 218.759 1261.17 232.065 1278.01C238.851 1286.6 246.892 1290.42 257.172 1293.19L257.735 1293.34C267.035 1295.79 276.635 1299.26 286.225 1300.31C295.125 1301.28 302.585 1297.97 310.595 1294.87L310.605 1294.86C327.475 1279.93 335.135 1258.19 340.795 1236.25C355.465 1179.47 353.645 1120.53 345.325 1062.92C340.985 1032.82 335.085 1002.98 329.205 973.149C326.265 958.239 323.095 943.359 320.465 928.399L318.903 919.595C318.041 914.703 317.207 909.808 316.495 904.889C315.535 898.279 315.245 891.779 314.915 885.129C306.835 871.739 295.105 860.709 281.515 852.799C271.785 847.129 261.485 843.199 250.855 840.349C220.465 832.159 187.335 832.739 156.755 826.439C146.482 824.325 136.73 821.187 126.984 817.426L125.655 816.909C121.185 815.169 116.625 814.199 114.405 819.469C112.825 823.219 113.765 827.119 116.135 830.269C121.945 837.989 133.625 841.569 142.415 844.349C147.705 846.029 153.105 847.359 158.565 848.349C164.025 849.339 169.505 849.589 174.745 851.519C176.765 852.259 177.165 855.469 174.745 856.038C168.105 857.589 161.425 856.259 154.825 854.969C147.575 853.538 140.435 851.509 133.495 848.939C132.215 848.467 130.89 847.969 129.541 847.441L128.525 847.039C129.575 847.8 130.625 848.55 131.685 849.3C131.965 849.499 131.795 850.029 131.425 849.899C115.107 843.811 100.259 832.827 88.7569 819.831L88.1845 819.18C84.1345 814.539 74.9045 800.499 67.1245 804.409C59.8189 808.076 72.2724 822.212 77.0052 827.992L77.5547 828.669C82.9347 828.809 88.1447 832.158 92.5047 834.858C100.075 839.549 107.985 843.589 116.045 847.368C132.065 854.898 149.075 860.209 164.925 868.118C165.135 868.229 164.975 868.498 164.775 868.469C154.685 866.858 144.705 864.288 134.955 861.099L134.52 860.963L134.085 860.818C127.995 858.818 121.985 856.559 116.075 854.148C109.505 851.469 103.085 848.459 96.8547 845.049C91.2147 841.969 84.9547 836.419 78.4147 835.599C77.7147 835.509 77.0947 835.498 76.5547 835.549C69.0448 836.179 75.2548 848.619 77.3548 852.339C80.7848 858.449 84.9248 864.089 89.6748 869.239C99.3048 879.699 110.975 887.989 123.605 894.439C127.915 896.639 132.325 898.579 136.805 900.359Z" fill="#210263"/>
<path fill-rule="evenodd" clip-rule="evenodd" d="M802.719 604.844C798.763 598.982 789.239 556.442 783.154 549.899C783.613 524.769 790.546 437.762 770.745 398.65C774.91 394.429 785.978 358.074 783.154 344.331C792.483 315.549 732.556 269.836 709.75 257.483C603.753 200.524 450.155 263.397 401.95 368.912C372.983 432.457 372.449 503.603 369.174 571.978C368.786 586.614 367.444 601.364 367.459 615.982C369.554 628.827 379.717 641.908 372.013 652.589C363.502 658.488 346.3 672.86 353.959 681.01C358.447 684.755 365.617 682.582 370.488 686.183C372.968 687.573 374.514 690.62 377.414 691.083C403.904 690.075 422.597 689.989 449.169 688.913C460.801 688.531 478.514 693.462 491.866 683.646C538.506 709.642 518.997 671.927 528.428 645.075C557.147 654.806 614.356 685.837 644.969 686.839C669.845 689.92 693.107 675.402 717.563 678.707C747.946 690.018 783.553 692.533 811.383 673.395C818.328 668.383 826.055 674.189 834.809 668.776C851.822 660.623 811.305 613.889 802.719 604.844Z" fill="#B0824C"/>
<path fill-rule="evenodd" clip-rule="evenodd" d="M401.95 368.912C450.155 263.397 603.753 200.524 709.75 257.483C732.556 269.836 792.483 315.549 783.154 344.331C785.289 354.721 779.485 378.032 774.725 390.615C752.624 406.983 688.089 403.586 581.124 380.423L577.018 379.529L540.492 401.218L525.488 457.717C515.415 467.705 507.275 479.899 501.068 494.299C501.068 494.299 485.967 477.678 463.579 479.799C449.023 486.008 438.304 492.774 431.423 500.096C424.679 507.271 424.544 523.358 431.018 548.357L431.423 549.899L463.579 559.932H478.502L519.501 610.143L525.487 661.795C524.14 684.407 529.232 704.473 491.866 683.646C478.514 693.462 460.801 688.531 449.169 688.913C422.597 689.989 403.904 690.075 377.414 691.083C374.514 690.62 372.968 687.573 370.488 686.183C365.617 682.582 358.447 684.755 353.959 681.01C346.3 672.86 363.502 658.488 372.013 652.589C379.717 641.908 369.554 628.827 367.459 615.982C367.444 601.364 368.786 586.614 369.174 571.978L369.462 565.817C372.506 499.341 373.852 430.551 401.95 368.912ZM774.217 573.495L783.555 538.055L783.348 543.385C783.257 545.863 783.188 548.049 783.154 549.899C789.239 556.442 798.763 598.982 802.719 604.844L803.576 605.758C813.684 616.658 851.311 660.867 834.809 668.777C826.055 674.189 818.328 668.383 811.383 673.395C783.553 692.533 747.946 690.018 717.563 678.707C714.001 678.226 710.465 678.122 706.945 678.288L705.494 673.736L738.742 645.075L774.217 573.495Z" fill="url(#paint0_linear_341_19033)"/>
<path fill-rule="evenodd" clip-rule="evenodd" d="M767.985 395.313C767.608 393.142 770.593 391.523 771.747 393.723C780.135 409.704 783.495 428.211 786.465 445.863C789.466 463.701 791.449 481.613 791.559 499.721C791.642 513.65 790.38 527.74 788.01 541.679L788.298 542.671V542.671C788.831 544.493 789.368 546.314 789.911 548.133L790.729 550.861C792.312 556.099 793.811 561.361 795.436 566.586C798.83 577.491 802.404 588.427 806.78 598.98C811.051 609.278 816.245 619.209 822.419 628.491C828.37 637.439 837.813 645.005 842.005 654.943C843.466 658.406 841.305 662.984 837.27 662.431C837.007 662.748 836.607 662.978 836.064 663.026C832.931 663.3 829.994 663.039 826.868 662.745C825.123 662.581 825.126 660.19 826.868 660.026C828.196 659.901 829.489 659.791 830.782 659.716C821.841 654.407 815.462 644.04 810.362 635.553C803.808 624.649 798.857 612.735 794.822 600.687C790.677 588.317 787.743 575.689 785.385 562.867C785.114 561.391 784.857 559.914 784.609 558.435C781.63 571.128 777.793 583.589 773.245 595.565L772.608 597.232C762.125 624.466 747.927 651.961 724.312 669.961C723.24 670.777 722.145 671.552 721.042 672.31L722.385 673.082C723.722 673.847 725.039 674.581 726.327 675.183C731.099 677.414 736.279 679.115 741.404 680.32C751.987 682.811 763.102 682.097 773.899 682.444C777.44 682.558 779.455 687.879 775.835 689.607C763.909 695.298 751.028 694.09 738.718 690.086C732.627 688.103 726.911 685.328 721.623 681.705C719.437 680.208 716.898 678.36 714.755 676.224C691.138 689.466 661.784 690.948 635.498 686.212C621.837 683.75 608.6 679.255 596.954 671.566C585.752 664.172 577.767 654.81 572.066 642.681C571.56 641.606 572.966 640.267 573.829 641.318C591.736 663.113 622.553 672.207 649.664 673.937C664.129 674.861 678.927 674.093 692.834 669.756C706.027 665.64 717.347 658.096 726.799 648.063C745.958 627.726 757.438 600.06 765.682 573.731C774.651 545.088 778.922 514.952 779.803 484.976C780.249 469.789 779.688 454.474 777.308 439.455C774.947 424.56 770.565 410.145 767.985 395.313ZM499.502 266.282C500.77 265.636 501.664 267.317 500.588 268.144C478.258 285.305 458.26 307.065 442.075 330.096C412.225 372.573 393.081 421.727 384.266 472.803C379.061 502.966 377.702 533.586 378.222 564.151C378.428 576.292 379.119 588.397 379.889 600.505L380.758 613.927C381.162 620.18 381.499 626.38 381.238 632.664L381.167 634.116C380.754 641.428 381.472 648.799 379.642 655.932C378.703 659.59 373.554 660.166 371.69 656.973C371.325 656.348 370.984 655.703 370.653 655.052C366.284 662.192 360.626 668.575 354.348 674.277C357.349 673.637 360.378 673.229 363.489 673.602C368.419 674.194 372.842 676.102 375.971 679.446C379.078 678.043 382.272 677.077 385.945 677.057C388.651 677.043 390.679 680.248 389.135 682.629C386.056 687.381 381.759 690.045 376.876 692.678C373.416 694.544 369.286 692.948 368.009 689.258L367.935 689.034C366.497 684.366 358.85 685.12 355.241 685.842L354.179 686.059C347.462 687.46 340.904 689.252 334.061 687.404C329.647 686.211 328.494 679.553 332.749 677.343C346.19 670.363 357.474 660.987 369.071 651.573C366.51 645.282 365.056 638.253 363.38 631.856C361.02 622.852 360.33 613.164 359.478 603.915C357.859 586.33 357.241 568.554 357.415 550.9C358.002 491.272 368.179 431.459 394.173 377.464C405.561 353.811 420.521 331.924 438.205 312.551C455.784 293.292 476.315 278.084 499.502 266.282ZM478.691 558.296C478.001 557.338 479.348 556.071 480.292 556.692C500.729 570.145 514.912 590.573 524.064 613.014C533.123 635.231 538.685 662.444 529.751 685.612C528.329 689.302 521.518 690.672 520.821 685.612C517.707 663.016 517.223 640.388 510.374 618.42C503.584 596.643 491.967 576.701 478.691 558.296ZM462.844 631.652C462.956 631.253 463.607 631.322 463.579 631.752C463.067 639.72 462.719 647.785 461.72 655.709C461.234 659.56 460.591 663.386 460.044 667.228C459.483 671.168 459.568 675.146 457.282 678.511C454.252 682.972 446.203 681.717 446.474 675.578C446.66 671.343 448.602 668.625 450.421 664.908C451.588 662.525 452.605 660.062 453.586 657.587L455.043 653.875C457.939 646.514 460.71 639.277 462.844 631.652ZM426.247 610.545C426.37 609.918 427.379 610.069 427.349 610.694C426.804 621.972 425.534 633.123 423.546 644.236C422.64 649.301 421.583 654.339 420.465 659.361L419.983 661.513C418.787 666.803 418.016 673.022 415.338 677.748C412.661 682.471 406.307 679.041 407.13 674.28C408.092 668.722 411.496 663.131 413.475 657.793C415.301 652.865 416.897 647.85 418.389 642.811C421.53 632.204 424.105 621.398 426.247 610.545ZM494.399 641.855L494.637 641.611C495.567 640.598 496.954 641.273 497.398 642.342C499.216 646.723 498.306 651.889 498.176 656.54L498.152 657.554C498.055 662.265 498.123 666.678 495.991 671.028C493.402 676.309 486.582 673.029 486.054 668.331C485.477 663.204 487.897 658.185 489.46 653.383C490.453 650.331 491.176 647.157 492.686 644.387C491.395 644.61 490.105 645.057 488.925 645.38C488.396 645.523 488.196 644.745 488.701 644.565C490.653 643.872 492.856 643.352 494.399 641.855V641.855ZM766.482 657.402C765.859 656.703 766.636 655.772 767.445 656.15C777.165 660.699 786.256 663.658 796.98 664.627C801.627 665.047 801.656 672.363 796.98 671.939C785.788 670.929 774.057 665.9 766.482 657.402ZM424.53 503.709C433.087 484.42 460.158 467.309 478.31 485.247C478.651 485.582 478.304 486.313 477.81 486.108C466.519 481.419 452.697 487.383 444.882 495.913C438.682 502.679 434.957 511.367 434.218 520.524C433.478 529.689 435.665 539.255 441.739 546.344C444.925 550.063 449.228 553.583 454.291 554.03C459.403 554.481 463.664 550.873 468.497 549.893C472.14 549.155 474.891 551.446 475.248 555.045C476.035 562.988 468.144 568.319 461.303 569.614C453.945 571.006 446.435 569.485 440.094 565.489C419.616 552.583 415.198 524.748 424.53 503.709ZM616.669 314.646C620.39 311.082 626.72 314.625 625.347 319.709C622.427 330.529 616.221 339.674 609.346 348.354C602.731 356.705 595.644 364.73 588.048 372.199C580.502 379.619 572.303 386.485 563.686 392.618L561.091 394.46C554.984 398.775 548.516 403.137 541.68 406.244C540.029 420.494 536.8 434.554 531.914 448.015C527.209 460.977 521.222 473.504 513.967 485.227L512.926 486.906C506.259 497.613 498.243 509.578 486.931 515.447C486.591 515.624 486.251 515.732 485.916 515.795C488.446 517.486 490.585 519.613 491.856 522.669C493.249 526.015 490.337 529.172 487.546 530.277C481.644 532.614 475.886 528.658 470.58 524.438C470.356 524.944 470.144 525.455 469.962 525.97C468.776 529.34 468.427 532.784 465.367 535.02C463.913 536.083 462.122 535.132 461.207 533.928C458.207 529.978 461.313 524.597 463.95 521.369C464.315 520.923 464.693 520.499 465.081 520.092C463.966 519.271 462.878 518.543 461.825 517.984C455.629 514.696 446.444 514.113 442.877 521.392C442.603 521.951 441.744 521.662 441.744 521.084C441.753 512.143 450.893 507.287 458.824 506.627C464.619 506.146 470.224 508.182 475.439 510.553L476.413 511.001C478.354 511.904 480.353 512.756 482.267 513.709C481.956 512.886 481.961 511.918 482.451 510.958C488.449 499.219 498.75 489.673 506.178 478.801C513.544 468.015 519.869 456.472 524.917 444.419C529.817 432.72 533.656 420.654 536.34 408.347C535.456 408.53 534.459 407.741 534.522 406.816C534.672 404.578 535.764 402.562 537.683 401.703C539.797 390.127 540.875 378.355 540.813 366.488C540.808 365.568 542.138 365.601 542.216 366.488C543.15 377.039 543.226 387.693 542.44 398.285C547.432 393.683 552.695 389.308 557.501 384.584C564.733 377.476 571.729 370.178 578.478 362.609C585.363 354.887 591.872 346.881 597.823 338.41L600.938 333.968C605.726 327.158 610.645 320.419 616.669 314.646ZM607.28 238.62C648.349 236.051 692.21 241.109 729.1 260.428C749.36 271.037 765.02 287.072 776.209 307.027C782.89 318.943 787.959 332.138 789.879 345.704C791.85 359.643 789.535 372.072 780.654 383.152C777.127 387.552 771.185 382.637 772.054 378.135C777.371 350.591 768.747 323.377 753.453 300.574C731.258 267.484 692.499 252.785 654.762 246.228C636.221 243.008 617.416 241.662 598.606 242.317C584.265 242.817 569.554 244.156 555.945 248.991C555.371 249.195 555.143 248.299 555.696 248.088C571.929 241.875 590.051 239.698 607.28 238.62ZM668.189 300.903C670.303 299.56 672.89 300.938 673.616 303.117C676.179 310.799 670.808 320.948 667.216 327.596C663.15 335.119 657.923 342.153 652.524 348.76C641.724 361.974 627.529 373 611.952 379.93C610.998 380.355 609.886 379.201 610.761 378.385C622.814 367.138 633.742 355.08 643.202 341.553C647.85 334.906 651.727 327.894 655.429 320.691C658.742 314.245 661.857 304.925 668.189 300.903ZM737.26 309.953C738.612 305.225 746.307 306.03 745.989 311.137C745.166 324.33 738.955 337.573 732.206 348.754C725.257 360.267 716.456 370.527 706.369 379.388C705.872 379.825 705.191 379.152 705.641 378.659C714.345 369.111 721.375 358.235 726.581 346.399C731.781 334.58 733.744 322.248 737.26 309.953ZM699.012 307.817C700.484 303.706 707.529 304.011 707.097 308.914C705.909 322.392 698.016 336.517 690.706 347.649C682.948 359.46 673.046 369.865 661.979 378.604C661.565 378.931 660.979 378.389 661.384 378.007C671.323 368.622 679.384 357.781 685.766 345.689C689.023 339.519 691.755 333.094 693.913 326.457C695.909 320.317 696.846 313.869 699.012 307.817Z" fill="#534247"/>
<path fill-rule="evenodd" clip-rule="evenodd" d="M624.832 590.757C632.834 574.757 706.223 581.949 706.223 581.949L712.422 632.807C712.422 632.807 677.012 644.19 655.933 641.805C634.854 639.42 616.83 606.757 624.832 590.757Z" fill="white"/>
<path fill-rule="evenodd" clip-rule="evenodd" d="M630.003 617.471C627.469 612.047 679.934 597.256 696.178 607.364C712.422 617.471 707.343 631.256 707.343 631.256C707.343 631.256 639.021 646.84 630.003 617.471Z" fill="#FF8181"/>
<path fill-rule="evenodd" clip-rule="evenodd" d="M620.281 581.29C632.527 567.06 653.152 566.069 670.237 569.627C681.201 571.911 691.876 575.715 703.012 577.125C708.213 577.784 713.47 577.981 718.709 577.884C723.855 577.789 729.009 576.752 734.137 576.945C734.925 576.974 735.223 578.009 734.54 578.43C727.505 582.751 718.028 584.137 709.718 584.982C709.744 585.597 709.781 586.197 709.866 586.706C710.093 588.063 710.3 589.411 710.467 590.777C710.844 593.858 711.266 596.929 711.687 600.004C712.517 606.056 712.778 612.298 714.237 618.245L714.492 619.234C714.83 620.484 714.907 621.611 714.794 622.627L715.132 622.474L716.199 621.957L716.899 621.626C719.453 620.442 721.89 619.58 724.893 619.868C727.179 620.086 729.098 621.645 729.112 624.086C729.169 635.041 714.405 638.564 705.96 640.661L703.483 641.271C692.734 643.893 681.758 646.191 670.703 646.741C652.961 647.622 633.024 642.728 621.418 628.337C610.589 614.91 608.604 594.858 620.281 581.29ZM700.852 627.318C698.99 610.824 678.722 609.917 672.891 620.377C670.304 605.798 632.028 619.117 635.021 622.015C646.365 633.001 663.58 633.99 678.379 631.958C685.916 630.923 693.459 629.238 700.852 627.318ZM678.358 584.088L673.262 583.355L671.255 583.078C658.623 581.387 644.416 580.513 634.03 588.612C630.238 591.568 628.104 595.424 627.307 599.566C637.135 598.109 646.998 596.998 656.891 596.073L659.59 595.825C665.78 595.267 671.967 594.679 678.151 594.062L682.546 593.617L686.939 593.161C688.485 592.999 698.904 592.466 700.863 592.824C701.072 591.064 701.345 587.255 701.787 585.542C694.385 585.793 687.015 585.243 679.656 584.265L678.358 584.088ZM701.814 510.367C709.366 514.957 720.872 525.66 712.748 537.04C703.186 547.073 689.419 535.569 682.634 530.366C676.343 526.334 669.275 536.705 675.112 541.413C724.136 577.708 744.031 511.567 705.634 504.97C701.406 504.243 699.836 508.947 701.814 510.367ZM715.328 529.704L715.691 529.507L715.814 529.432C716.026 529.295 715.891 529.31 715.408 529.477L715.046 529.607V529.863C715.139 529.806 715.238 529.763 715.328 529.704ZM618.617 488.924L618.616 488.699C618.63 482.322 622.344 467.762 631.524 467.762C637.259 467.762 640.741 477.671 641.344 487.886L641.365 488.302C641.631 494.653 639.888 508.534 631.524 508.534C623.072 508.534 618.704 495.387 618.617 488.924V488.924ZM753.773 486.924L753.774 486.699C753.76 480.322 750.046 465.762 740.866 465.762C735.274 465.762 731.824 475.182 731.097 485.12L731.046 485.886C730.684 492.022 732.314 506.534 740.866 506.534C749.318 506.534 753.686 493.387 753.773 486.924V486.924ZM623.855 424.285C631.347 423.146 641.268 425.31 644.761 432.928C646.317 436.322 644.474 440.075 640.551 440.263C631.07 440.717 622.567 438.607 614.245 444.772C610.664 447.425 607.653 451.1 605.126 454.764L604.17 456.159L603.378 457.308C601.662 459.831 600.037 462.571 600.291 465.615C600.366 466.516 599.445 467.371 598.57 467.335C593.116 467.111 592.529 460.273 593.246 456.166C594.58 448.544 598.269 441.389 603.382 435.626C608.752 429.574 615.841 425.504 623.855 424.285ZM727.044 433.535C732.21 430.214 738.818 428.938 744.87 429.427C756.803 430.388 776.822 440.532 774.187 455.107C773.374 459.602 767.122 461.974 763.438 459.48C759.477 456.799 758.513 452.632 755.565 449.128C753.213 446.329 750.232 444.304 747.04 442.579C743.894 440.878 740.254 439.847 736.684 439.471L736.089 439.414C733.94 439.231 723.088 439.28 724.681 443.331C724.993 444.124 723.813 444.752 723.271 444.152C719.944 440.472 723.712 435.677 727.044 433.535Z" fill="black"/>
<path fill-rule="evenodd" clip-rule="evenodd" d="M756.809 436C780.281 436 793.676 441.048 798.584 441.441L798.732 441.451C800.773 441.582 802.605 441.753 804.526 442.496C811.592 445.217 812.743 452.627 808.619 457.298C808.33 466.961 809.601 478.253 807.42 487.947C804.73 528.818 785.509 535.716 774.584 538.233C769.098 539.497 762.597 540 756.771 538.666C746.831 538.295 737.004 535.184 728.597 529.765C716.888 522.213 708.191 510.606 705.368 496.83C704.031 490.264 703.406 483.429 704.134 476.754L704.242 475.835C700.436 474.014 696.025 473.67 691.479 473.509C689.307 473.432 687.166 473.363 685.087 473.455C683.054 473.682 681.045 473.984 679.031 474.396C676.831 475.059 674.753 476.155 672.835 477.89L672.703 480.423C672.343 486.749 671.512 493.094 670.231 499.3C668.339 508.458 665.297 517.204 658.822 523.699C656.63 526.973 653.918 529.895 650.626 532.425C638.665 541.634 622.415 545.015 607.502 543.742C577.225 541.158 559.724 517.123 555.691 506.85L555.45 506.228C552.537 498.59 550.215 488.681 541.009 487.04L539.051 486.688C534.85 485.899 530.973 484.802 528.51 480.703C527.43 478.913 526.875 476.912 526.739 474.872C525.301 474.982 523.866 475.088 522.436 475.19C511.028 477.603 442.6 479.648 437.138 479.648C437.138 479.648 426.639 484.067 422.207 480.643C419.134 478.263 418.123 475.09 419.815 471.495C422.367 466.086 434.14 462.833 439.368 461.803C439.368 461.803 523.733 462.503 529.805 461.352C533.562 457.478 540.282 458.008 545.898 457.396C550.546 454.081 557.049 451.861 562.186 450.375C563.233 449.978 564.27 449.595 565.278 449.233C574.695 445.88 584.484 444.103 594.422 443.149C604.67 442.175 614.948 442.616 625.136 444.012C629.429 444.594 633.682 445.347 637.906 446.332C645.468 447.329 652.986 448.971 660.551 450.919L662.065 451.313C670.031 453.401 678.217 455.208 686.464 453.792C693.177 452.647 699.634 450.063 705.824 447.269L706.629 446.904C720.24 440.689 741.496 436 756.809 436ZM637.087 458.722C632.065 457.618 629.92 465.361 634.958 466.468C638.526 467.253 641.549 469.052 643.592 472.099L643.807 472.431C646.548 476.793 653.48 472.766 650.72 468.376C647.614 463.436 642.788 459.976 637.087 458.722ZM784.173 453.922C782.403 452.675 779.724 453.6 778.696 455.363C777.565 457.303 778.306 459.464 779.964 460.733L780.133 460.857C781.654 461.929 783.135 463.851 783.321 465.819L783.338 466.066C783.537 471.218 791.544 471.244 791.344 466.066C791.149 461 788.215 456.767 784.173 453.922Z" fill="black"/>
<defs>
<linearGradient id="paint0_linear_341_19033" x1="792" y1="389" x2="595.49" y2="692.386" gradientUnits="userSpaceOnUse">
<stop stop-color="#E7B6B6"/>
<stop offset="0.195" stop-color="#D8D6C6"/>
<stop offset="1" stop-color="#E7DFB6"/>
</linearGradient>
</defs>
</svg>
