<?xml version="1.0" encoding="UTF-8"?>
<svg width="1200pt" height="1200pt" version="1.1" viewBox="0 0 1200 1200" xmlns="http://www.w3.org/2000/svg">
 <g>
  <path d="m661.44 284.52-153.48 105-75 165-151.68 103.8 257.28 257.28 153.48-105 75-165 151.68-103.8zm-120 600-222.72-222.72 122.4-83.762 111.48 111.48 6.4805 9.7188 1.9219-1.3203 102.84 102.84zm137.28-102.72-102.24-102.24 5.8789-15-22.32-8.7617-2.0391 5.2812-101.16-101.16 64.441-141.72 111.24 111.24-20.039-7.8008-8.7617 22.32 22.32 8.7617 8.2812-21.359 108.6 108.6zm80.16-159.84-109.32-109.32 7.1992-4.0781-11.879-20.879-12.84 7.3203-95.762-95.762 122.4-83.762 222.72 222.72z"/>
  <path d="m665.66 475.79 20.836-11.906 11.906 20.836-20.836 11.906z"/>
  <path d="m707.28 451.94 20.836-11.906 11.906 20.836-20.836 11.906z"/>
  <path d="m568.8 633.41 8.7383-22.352 22.352 8.7383-8.7383 22.352z"/>
  <path d="m586.2 588.77 8.7383-22.352 22.352 8.7383-8.7383 22.352z"/>
  <path d="m505.84 705.88 19.969-13.312 13.312 19.969-19.969 13.312z"/>
  <path d="m465.89 732.53 19.969-13.312 13.312 19.969-19.969 13.312z"/>
 </g>
</svg>
