<?xml version="1.0" encoding="UTF-8"?>
<svg width="1200pt" height="1200pt" version="1.1" viewBox="0 0 1200 1200" xmlns="http://www.w3.org/2000/svg">
 <g>
  <path d="m588 648h24v61.801h-24z"/>
  <path d="m588 778.44h24v121.56h-24z"/>
  <path d="m540 444h120v24h-120z"/>
  <path d="m696.6 432c-15.961-32.039-47.398-55.199-84.602-59.281v-72.719h-24v72.719c-37.199 4.0781-68.641 27.238-84.602 59.281h-215.4v57.359l88.078 22.078c-9.8398 10.684-16.078 24.844-16.078 40.562 0 33.121 26.879 60 60 60s60-26.879 60-60c0-13.68-4.8008-26.16-12.602-36.238h30.719c14.883 42 54.844 72.238 101.88 72.238 46.922 0 86.879-30.121 101.76-72.121h30.602c-7.6836 10.082-12.363 22.562-12.363 36.121 0 33.121 26.879 60 60 60s60-26.879 60-60c0-15.719-6.2383-29.879-16.078-40.559l88.078-22.082v-57.359zm-276.6 156c-19.801 0-36-16.199-36-36s16.199-36 36-36 36 16.199 36 36-16.199 36-36 36zm72.719-96h-95.281l-85.438-21.359v-14.641h182.76c-1.8008 7.6797-2.7617 15.719-2.7617 24 0 4.0781 0.23828 8.0391 0.71875 12zm107.28 72c-46.32 0-84-37.68-84-84s37.68-84 84-84 84 37.68 84 84-37.68 84-84 84zm180 24c-19.801 0-36-16.199-36-36s16.199-36 36-36 36 16.199 36 36-16.199 36-36 36zm108-117.36-85.441 21.359h-95.281c0.48047-3.9609 0.71875-7.9219 0.71875-12 0-8.2812-0.96094-16.32-2.7617-24h182.77z"/>
  <path d="m657.84 648 156 252h28.32l-156-252z"/>
  <path d="m370.2 900h27.602l144-252h-27.602z"/>
 </g>
</svg>
