<?xml version="1.0" encoding="UTF-8"?>
<svg width="1200pt" height="1200pt" version="1.1" viewBox="0 0 1200 1200" xmlns="http://www.w3.org/2000/svg">
 <g>
  <path d="m692.88 438c-15.238-33.602-48.121-57.48-86.879-59.641v-78.359h-12v78.359c-38.641 2.2812-71.641 26.16-86.879 59.641h-213.12v46.68l94.559 23.641c-13.68 9.8398-22.559 25.68-22.559 43.68 0 29.762 24.238 54 54 54s54-24.238 54-54c0-17.16-8.1602-32.281-20.641-42.121h49.199c12.84 41.762 51.719 72.121 97.559 72.121 45.84 0 84.719-30.359 97.441-72h48.961c-12.359 9.9609-20.52 24.961-20.52 42 0 29.762 24.238 54 54 54s54-24.238 54-54c0-18-8.8789-33.84-22.559-43.68l94.559-23.641v-46.68zm-230.88 114c0 23.16-18.84 42-42 42s-42-18.84-42-42 18.84-42 42-42 42 18.84 42 42zm-65.281-54-90.719-22.68v-25.32h196.56c-2.8789 9.4805-4.5586 19.559-4.5586 30 0 6.1211 0.60156 12.121 1.6797 18zm203.28 72c-49.68 0-90-40.32-90-90s40.32-90 90-90 90 40.32 90 90-40.32 90-90 90zm222-18c0 23.16-18.84 42-42 42s-42-18.84-42-42 18.84-42 42-42 42 18.84 42 42zm72-76.68-90.719 22.68h-102.96c1.0781-5.8789 1.6797-11.879 1.6797-18 0-10.441-1.5586-20.52-4.5586-30h196.56z"/>
  <path d="m540 450h120v12h-120z"/>
  <path d="m792 786c-30.719 0-58.441 12.238-78.961 32.039-4.8008-25.078-26.641-44.039-53.039-44.039-3.6016 0-7.1992 0.48047-11.039 1.3203-16.922-23.398-43.922-37.32-72.961-37.32-24.121 0-47.398 9.8398-64.32 27.121-6.4805-2.0391-13.199-3.1211-19.68-3.1211-30.961 0-56.762 21.48-63.84 50.398-6.4805-1.4414-13.199-2.3984-20.16-2.3984-4.8008 0-9.6016 0.35938-14.398 1.1992-21.359-30.84-56.039-49.199-93.602-49.199v12c34.801 0 66.961 17.52 85.801 47.039l2.2812 3.4805 4.0781-0.83984c5.2812-1.0781 10.559-1.6797 15.961-1.6797 42.961 0 78 35.039 78 78h12c0-38.52-24.359-71.281-58.441-84.121 5.5195-23.879 26.879-41.879 52.441-41.879 6.3594 0 12.84 1.1992 19.199 3.7188l3.8398 1.4414 2.7617-3.1211c14.879-16.559 36-26.16 58.078-26.16 26.398 0 50.879 13.32 65.281 35.52l2.3984 3.7188 4.3203-1.3203c4.4414-1.3203 8.2812-1.9219 11.879-1.9219 23.16 0 42 18.84 42 42v2.2812c-15 19.32-24 43.441-24 69.719h12c0-56.281 45.719-102 102-102 3.9609 0 7.6797 0.23828 11.52 0.71875l2.6406 0.23828 2.0391-1.8008c25.441-22.68 57.961-35.16 91.801-35.16v-12c-35.879 0-70.559 12.961-97.801 36.48-3.2383-0.11328-6.5977-0.35156-10.078-0.35156z"/>
 </g>
</svg>
