<?xml version="1.0" encoding="UTF-8"?>
<svg width="1200pt" height="1200pt" version="1.1" viewBox="0 0 1200 1200" xmlns="http://www.w3.org/2000/svg">
 <path d="m726 480v-186h-276v186c0 74.039 58.68 134.52 132 137.64v150.36c0 69.48-56.52 126-126 126v12h264v-12c-69.48 0-126-56.52-126-126v-150.36c73.32-3.1211 132-63.602 132-137.64zm-264-174h252v122.76c-13.32 8.3984-76.441 44.281-121.8-0.96094-45.602-45.602-107.04-18.961-130.2-6.2383zm201.6 588h-151.32c36-16.199 63.961-47.398 75.719-85.559 11.641 38.16 39.602 69.359 75.602 85.559zm-75.602-288c-69.48 0-126-56.52-126-126v-44.762c13.32-8.3984 76.441-44.281 121.8 0.96094 19.199 19.199 41.281 25.559 62.16 25.559 28.559 0 54.719-11.879 68.16-19.32v37.562c-0.12109 69.48-56.641 126-126.12 126z"/>
</svg>
