<?xml version="1.0" encoding="UTF-8"?>
<svg width="1200pt" height="1200pt" version="1.1" viewBox="0 0 1200 1200" xmlns="http://www.w3.org/2000/svg">
 <g>
  <path d="m817.08 534h-523.08v160.32c0 86.641 47.398 167.52 123.6 210.84l1.4414 0.83984h241.92l1.4414-0.83984c63.238-36 106.56-97.68 119.52-167.16h35.281c55.68 0 100.92-45.719 100.92-102-0.007812-56.281-45.367-102-101.05-102zm-43.078 160.32c0 81.84-44.52 158.16-116.16 199.68h-235.68c-71.762-41.398-116.16-117.84-116.16-199.68v-148.32h468zm43.078 31.68h-33.238c1.4414-10.441 2.1602-21 2.1602-31.68v-148.32h31.078c48.961 0 88.922 40.32 88.922 90s-39.84 90-88.922 90z"/>
  <path d="m408.12 487.8 8.5195 8.5195c0.48047-0.48047 51.602-52.801 0-104.52-10.801-10.801-15.719-22.559-14.52-34.68 2.7617-28.559 37.32-51.961 37.68-52.078l-6.6016-9.9609c-1.5586 1.0781-39.602 26.762-42.961 60.961-1.5586 15.84 4.4414 30.84 18 44.281 43.082 43.074 1.6836 85.676-0.11719 87.477z"/>
  <path d="m528.12 487.8 8.5195 8.5195c0.48047-0.48047 51.602-52.801 0-104.52-10.801-10.801-15.719-22.559-14.52-34.68 2.7617-28.559 37.32-51.961 37.68-52.078l-6.6016-9.9609c-1.5586 1.0781-39.602 26.762-42.961 60.961-1.5586 15.84 4.4414 30.84 18 44.281 43.082 43.074 1.6836 85.676-0.11719 87.477z"/>
  <path d="m648.12 487.8 8.5195 8.5195c0.48047-0.48047 51.602-52.801 0-104.52-10.801-10.801-15.719-22.559-14.52-34.68 2.7617-28.559 37.32-51.961 37.68-52.078l-6.6016-9.9609c-1.5586 1.0781-39.602 26.762-42.961 60.961-1.5586 15.84 4.4414 30.84 18 44.281 43.082 43.074 1.6836 85.676-0.11719 87.477z"/>
 </g>
</svg>
