<?xml version="1.0" encoding="UTF-8"?>
<svg width="1200pt" height="1200pt" version="1.1" viewBox="0 0 1200 1200" xmlns="http://www.w3.org/2000/svg">
 <g>
  <path d="m882 594.6v-186.6c0-16.559-13.441-30-30-30h-504c-16.559 0-30 13.441-30 30v186.6c-13.68 2.7617-24 14.879-24 29.398v138h36v60h58.922l12-60h398.16l12 60h58.922v-60h36l-0.003906-138c0-14.52-10.32-26.641-24-29.398zm-552-186.6c0-9.9609 8.0391-18 18-18h504c9.9609 0 18 8.0391 18 18v186h-36v-42c0-9.9609-8.0391-18-18-18h-180c-9.9609 0-18 8.0391-18 18v42h-36v-42c0-9.9609-8.0391-18-18-18h-180c-9.9609 0-18 8.0391-18 18v42h-36zm492 186h-192v-42c0-3.3594 2.6406-6 6-6h180c3.3594 0 6 2.6406 6 6zm-252 0h-192v-42c0-3.3594 2.6406-6 6-6h180c3.3594 0 6 2.6406 6 6zm-190.92 216h-37.078v-48h46.68zm478.92 0h-37.078l-9.6016-48h46.68zm36-60h-588v-48h588zm-588-60v-66c0-9.9609 8.0391-18 18-18h552c9.9609 0 18 8.0391 18 18v66z"/>
  <path d="m612 468c0 6.6289-5.3711 12-12 12s-12-5.3711-12-12 5.3711-12 12-12 12 5.3711 12 12"/>
  <path d="m756 468c0 6.6289-5.3711 12-12 12s-12-5.3711-12-12 5.3711-12 12-12 12 5.3711 12 12"/>
  <path d="m468 468c0 6.6289-5.3711 12-12 12s-12-5.3711-12-12 5.3711-12 12-12 12 5.3711 12 12"/>
 </g>
</svg>
