<?xml version="1.0" encoding="UTF-8"?>
<svg width="1200pt" height="1200pt" version="1.1" viewBox="0 0 1200 1200" xmlns="http://www.w3.org/2000/svg">
 <g>
  <path d="m230.52 908.16c47.387-0.097656 93.109-17.469 128.61-48.859 35.496-31.391 58.332-74.645 64.23-121.66h127.8c6.957 23.691 24.352 42.906 47.238 52.176 22.887 9.2695 48.75 7.5781 70.234-4.5938 21.484-12.168 36.23-33.488 40.043-57.883 3.8086-24.395-3.7305-49.195-20.477-67.34l106.68-190.08 54.84 91.32v-0.003907c-38.762 30.598-64.398 74.824-71.688 123.66-7.293 48.84 4.3125 98.625 32.453 139.21 28.137 40.582 70.688 68.91 118.98 79.211 48.297 10.301 98.703 1.8008 140.95-23.77 42.246-25.57 73.156-66.289 86.426-113.85 13.273-47.566 7.9102-98.402-14.996-142.15s-61.629-77.121-108.28-93.312-97.723-13.988-142.8 6.1641l-68.762-115.2 72.602-129.48h-209.28v48h132l-37.801 65.641h-392.04l-199.32 332.28h186.72c-6.168 36.941-26.266 70.113-56.148 92.688-29.883 22.578-67.281 32.844-104.5 28.688-37.223-4.1602-71.434-22.426-95.598-51.039-24.164-28.617-36.445-65.402-34.309-102.8 2.1328-37.391 18.516-72.543 45.777-98.227 27.262-25.68 63.328-39.934 100.78-39.832v-48c-51.59 0-101.07 20.492-137.55 56.973-36.477 36.48-56.973 85.957-56.973 137.55s20.496 101.07 56.973 137.55c36.48 36.477 85.957 56.973 137.55 56.973zm738.96-341.04c46.371-0.09375 90.062 21.715 117.86 58.832s36.434 85.18 23.297 129.65c-13.133 44.473-46.496 80.129-89.996 96.188-43.504 16.059-92.031 10.633-130.91-14.637-38.883-25.27-63.543-67.418-66.531-113.69-2.9883-46.273 16.051-91.242 51.359-121.3l74.281 123.84 41.16-24.719-74.281-123.84c17.105-6.8086 35.352-10.312 53.762-10.32zm-341.04 179.4c-8.7227 0-17.086-3.4648-23.25-9.6289-6.168-6.168-9.6328-14.531-9.6328-23.25 0-8.7227 3.4648-17.086 9.6328-23.25 6.1641-6.168 14.527-9.6289 23.25-9.6289 8.7188 0 17.082 3.4609 23.25 9.6289 6.1641 6.1641 9.6289 14.527 9.6289 23.25 0 8.7188-3.4648 17.082-9.6289 23.25-6.168 6.1641-14.531 9.6289-23.25 9.6289zm18.719-111.36c-13.484-3.293-27.602-2.9609-40.922 0.96094l-153.6-182.64h298.92zm-242.88-164.52 161.52 192c-6.5781 8.0156-11.547 17.223-14.641 27.121h-278.28z"/>
  <path d="m344.16 291.84h113.64v48h-113.64z"/>
 </g>
</svg>
