<?xml version="1.0" encoding="UTF-8"?>
<svg width="1200pt" height="1200pt" version="1.1" viewBox="0 0 1200 1200" xmlns="http://www.w3.org/2000/svg">
 <g>
  <path d="m168.75 750h112.5c4.9727 0 9.7422-1.9766 13.258-5.4922 3.5156-3.5156 5.4922-8.2852 5.4922-13.258v-56.25c0-26.793-14.293-51.555-37.5-64.953-23.207-13.395-51.793-13.395-75 0-23.207 13.398-37.5 38.16-37.5 64.953v56.25c0 4.9727 1.9766 9.7422 5.4922 13.258 3.5156 3.5156 8.2852 5.4922 13.258 5.4922zm18.75-75c0-13.398 7.1484-25.777 18.75-32.477 11.602-6.6992 25.898-6.6992 37.5 0 11.602 6.6992 18.75 19.078 18.75 32.477v37.5h-75z"/>
  <path d="m356.25 750h112.5c4.9727 0 9.7422-1.9766 13.258-5.4922 3.5156-3.5156 5.4922-8.2852 5.4922-13.258v-56.25c0-26.793-14.293-51.555-37.5-64.953-23.207-13.395-51.793-13.395-75 0-23.207 13.398-37.5 38.16-37.5 64.953v56.25c0 4.9727 1.9766 9.7422 5.4922 13.258 3.5156 3.5156 8.2852 5.4922 13.258 5.4922zm18.75-75c0-13.398 7.1484-25.777 18.75-32.477 11.602-6.6992 25.898-6.6992 37.5 0 11.602 6.6992 18.75 19.078 18.75 32.477v37.5h-75z"/>
  <path d="m225 318.75c-19.891 0-38.969 7.9023-53.031 21.969-14.066 14.062-21.969 33.141-21.969 53.031v56.25c0 4.9727 1.9766 9.7422 5.4922 13.258 3.5156 3.5156 8.2852 5.4922 13.258 5.4922h112.5c4.9727 0 9.7422-1.9766 13.258-5.4922 3.5156-3.5156 5.4922-8.2852 5.4922-13.258v-56.25c0-19.891-7.9023-38.969-21.969-53.031-14.062-14.066-33.141-21.969-53.031-21.969zm37.5 112.5h-75v-37.5c0-13.398 7.1484-25.777 18.75-32.477 11.602-6.6992 25.898-6.6992 37.5 0 11.602 6.6992 18.75 19.078 18.75 32.477z"/>
  <path d="m412.5 318.75c-19.891 0-38.969 7.9023-53.031 21.969-14.066 14.062-21.969 33.141-21.969 53.031v56.25c0 4.9727 1.9766 9.7422 5.4922 13.258 3.5156 3.5156 8.2852 5.4922 13.258 5.4922h112.5c4.9727 0 9.7422-1.9766 13.258-5.4922 3.5156-3.5156 5.4922-8.2852 5.4922-13.258v-56.25c0-19.891-7.9023-38.969-21.969-53.031-14.062-14.066-33.141-21.969-53.031-21.969zm37.5 112.5h-75v-37.5c0-13.398 7.1484-25.777 18.75-32.477 11.602-6.6992 25.898-6.6992 37.5 0 11.602 6.6992 18.75 19.078 18.75 32.477z"/>
  <path d="m543.75 750h112.5c4.9727 0 9.7422-1.9766 13.258-5.4922 3.5156-3.5156 5.4922-8.2852 5.4922-13.258v-56.25c0-26.793-14.293-51.555-37.5-64.953-23.207-13.395-51.793-13.395-75 0-23.207 13.398-37.5 38.16-37.5 64.953v56.25c0 4.9727 1.9766 9.7422 5.4922 13.258 3.5156 3.5156 8.2852 5.4922 13.258 5.4922zm18.75-75c0-13.398 7.1484-25.777 18.75-32.477 11.602-6.6992 25.898-6.6992 37.5 0 11.602 6.6992 18.75 19.078 18.75 32.477v37.5h-75z"/>
  <path d="m731.25 750h112.5c4.9727 0 9.7422-1.9766 13.258-5.4922 3.5156-3.5156 5.4922-8.2852 5.4922-13.258v-56.25c0-26.793-14.293-51.555-37.5-64.953-23.207-13.395-51.793-13.395-75 0-23.207 13.398-37.5 38.16-37.5 64.953v56.25c0 4.9727 1.9766 9.7422 5.4922 13.258 3.5156 3.5156 8.2852 5.4922 13.258 5.4922zm18.75-75c0-13.398 7.1484-25.777 18.75-32.477 11.602-6.6992 25.898-6.6992 37.5 0 11.602 6.6992 18.75 19.078 18.75 32.477v37.5h-75z"/>
  <path d="m918.75 750h112.5c4.9727 0 9.7422-1.9766 13.258-5.4922 3.5156-3.5156 5.4922-8.2852 5.4922-13.258v-56.25c0-26.793-14.293-51.555-37.5-64.953-23.207-13.395-51.793-13.395-75 0-23.207 13.398-37.5 38.16-37.5 64.953v56.25c0 4.9727 1.9766 9.7422 5.4922 13.258 3.5156 3.5156 8.2852 5.4922 13.258 5.4922zm18.75-75c0-13.398 7.1484-25.777 18.75-32.477 11.602-6.6992 25.898-6.6992 37.5 0 11.602 6.6992 18.75 19.078 18.75 32.477v37.5h-75z"/>
  <path d="m932.06 399.19c-3.5391-3.5078-8.3281-5.4648-13.312-5.4375h-86.062l-106.88-107.06c-3.5391-3.5078-8.3281-5.4648-13.312-5.4375h-198.56l-31.875-32.062c-3.5391-3.5078-8.3281-5.4648-13.312-5.4375h-450v37.5h56.25v225h-56.25v37.5h56.25v262.5h-56.25v37.5h56.25v225h-37.5c-4.9727 0-9.7422 1.9766-13.258 5.4922-3.5156 3.5156-5.4922 8.2852-5.4922 13.258v75c0 4.9727 1.9766 9.7422 5.4922 13.258 3.5156 3.5156 8.2852 5.4922 13.258 5.4922h1125c4.9727 0 9.7422-1.9766 13.258-5.4922 3.5156-3.5156 5.4922-8.2852 5.4922-13.258v-75c0-4.9727-1.9766-9.7422-5.4922-13.258-3.5156-3.5156-8.2852-5.4922-13.258-5.4922h-37.5v-225h56.25v-37.5h-56.25v-262.5h56.25v-37.5h-142.31zm-227.25-80.438 106.88 107.06c3.5391 3.5078 8.3281 5.4648 13.312 5.4375h86.062l75 75h-153.38l-144.38-144.56c-3.5391-3.5078-8.3281-5.4648-13.312-5.4375h-86.062l-37.5-37.5zm-142.31 75c0.054688-3.2266 0.49609-6.4375 1.3125-9.5625l4.125 4.125c3.5391 3.5078 8.3281 5.4648 13.312 5.4375h56.25v37.5h-75zm-450-112.5h348.56l75 75c-6.9375 11.301-10.754 24.242-11.062 37.5v56.25c0 4.9727 1.9766 9.7422 5.4922 13.258 3.5156 3.5156 8.2852 5.4922 13.258 5.4922h112.5c4.9727 0 9.7422-1.9766 13.258-5.4922 3.5156-3.5156 5.4922-8.2852 5.4922-13.258v-48.562l104.81 104.81h-667.31zm1031.2 862.5h-1087.5v-37.5h1087.5zm-825-75h-112.5v-93.75c0-20.098 10.723-38.664 28.125-48.715 17.402-10.047 38.848-10.047 56.25 0 17.402 10.051 28.125 28.617 28.125 48.715zm225 0h-112.5v-93.75c0-20.098 10.723-38.664 28.125-48.715 17.402-10.047 38.848-10.047 56.25 0 17.402 10.051 28.125 28.617 28.125 48.715zm225 0h-112.5v-93.75c0-20.098 10.723-38.664 28.125-48.715 17.402-10.047 38.848-10.047 56.25 0 17.402 10.051 28.125 28.617 28.125 48.715zm225 0h-112.5v-93.75c0-20.098 10.723-38.664 28.125-48.715 17.402-10.047 38.848-10.047 56.25 0 17.402 10.051 28.125 28.617 28.125 48.715zm93.75 0h-56.25v-93.75c0-33.492-17.867-64.441-46.875-81.191-29.008-16.746-64.742-16.746-93.75 0-29.008 16.75-46.875 47.699-46.875 81.191v93.75h-37.5v-93.75c0-33.492-17.867-64.441-46.875-81.191-29.008-16.746-64.742-16.746-93.75 0-29.008 16.75-46.875 47.699-46.875 81.191v93.75h-37.5v-93.75c0-33.492-17.867-64.441-46.875-81.191-29.008-16.746-64.742-16.746-93.75 0-29.008 16.75-46.875 47.699-46.875 81.191v93.75h-37.5v-93.75c0-33.492-17.867-64.441-46.875-81.191-29.008-16.746-64.742-16.746-93.75 0-29.008 16.75-46.875 47.699-46.875 81.191v93.75h-56.25v-225h975zm0-262.5h-975v-262.5h975z"/>
  <path d="m975 318.75h150c20.098-0.43359 38.434-11.559 48.105-29.18 9.6719-17.621 9.207-39.066-1.2188-56.25-10.426-17.188-29.227-27.504-49.324-27.07-5.6328-21.555-20.555-39.488-40.727-48.941-20.172-9.457-43.5-9.457-63.672 0-20.172 9.4531-35.094 27.387-40.727 48.941-20.098-0.43359-38.898 9.8828-49.324 27.07-10.426 17.184-10.891 38.629-1.2188 56.25 9.6719 17.621 28.008 28.746 48.105 29.18zm0-75c3.3828 0.058594 6.6875 1.0312 9.5625 2.8125 2.957 1.8242 6.3672 2.793 9.8438 2.793s6.8867-0.96875 9.8438-2.793c3.1133-1.9375 5.5898-4.75 7.125-8.082 1.5312-3.332 2.0547-7.043 1.5-10.668l-0.375-2.8125c0.19922-13.398 7.5352-25.672 19.238-32.195 11.703-6.5234 25.996-6.3086 37.5 0.5625 11.5 6.875 18.461 19.359 18.262 32.758v2.4375c-0.69922 4.7266 0.43359 9.5391 3.1602 13.457 2.7305 3.9219 6.8516 6.6523 11.527 7.6328 4.6758 0.98438 9.5469 0.14844 13.625-2.3398 4.9961-3.5625 11.422-4.457 17.203-2.3906 5.7773 2.0664 10.18 6.832 11.785 12.754 1.6016 5.9258 0.20312 12.262-3.7422 16.961-3.9492 4.6992-9.9453 7.1719-16.059 6.6133h-150c-6.6992 0-12.887-3.5742-16.238-9.375-3.3477-5.8008-3.3477-12.949 0-18.75 3.3516-5.8008 9.5391-9.375 16.238-9.375z"/>
  <path d="m412.5 187.5h150c20.098-0.43359 38.434-11.559 48.105-29.18 9.6719-17.621 9.207-39.066-1.2188-56.25-10.426-17.188-29.227-27.504-49.324-27.07-5.6328-21.555-20.555-39.488-40.727-48.941-20.172-9.457-43.5-9.457-63.672 0-20.172 9.4531-35.094 27.387-40.727 48.941-14.918-0.32422-29.355 5.293-40.133 15.613-10.777 10.32-17.012 24.5-17.336 39.418s5.293 29.355 15.613 40.133c10.32 10.777 24.5 17.012 39.418 17.336zm0-75c3.3828 0.058594 6.6875 1.0312 9.5625 2.8125 2.8516 1.6445 6.082 2.5117 9.375 2.5117s6.5234-0.86719 9.375-2.5117c3.0898-1.8086 5.5977-4.4648 7.2266-7.6562 1.6289-3.1914 2.3086-6.7812 1.9609-10.344v-3.5625c0.19922-13.398 7.5352-25.672 19.238-32.195 11.703-6.5234 25.996-6.3086 37.5 0.5625 11.5 6.875 18.461 19.359 18.262 32.758v2.4375c-0.69922 4.7266 0.43359 9.5391 3.1602 13.457 2.7305 3.9219 6.8516 6.6523 11.527 7.6328 4.6758 0.98438 9.5469 0.14844 13.625-2.3398 4.9961-3.5625 11.422-4.457 17.203-2.3906 5.7773 2.0664 10.18 6.832 11.785 12.754 1.6016 5.9258 0.20312 12.262-3.7422 16.961-3.9492 4.6992-9.9453 7.1719-16.059 6.6133h-150c-6.6992 0-12.887-3.5742-16.238-9.375-3.3477-5.8008-3.3477-12.949 0-18.75 3.3516-5.8008 9.5391-9.375 16.238-9.375z"/>
 </g>
</svg>
