<?xml version="1.0" encoding="UTF-8"?>
<svg width="1200pt" height="1200pt" version="1.1" viewBox="0 0 1200 1200" xmlns="http://www.w3.org/2000/svg">
 <g>
  <path d="m468 480h-204c-3.6016 0-6 1.1992-8.3984 3.6016l-72 72c-2.4023 2.3984-3.6016 4.7969-3.6016 8.3984v576c0 7.1992 4.8008 12 12 12h276c7.1992 0 12-4.8008 12-12v-648c0-7.1992-4.8008-12-12-12zm-12 648h-252v-559.2l64.801-64.801h187.2z"/>
  <path d="m264 576v108c0 7.1992 4.8008 12 12 12h108c7.1992 0 12-4.8008 12-12v-108c0-7.1992-4.8008-12-12-12h-108c-7.1992 0-12 4.8008-12 12zm24 12h84v84h-84z"/>
  <path d="m384 744h-108c-7.1992 0-12 4.8008-12 12v108c0 7.1992 4.8008 12 12 12h108c7.1992 0 12-4.8008 12-12v-108c0-7.1992-4.8008-12-12-12zm-12 108h-84v-84h84z"/>
  <path d="m384 924h-108c-7.1992 0-12 4.8008-12 12v108c0 7.1992 4.8008 12 12 12h108c7.1992 0 12-4.8008 12-12v-108c0-7.1992-4.8008-12-12-12zm-12 108h-84v-84h84z"/>
  <path d="m1016.4 123.6-72-72c-2.3984-2.4023-4.7969-3.6016-8.3984-3.6016h-348c-3.6016 0-6 1.1992-8.3984 3.6016l-72 72c-2.4023 2.3984-3.6016 4.7969-3.6016 8.3984v1008c0 7.1992 4.8008 12 12 12h492c7.1992 0 12-4.8008 12-12v-1008c0-3.6016-1.1992-6-3.6016-8.3984zm-176.4 1004.4h-156v-132h156zm156 0h-132v-144c0-7.1992-4.8008-12-12-12h-180c-7.1992 0-12 4.8008-12 12v144h-132v-991.2l64.801-64.801h338.4l64.801 64.801z"/>
  <path d="m708 564h-108c-7.1992 0-12 4.8008-12 12v108c0 7.1992 4.8008 12 12 12h108c7.1992 0 12-4.8008 12-12v-108c0-7.1992-4.8008-12-12-12zm-12 108h-84v-84h84z"/>
  <path d="m708 744h-108c-7.1992 0-12 4.8008-12 12v108c0 7.1992 4.8008 12 12 12h108c7.1992 0 12-4.8008 12-12v-108c0-7.1992-4.8008-12-12-12zm-12 108h-84v-84h84z"/>
  <path d="m708 204h-108c-7.1992 0-12 4.8008-12 12v108c0 7.1992 4.8008 12 12 12h108c7.1992 0 12-4.8008 12-12v-108c0-7.1992-4.8008-12-12-12zm-12 108h-84v-84h84z"/>
  <path d="m708 384h-108c-7.1992 0-12 4.8008-12 12v108c0 7.1992 4.8008 12 12 12h108c7.1992 0 12-4.8008 12-12v-108c0-7.1992-4.8008-12-12-12zm-12 108h-84v-84h84z"/>
  <path d="m924 564h-108c-7.1992 0-12 4.8008-12 12v108c0 7.1992 4.8008 12 12 12h108c7.1992 0 12-4.8008 12-12v-108c0-7.1992-4.8008-12-12-12zm-12 108h-84v-84h84z"/>
  <path d="m924 744h-108c-7.1992 0-12 4.8008-12 12v108c0 7.1992 4.8008 12 12 12h108c7.1992 0 12-4.8008 12-12v-108c0-7.1992-4.8008-12-12-12zm-12 108h-84v-84h84z"/>
  <path d="m816 204c-7.1992 0-12 4.8008-12 12v108c0 7.1992 4.8008 12 12 12h108c7.1992 0 12-4.8008 12-12v-108c0-7.1992-4.8008-12-12-12zm96 108h-84v-84h84z"/>
  <path d="m924 384h-108c-7.1992 0-12 4.8008-12 12v108c0 7.1992 4.8008 12 12 12h108c7.1992 0 12-4.8008 12-12v-108c0-7.1992-4.8008-12-12-12zm-12 108h-84v-84h84z"/>
 </g>
</svg>
