<?xml version="1.0" encoding="UTF-8"?>
<svg width="1200pt" height="1200pt" version="1.1" viewBox="0 0 1200 1200" xmlns="http://www.w3.org/2000/svg">
 <g>
  <path d="m888 590.16v-182.16c0-19.801-16.199-36-36-36h-504c-19.801 0-36 16.199-36 36v182.16c-13.922 4.9219-24 18.121-24 33.84v144h36v60h69.84l12-60h388.32l12 60h69.84v-60h36v-144c0-15.602-10.078-28.801-24-33.84zm-552-182.16c0-6.6016 5.3984-12 12-12h504c6.6016 0 12 5.3984 12 12v180h-24v-36c0-13.199-10.801-24-24-24h-180c-13.199 0-24 10.801-24 24v36h-24v-36c0-13.199-10.801-24-24-24h-180c-13.199 0-24 10.801-24 24v36h-24zm480 180h-180v-36h180zm-252 0h-180v-36h180zm-189.84 216h-26.16v-36h33.359zm477.84 0h-26.16l-7.1992-36h33.359zm36-60h-576v-36h576zm-576-60v-60c0-6.6016 5.3984-12 12-12h552c6.6016 0 12 5.3984 12 12v60z"/>
  <path d="m612 468c0 6.6289-5.3711 12-12 12s-12-5.3711-12-12 5.3711-12 12-12 12 5.3711 12 12"/>
  <path d="m756 468c0 6.6289-5.3711 12-12 12s-12-5.3711-12-12 5.3711-12 12-12 12 5.3711 12 12"/>
  <path d="m468 468c0 6.6289-5.3711 12-12 12s-12-5.3711-12-12 5.3711-12 12-12 12 5.3711 12 12"/>
 </g>
</svg>
