<?xml version="1.0" encoding="UTF-8"?>
<svg width="1200pt" height="1200pt" version="1.1" viewBox="0 0 1200 1200" xmlns="http://www.w3.org/2000/svg">
 <g>
  <path d="m636 450c42.961 0 78-35.039 78-78s-35.039-78-78-78-78 35.039-78 78 35.039 78 78 78zm0-144c36.359 0 66 29.641 66 66s-29.641 66-66 66-66-29.641-66-66 29.641-66 66-66z"/>
  <path d="m630.36 646.08 9.9609-69.359 27.48 27.48 3 1.5586 108 24 6.9609-3.9609 12-36-3.3594-7.4414-82.68-35.398-59.039-70.922c-1.1992-1.4414-2.8789-2.0391-4.5586-2.0391l-0.125 0.003906h-60l-109.92 36.359-3.3594 2.8789-72 132 3.3594 8.5195 36 12 6.4805-1.8008 70.801-82.559 36.719-9.1211-21.84 98.398-23.762 83.039-71.641 119.28 1.8008 8.0391 36 24 8.0391-1.1992 96-120 23.52-46.68 38.281 34.078 23.641 129.96 5.8828 4.8047h36l6-6v-156l-1.4414-3.9609zm75.242-88.559 78.961 33.84-8.5195 25.68-101.04-22.441-32.641-32.641 9.7188-67.68 51.359 61.68zm-111 171.84-23.762 47.398-92.16 115.2-26.641-17.762 69-115.08 21.961-76.32 51.84 46.078c0 0.125-0.12109 0.24609-0.23828 0.48438zm107.4 164.64h-24.961l-23.039-127.08-1.9219-3.3594-105.36-93.602 23.281-104.52-7.3203-7.0781-48 12-3.1211 1.9219-69.359 80.879-25.32-8.3984 67.441-123.6 104.88-34.922h52.078l-23.277 160.92 1.4414 4.8008 82.559 94.32z"/>
  <path d="m900 894h-144c-3.3594 0-6 2.6406-6 6s2.6406 6 6 6h144c3.3594 0 6-2.6406 6-6s-2.6406-6-6-6z"/>
  <path d="m612 894h-72c-3.3594 0-6 2.6406-6 6s2.6406 6 6 6h72c3.3594 0 6-2.6406 6-6s-2.6406-6-6-6z"/>
  <path d="m408 894h-108c-3.3594 0-6 2.6406-6 6s2.6406 6 6 6h108c3.3594 0 6-2.6406 6-6s-2.6406-6-6-6z"/>
 </g>
</svg>
