<?xml version="1.0" encoding="UTF-8"?>
<svg width="1200pt" height="1200pt" version="1.1" viewBox="0 0 1200 1200" xmlns="http://www.w3.org/2000/svg">
 <g>
  <path d="m955.2 380.4c1.1992 0 1.1992 1.1992 2.3984 1.1992h2.3984 2.3984c3.6016 0 6-1.1992 8.3984-3.6016 2.3984-2.3984 3.6016-4.8008 3.6016-8.3984 0-3.6016-1.1992-6-3.6016-8.3984-2.3984-2.3984-7.1992-3.6016-10.801-3.6016-1.1992 0-1.1992 0-2.3984 1.1992-1.1992 0-1.1992 1.1992-2.3984 1.1992l-1.1992 1.1992c-2.3984 2.3984-3.6016 4.8008-3.6016 8.3984 0 3.6016 1.1992 6 3.6016 8.3984 0.003906 1.207 0.003906 2.4062 1.2031 2.4062z"/>
  <path d="m818.4 382.8c3.6016 0 6-1.1992 8.3984-3.6016 2.3984-2.3984 3.6016-4.8008 3.6016-8.3984 0-3.6016-1.1992-6-3.6016-8.3984-3.6016-3.6016-8.3984-4.8008-13.199-2.3984-1.1992 0-2.3984 1.1992-3.6016 2.3984-2.3984 2.3984-3.6016 4.8008-3.6016 8.3984 0 3.6016 1.1992 6 3.6016 8.3984 2.4023 2.4023 6.0039 3.6016 8.4023 3.6016z"/>
  <path d="m675.6 382.8c3.6016 0 6-1.1992 8.3984-3.6016 2.3984-2.3984 3.6016-4.8008 3.6016-8.3984 0-3.6016-1.1992-6-3.6016-8.3984-1.1992-1.1992-2.3984-2.3984-3.6016-2.3984-4.8008-1.1992-9.6016-1.1992-13.199 2.3984-2.3984 2.3984-3.6016 4.8008-3.6016 8.3984 0 3.6016 1.1992 6 3.6016 8.3984 2.4023 2.4023 6 3.6016 8.4023 3.6016z"/>
  <path d="m526.8 380.4s1.1992 1.1992 2.3984 1.1992h2.3984 2.3984 2.3984 2.3984c1.1992 0 1.1992-1.1992 2.3984-1.1992 1.1992 0 1.1992-1.1992 1.1992-1.1992 2.3984-2.3984 3.6016-4.8008 3.6016-8.3984 0-1.1992 0-3.6016-1.1992-4.8008s-1.1992-2.3984-2.3984-3.6016l-1.1992-1.1992s-1.1992-1.1992-2.3984-1.1992-1.1992 0-2.3984-1.1992h-4.8008c-1.1992 0-1.1992 0-2.3984 1.1992-1.1992 0-1.1992 1.1992-2.3984 1.1992s-1.1992 1.1992-1.1992 1.1992c-2.3984 2.3984-3.6016 4.8008-3.6016 8.3984 0 3.6016 1.1992 6.0039 4.8008 9.6016-1.1992-1.1992-1.1992 0 0 0z"/>
  <path d="m390 382.8c3.6016 0 6-1.1992 8.3984-3.6016 2.3984-2.3984 3.6016-4.8008 3.6016-8.3984 0-3.6016-1.1992-6-3.6016-8.3984-3.6016-3.6016-8.3984-4.8008-13.199-2.3984-1.1992 0-2.3984 1.1992-3.6016 2.3984-2.3984 2.3984-3.6016 4.8008-3.6016 8.3984 0 3.6016 1.1992 6 3.6016 8.3984 2.4023 2.4023 6.0039 3.6016 8.4023 3.6016z"/>
  <path d="m241.2 380.4c1.1992 0 1.1992 1.1992 2.3984 1.1992h2.3984 2.3984 2.3984 2.3984c1.1992 0 1.1992-1.1992 2.3984-1.1992 1.1992 0 1.1992-1.1992 1.1992-1.1992 2.3984-2.3984 3.6016-4.8008 3.6016-8.3984 0-3.6016-1.1992-6-3.6016-8.3984l-1.1875-2.4023c-1.1992 0-1.1992-1.1992-2.3984-1.1992s-1.1992 0-2.3984-1.1992c-3.6016-1.1992-8.3984 0-10.801 3.6016-2.3984 2.3984-3.6016 4.8008-3.6016 8.3984 0 3.6016 1.1992 6 3.6016 8.3984-0.003906 1.1992-0.003906 2.3984 1.1953 2.3984z"/>
  <path d="m1104 558h-24v-259.2c0-26.398-21.602-48-48-48h-865.2c-26.398 0-48 21.602-48 48v258h-22.801c-26.398 0-48 21.602-48 48v178.8c0 7.1992 4.8008 12 12 12h24v58.801c0 7.1992 4.8008 12 12 12h24v72c0 7.1992 4.8008 12 12 12h81.602c7.1992 0 12-4.8008 12-12v-72h748.8v72c0 7.1992 4.8008 12 12 12l81.598-0.003906c7.1992 0 12-4.8008 12-12v-72h24c7.1992 0 12-4.8008 12-12v-58.801h24c7.1992 0 12-4.8008 12-12v-180c0-25.203-21.602-45.602-48-45.602zm-961.2-259.2c0-13.199 10.801-24 24-24h866.4c13.199 0 24 10.801 24 24v258h-82.801v-103.2c0-7.1992-4.8008-12-12-12h-295.2c-7.1992 0-12 4.8008-12 12v103.2h-109.2v-103.2c0-7.1992-4.8008-12-12-12h-295.2c-7.1992 0-12 4.8008-12 12v103.2h-82.801v-258zm536.4 259.2v-91.199h271.2v91.199zm-428.4 0v-91.199h271.2v91.199zm-49.199 368.4h-57.602v-60h57.602zm855.6 0h-57.602v-60h57.602zm34.801-84h-984v-46.801h984zm36-72h-1056v-166.8c0-13.199 10.801-24 24-24h1008c13.199 0 24 10.801 24 24z"/>
 </g>
</svg>
