<?xml version="1.0" encoding="UTF-8"?>
<svg width="1200pt" height="1200pt" version="1.1" viewBox="0 0 1200 1200" xmlns="http://www.w3.org/2000/svg">
 <g>
  <path d="m288 746.4c-30 0-54 24-54 54s24 54 54 54 54-24 54-54-24-54-54-54zm0 84c-16.801 0-30-13.199-30-30 0-16.801 13.199-30 30-30s30 13.199 30 30c0 16.801-13.199 30-30 30z"/>
  <path d="m1107.6 588-189.6-50.398-237.6-201.6-54-54c-4.8008-4.8008-12-4.8008-16.801 0-4.8008 4.8008-4.8008 12 0 16.801l33.602 33.602-319.2-0.003906c-3.6016 0-7.1992 1.1992-9.6016 4.8008l-166.8 202.8-34.801 22.801c-2.4023 3.5977-4.8008 7.1992-4.8008 10.801v132h-48c-7.1992 0-12 4.8008-12 12v48c0 7.1992 4.8008 12 12 12h54l20.398 31.199c2.3984 3.6016 6 4.8008 9.6016 4.8008h25.199c6 60 57.602 108 118.8 108s112.8-48 118.8-108h385.2c6 60 57.602 108 118.8 108s112.8-48 118.8-108h110.4c7.1992 0 12-4.8008 12-12v-156c0-27.602-18-51.602-44.398-57.602zm-999.6 165.6h-36v-24h36zm180 144c-52.801 0-96-43.199-96-96 0-52.801 43.199-96 96-96s96 43.199 96 96c0 52.797-43.199 96-96 96zm718.8-84c-6 46.801-46.801 84-94.801 84s-88.801-37.199-94.801-84c0-3.6016-1.1992-8.3984-1.1992-12 0-3.6016 0-8.3984 1.1992-12 6-46.801 46.801-84 94.801-84s88.801 37.199 94.801 84c0 3.6016 1.1992 8.3984 1.1992 12 0 3.5977 0 7.1992-1.1992 12zm121.2-24h-97.199c-6-60-57.602-108-118.8-108s-112.8 48-118.8 108h-386.4c-6-60-57.602-108-118.8-108s-112.8 48-118.8 108h-18l-19.199-28.801v-182.4l31.199-20.398c1.1992-1.1992 2.3984-1.1992 2.3984-2.3984l164.4-199.2h338.4l236.4 201.6c1.1992 1.1992 2.3984 2.3984 4.8008 2.3984l192 50.398c15.602 3.6016 26.398 18 26.398 34.801z"/>
  <path d="m912 746.4c-25.199 0-46.801 18-52.801 42-1.1992 3.6016-1.1992 8.3984-1.1992 12 0 3.6016 0 8.3984 1.1992 12 6 24 26.398 42 52.801 42 26.398 0 46.801-18 52.801-42 1.1992-3.6016 1.1992-8.3984 1.1992-12 0-3.6016 0-8.3984-1.1992-12-6-22.797-27.602-42-52.801-42zm27.602 67.203c-4.8008 10.801-15.602 18-27.602 18s-22.801-7.1992-27.602-18c-1.1992-3.6016-2.3984-7.1992-2.3984-12 0-4.8008 1.1992-8.3984 2.3984-12 4.8008-10.801 15.602-18 27.602-18s22.801 7.1992 27.602 18c1.1992 3.6016 2.3984 7.1992 2.3984 12 0 4.7969-1.1992 7.1992-2.3984 12z"/>
  <path d="m636 609.6h-72c-7.1992 0-12 4.8008-12 12 0 7.1992 4.8008 12 12 12h72c7.1992 0 12-4.8008 12-12 0-7.2031-4.8008-12-12-12z"/>
  <path d="m828 537.6h-300v-108c0-7.1992-4.8008-12-12-12s-12 4.8008-12 12v120c0 7.1992 4.8008 12 12 12h312c7.1992 0 12-4.8008 12-12 0-7.2031-4.8008-12-12-12z"/>
  <path d="m444 537.6h-192c-7.1992 0-12 4.8008-12 12 0 7.1992 4.8008 12 12 12h192c7.1992 0 12-4.8008 12-12 0-7.2031-4.8008-12-12-12z"/>
 </g>
</svg>
