<?xml version="1.0" encoding="UTF-8"?>
<svg width="1200pt" height="1200pt" version="1.1" viewBox="0 0 1200 1200" xmlns="http://www.w3.org/2000/svg">
 <path d="m732 480v-192h-288v192c0 75.359 58.199 137.28 132 143.4v144.6c0 66.121-53.879 120-120 120v24h264v-24c-66.121 0-120-53.762-120-120v-144.6c73.801-6.1172 132-68.039 132-143.4zm-264-168h240v113.4c-16.922 10.078-72 37.68-111.48-1.8008-39.961-39.961-94.078-28.922-128.52-12.238zm150.12 557.88c6.8398 6.8398 14.281 12.961 22.199 18.121h-104.76c22.922-15.238 41.281-36.84 52.441-62.398 7.0781 16.32 17.281 31.32 30.121 44.277zm-30.121-269.88c-66.121 0-120-53.879-120-120v-41.398c16.922-10.078 72-37.68 111.48 1.9219 20.16 20.16 44.039 27.359 67.078 27.359 22.559 0 44.398-6.9609 61.441-15.121v27.238c0 66.121-53.879 120-120 120z"/>
</svg>
