<?xml version="1.0" encoding="UTF-8"?>
<svg width="1200pt" height="1200pt" version="1.1" viewBox="0 0 1200 1200" xmlns="http://www.w3.org/2000/svg">
 <path d="m1107.3 63.051c-0.55078-3.1328-2.3281-5.918-4.9336-7.7422-2.6055-1.8281-5.832-2.543-8.9648-1.9883l-578.11 101.94c-3.1328 0.55078-5.918 2.3242-7.7461 4.9336l-38.883 55.543v-0.003906c-1.0547 1.5859-1.707 3.3984-1.9062 5.293-35.969-2.7695-71.992 4.5898-103.99 21.242-32 16.656-58.691 41.938-77.059 72.988-18.363 31.047-27.664 66.621-26.848 102.68-25.285 9.2695-48.496 23.43-68.305 41.672-19.812 18.242-35.836 40.207-47.16 64.641-17.988 39.023-23.426 82.668-15.562 124.91 7.8633 42.246 28.645 81.008 59.473 110.95l-36.82 78.973v-0.003906c-0.98828 2.1211-1.332 4.4844-0.99609 6.7969l8.1914 56.379-41.566 17.77c-3.9648 1.6875-6.7188 5.3789-7.207 9.6602l-5.3203 46.234-32.004 33.797c-0.88672 0.94141-1.6133 2.0156-2.1562 3.1836l-20.262 43.453c-1.6875 3.6094-1.4648 7.8242 0.58594 11.238l44.039 73.441c3.1953 5.332 9.9336 7.3398 15.527 4.6289l55.605-26.977c2.4805-1.2031 4.4727-3.2266 5.6367-5.7266l138.14-296.23c42.746 4.3516 85.789-4.6523 123.2-25.781 37.414-21.125 67.355-53.336 85.699-92.188 16.16-34.59 22.336-73.008 17.828-110.92 40.387-19.227 72.777-51.965 91.566-92.555 11.402-24.457 17.578-51.023 18.137-78.004l497-87.637c3.1328-0.55078 5.9219-2.3281 7.7461-4.9336 1.8242-2.6094 2.5352-5.8359 1.9805-8.9688zm-611.45 625.55c-16.773 35.582-44.543 64.828-79.211 83.418-34.668 18.586-74.398 25.535-113.32 19.812-5.2656-0.80859-10.43 1.9609-12.668 6.793l-140.04 300.32-41.895 20.32-35.109-58.551 16.746-35.914 33.41-35.293c1.7812-1.8828 2.9062-4.2969 3.1992-6.8789l4.9805-43.281 43.652-18.656c5.0039-2.1367 7.9414-7.375 7.1602-12.762l-9.0117-61.961 39.012-83.668c2.25-4.8242 1.0508-10.551-2.9414-14.066-29.395-26.141-49.605-61.039-57.648-99.543-8.043-38.504-3.4961-78.574 12.977-114.3 20.449-43.852 57.484-77.785 102.95-94.336 45.469-16.547 95.648-14.355 139.5 6.0898 43.852 20.449 77.789 57.48 94.34 102.95 2.7695 7.7969 5.0078 15.77 6.707 23.863-27.805 9.9297-57.734 12.355-86.773 7.0352 4.8047-24.621-3.1445-50-21.129-67.484-17.988-17.484-43.582-24.711-68.059-19.215-24.473 5.4961-44.52 22.977-53.301 46.473-8.7812 23.496-5.1094 49.84 9.7617 70.039 14.871 20.199 38.934 31.531 63.977 30.129 25.047-1.4062 47.691-15.355 60.211-37.09 12.656 2.6562 25.551 4.0195 38.484 4.0664 20.551-0.074218 40.957-3.4336 60.449-9.9453 2.6016 31.453-3.0586 63.043-16.422 91.637zm-188.3-141.44c0.58594-1.2578 1.3203-2.3945 1.9961-3.5742h0.003907c17.332 18.609 37.918 33.898 60.742 45.113 6.1953 2.8789 12.539 5.4258 19 7.6406-9.6055 12.723-24.902 19.84-40.82 18.996-15.918-0.84766-30.379-9.5469-38.582-23.215-8.2031-13.668-9.0781-30.516-2.3398-44.961zm72.891 19.793v-0.003907c-20.375-10.137-38.77-23.84-54.316-40.461 7.5352-4.582 16.18-7.0156 24.996-7.0352 13.875-0.070313 27.09 5.9219 36.172 16.41 9.082 10.492 13.125 24.426 11.07 38.148-6.1016-2.0156-12.086-4.375-17.922-7.0625zm224.8-81.82v-0.003906c-15.512 33.383-41.574 60.734-74.168 77.836-1.7891-7.4766-3.9883-14.848-6.5859-22.082-17.289-47.566-51.465-87.113-96.027-111.11-44.559-23.996-96.387-30.773-145.62-19.031 0.51172-31.449 9.793-62.129 26.801-88.586 17.004-26.461 41.059-47.648 69.453-61.176 28.395-13.527 60.004-18.859 91.266-15.395l24.219 137.36c0.55078 3.1328 2.3242 5.9219 4.9336 7.7461l55.547 38.895c2.6055 1.8203 5.832 2.5352 8.9648 1.9844l56.934-10.039c-1.0703 22.02-6.4062 43.617-15.719 63.598zm38.984-92.07v-0.003906c-2.0664-19.352-7.0703-38.273-14.844-56.117 16.566-12.809 26.047-32.734 25.531-53.668-0.51172-20.934-10.961-40.371-28.137-52.348-17.172-11.98-39.023-15.066-58.844-8.3164-19.82 6.75-35.246 22.531-41.539 42.504-6.2969 19.969-2.707 41.742 9.6602 58.641 12.367 16.895 32.043 26.895 52.98 26.926 3.8906 0 7.7695-0.34375 11.602-1.0195 2.4727-0.44531 4.9141-1.0312 7.3203-1.7539 6.6875 15.703 10.934 32.336 12.602 49.324l-55.805 9.8398-47.402-33.191-26.18-148.46 33.188-47.395 561.39-98.988 40.395 229.05zm-95.805-118.29v-0.003906c19.535 13.473 36.012 30.906 48.367 51.164-0.11328 0.019532-0.21094 0.070313-0.32422 0.089844-13.961 2.5-28.238-2.2344-37.938-12.582-9.6992-10.348-13.5-24.902-10.105-38.672zm12.219-20.789v-0.003907c10.906-10.188 26.406-13.812 40.695-9.5156 14.293 4.293 25.227 15.859 28.715 30.367 3.4844 14.512-1.0039 29.781-11.785 40.098-14.516-24.289-34.188-45.098-57.625-60.949z"/>
</svg>
