<?xml version="1.0" encoding="UTF-8"?>
<svg width="1200pt" height="1200pt" version="1.1" viewBox="0 0 1200 1200" xmlns="http://www.w3.org/2000/svg">
 <g>
  <path d="m1162.5 618.75h-18.75v-206.25c0-4.9727-1.9766-9.7422-5.4922-13.258-3.5156-3.5156-8.2852-5.4922-13.258-5.4922h-18.75v-18.75c-0.035156-51.504-16.387-101.67-46.703-143.3-30.316-41.637-73.043-72.598-122.05-88.445v-12c-0.054688-16.586-5.6055-32.684-15.781-45.781-10.18-13.094-24.41-22.449-40.469-26.594v-40.125h-37.5v40.125c-16.059 4.1445-30.289 13.5-40.469 26.594-10.176 13.098-15.727 29.195-15.781 45.781v12c-49.004 15.848-91.73 46.809-122.05 88.445-30.316 41.633-46.668 91.801-46.703 143.3v18.75h-18.75c-4.9727 0-9.7422 1.9766-13.258 5.4922-3.5156 3.5156-5.4922 8.2852-5.4922 13.258v206.25h-300v-168.75c-0.019531-2.9336-0.72266-5.8242-2.0625-8.4375l-110.44-221.06v-89.25h-37.5v89.25l-110.44 221.06c-1.3398 2.6133-2.043 5.5039-2.0625 8.4375v712.5c0 4.9727 1.9766 9.7422 5.4922 13.258 3.5156 3.5156 8.2852 5.4922 13.258 5.4922h1125c4.9727 0 9.7422-1.9766 13.258-5.4922 3.5156-3.5156 5.4922-8.2852 5.4922-13.258v-525c0-4.9727-1.9766-9.7422-5.4922-13.258-3.5156-3.5156-8.2852-5.4922-13.258-5.4922zm-93.75-243.75v18.75h-75c-4.3555-80.711-34.676-157.86-86.438-219.94 45.77 10.188 86.703 35.668 116.05 72.242 29.348 36.574 45.355 82.055 45.387 128.95zm-206.25-196.12 12.938 15c48.148 55.945 76.547 126.18 80.812 199.88h-187.5c4.0547-73.602 32.184-143.83 80.062-199.88zm-37.5-47.625c0-13.398 7.1484-25.777 18.75-32.477 11.602-6.6992 25.898-6.6992 37.5 0 11.602 6.6992 18.75 19.078 18.75 32.477v3.1875c-24.82-4.25-50.18-4.25-75 0zm-168.75 243.75c0.03125-46.891 16.039-92.371 45.387-128.95 29.348-36.574 70.281-62.055 116.05-72.242-51.762 62.082-82.082 139.23-86.438 219.94h-75zm-37.5 56.25h487.5v187.5h-37.5v-56.25c0-20.098-10.723-38.664-28.125-48.715-17.402-10.047-38.848-10.047-56.25 0-17.402 10.051-28.125 28.617-28.125 48.715v56.25h-37.5v-56.25c0-20.098-10.723-38.664-28.125-48.715-17.402-10.047-38.848-10.047-56.25 0-17.402 10.051-28.125 28.617-28.125 48.715v56.25h-37.5v-56.25c0-20.098-10.723-38.664-28.125-48.715-17.402-10.047-38.848-10.047-56.25 0-17.402 10.051-28.125 28.617-28.125 48.715v56.25h-37.5zm412.5 187.5h-37.5v-56.25c0-6.6992 3.5742-12.887 9.375-16.238 5.8008-3.3477 12.949-3.3477 18.75 0 5.8008 3.3516 9.375 9.5391 9.375 16.238zm-150 0h-37.5v-56.25c0-6.6992 3.5742-12.887 9.375-16.238 5.8008-3.3477 12.949-3.3477 18.75 0 5.8008 3.3516 9.375 9.5391 9.375 16.238zm-150 0h-37.5v-56.25c0-6.6992 3.5742-12.887 9.375-16.238 5.8008-3.3477 12.949-3.3477 18.75 0 5.8008 3.3516 9.375 9.5391 9.375 16.238zm412.5 37.5v187.5h-862.5v-187.5zm-900-187.5v487.5h-187.5v-487.5zm-175.88-37.5 82.125-164.25 82.125 164.25zm213.38 450h862.5v37.5h-862.5zm-225 262.5v-150h187.5v150zm375 0h-37.5v-56.25c0-6.6992 3.5742-12.887 9.375-16.238 5.8008-3.3477 12.949-3.3477 18.75 0 5.8008 3.3516 9.375 9.5391 9.375 16.238zm150 0h-37.5v-56.25c0-6.6992 3.5742-12.887 9.375-16.238 5.8008-3.3477 12.949-3.3477 18.75 0 5.8008 3.3516 9.375 9.5391 9.375 16.238zm150 0h-37.5v-56.25c0-6.6992 3.5742-12.887 9.375-16.238 5.8008-3.3477 12.949-3.3477 18.75 0 5.8008 3.3516 9.375 9.5391 9.375 16.238zm150 0h-37.5v-56.25c0-6.6992 3.5742-12.887 9.375-16.238 5.8008-3.3477 12.949-3.3477 18.75 0 5.8008 3.3516 9.375 9.5391 9.375 16.238zm150 0h-37.5v-56.25c0-6.6992 3.5742-12.887 9.375-16.238 5.8008-3.3477 12.949-3.3477 18.75 0 5.8008 3.3516 9.375 9.5391 9.375 16.238zm37.5 0v-56.25c0-20.098-10.723-38.664-28.125-48.715-17.402-10.047-38.848-10.047-56.25 0-17.402 10.051-28.125 28.617-28.125 48.715v56.25h-37.5v-56.25c0-20.098-10.723-38.664-28.125-48.715-17.402-10.047-38.848-10.047-56.25 0-17.402 10.051-28.125 28.617-28.125 48.715v56.25h-37.5v-56.25c0-20.098-10.723-38.664-28.125-48.715-17.402-10.047-38.848-10.047-56.25 0-17.402 10.051-28.125 28.617-28.125 48.715v56.25h-37.5v-56.25c0-20.098-10.723-38.664-28.125-48.715-17.402-10.047-38.848-10.047-56.25 0-17.402 10.051-28.125 28.617-28.125 48.715v56.25h-37.5v-56.25c0-20.098-10.723-38.664-28.125-48.715-17.402-10.047-38.848-10.047-56.25 0-17.402 10.051-28.125 28.617-28.125 48.715v56.25h-75v-187.5h862.5v187.5z"/>
  <path d="m375 806.25h75c4.9727 0 9.7422-1.9766 13.258-5.4922 3.5156-3.5156 5.4922-8.2852 5.4922-13.258v-37.5c0-20.098-10.723-38.664-28.125-48.715-17.402-10.047-38.848-10.047-56.25 0-17.402 10.051-28.125 28.617-28.125 48.715v37.5c0 4.9727 1.9766 9.7422 5.4922 13.258 3.5156 3.5156 8.2852 5.4922 13.258 5.4922zm18.75-56.25c0-6.6992 3.5742-12.887 9.375-16.238 5.8008-3.3477 12.949-3.3477 18.75 0 5.8008 3.3516 9.375 9.5391 9.375 16.238v18.75h-37.5z"/>
  <path d="m112.5 618.75h75c4.9727 0 9.7422-1.9766 13.258-5.4922 3.5156-3.5156 5.4922-8.2852 5.4922-13.258v-37.5c0-20.098-10.723-38.664-28.125-48.715-17.402-10.047-38.848-10.047-56.25 0-17.402 10.051-28.125 28.617-28.125 48.715v37.5c0 4.9727 1.9766 9.7422 5.4922 13.258 3.5156 3.5156 8.2852 5.4922 13.258 5.4922zm18.75-56.25c0-6.6992 3.5742-12.887 9.375-16.238 5.8008-3.3477 12.949-3.3477 18.75 0 5.8008 3.3516 9.375 9.5391 9.375 16.238v18.75h-37.5z"/>
  <path d="m112.5 768.75h75c4.9727 0 9.7422-1.9766 13.258-5.4922 3.5156-3.5156 5.4922-8.2852 5.4922-13.258v-37.5c0-20.098-10.723-38.664-28.125-48.715-17.402-10.047-38.848-10.047-56.25 0-17.402 10.051-28.125 28.617-28.125 48.715v37.5c0 4.9727 1.9766 9.7422 5.4922 13.258 3.5156 3.5156 8.2852 5.4922 13.258 5.4922zm18.75-56.25c0-6.6992 3.5742-12.887 9.375-16.238 5.8008-3.3477 12.949-3.3477 18.75 0 5.8008 3.3516 9.375 9.5391 9.375 16.238v18.75h-37.5z"/>
  <path d="m112.5 918.75h75c4.9727 0 9.7422-1.9766 13.258-5.4922 3.5156-3.5156 5.4922-8.2852 5.4922-13.258v-37.5c0-20.098-10.723-38.664-28.125-48.715-17.402-10.047-38.848-10.047-56.25 0-17.402 10.051-28.125 28.617-28.125 48.715v37.5c0 4.9727 1.9766 9.7422 5.4922 13.258 3.5156 3.5156 8.2852 5.4922 13.258 5.4922zm18.75-56.25c0-6.6992 3.5742-12.887 9.375-16.238 5.8008-3.3477 12.949-3.3477 18.75 0 5.8008 3.3516 9.375 9.5391 9.375 16.238v18.75h-37.5z"/>
  <path d="m525 806.25h75c4.9727 0 9.7422-1.9766 13.258-5.4922 3.5156-3.5156 5.4922-8.2852 5.4922-13.258v-37.5c0-20.098-10.723-38.664-28.125-48.715-17.402-10.047-38.848-10.047-56.25 0-17.402 10.051-28.125 28.617-28.125 48.715v37.5c0 4.9727 1.9766 9.7422 5.4922 13.258 3.5156 3.5156 8.2852 5.4922 13.258 5.4922zm18.75-56.25c0-6.6992 3.5742-12.887 9.375-16.238 5.8008-3.3477 12.949-3.3477 18.75 0 5.8008 3.3516 9.375 9.5391 9.375 16.238v18.75h-37.5z"/>
  <path d="m675 806.25h75c4.9727 0 9.7422-1.9766 13.258-5.4922 3.5156-3.5156 5.4922-8.2852 5.4922-13.258v-37.5c0-20.098-10.723-38.664-28.125-48.715-17.402-10.047-38.848-10.047-56.25 0-17.402 10.051-28.125 28.617-28.125 48.715v37.5c0 4.9727 1.9766 9.7422 5.4922 13.258 3.5156 3.5156 8.2852 5.4922 13.258 5.4922zm18.75-56.25c0-6.6992 3.5742-12.887 9.375-16.238 5.8008-3.3477 12.949-3.3477 18.75 0 5.8008 3.3516 9.375 9.5391 9.375 16.238v18.75h-37.5z"/>
  <path d="m825 806.25h75c4.9727 0 9.7422-1.9766 13.258-5.4922 3.5156-3.5156 5.4922-8.2852 5.4922-13.258v-37.5c0-20.098-10.723-38.664-28.125-48.715-17.402-10.047-38.848-10.047-56.25 0-17.402 10.051-28.125 28.617-28.125 48.715v37.5c0 4.9727 1.9766 9.7422 5.4922 13.258 3.5156 3.5156 8.2852 5.4922 13.258 5.4922zm18.75-56.25c0-6.6992 3.5742-12.887 9.375-16.238 5.8008-3.3477 12.949-3.3477 18.75 0 5.8008 3.3516 9.375 9.5391 9.375 16.238v18.75h-37.5z"/>
  <path d="m975 806.25h75c4.9727 0 9.7422-1.9766 13.258-5.4922 3.5156-3.5156 5.4922-8.2852 5.4922-13.258v-37.5c0-20.098-10.723-38.664-28.125-48.715-17.402-10.047-38.848-10.047-56.25 0-17.402 10.051-28.125 28.617-28.125 48.715v37.5c0 4.9727 1.9766 9.7422 5.4922 13.258 3.5156 3.5156 8.2852 5.4922 13.258 5.4922zm18.75-56.25c0-6.6992 3.5742-12.887 9.375-16.238 5.8008-3.3477 12.949-3.3477 18.75 0 5.8008 3.3516 9.375 9.5391 9.375 16.238v18.75h-37.5z"/>
 </g>
</svg>
