<?xml version="1.0" encoding="UTF-8"?>
<svg width="1200pt" height="1200pt" version="1.1" viewBox="0 0 1200 1200" xmlns="http://www.w3.org/2000/svg">
 <g>
  <path d="m300 924h600c33.602 0 60-26.398 60-60v-756c0-33.602-26.398-60-60-60h-600c-33.602 0-60 26.398-60 60v756c0 33.602 26.398 60 60 60zm-36-816c0-20.398 15.602-36 36-36h600c20.398 0 36 15.602 36 36v24h-672zm0 48h672v60h-672zm0 84h672v624c0 20.398-15.602 36-36 36h-600c-20.398 0-36-15.602-36-36z"/>
  <path d="m348 552h504c7.1992 0 12-4.8008 12-12v-228c0-7.1992-4.8008-12-12-12h-504c-7.1992 0-12 4.8008-12 12v228c0 7.1992 4.8008 12 12 12zm12-228h480v204h-480z"/>
  <path d="m444 624c-39.602 0-72 32.398-72 72s32.398 72 72 72 72-32.398 72-72-32.398-72-72-72zm0 120c-26.398 0-48-21.602-48-48s21.602-48 48-48 48 21.602 48 48-21.602 48-48 48z"/>
  <path d="m756 624c-39.602 0-72 32.398-72 72s32.398 72 72 72 72-32.398 72-72-32.398-72-72-72zm0 120c-26.398 0-48-21.602-48-48s21.602-48 48-48 48 21.602 48 48-21.602 48-48 48z"/>
  <path d="m1028.4 1092h39.602c7.1992 0 12-4.8008 12-12s-4.8008-12-12-12h-68.398l-73.199-60h33.598c7.1992 0 12-4.8008 12-12s-4.8008-12-12-12h-62.398l-26.398-21.602c-4.8008-4.8008-13.199-3.6016-16.801 1.1992-4.8008 4.8008-3.6016 13.199 1.1992 16.801l3.6016 2.3984-518.4 0.003906 3.6016-2.3984c4.8008-4.8008 6-12 1.1992-16.801-3.6016-4.8008-12-6-16.801-1.1992l-26.402 21.598h-62.398c-7.1992 0-12 4.8008-12 12s4.8008 12 12 12h33.602l-73.199 60h-68.402c-7.1992 0-12 4.8008-12 12s4.8008 12 12 12h39.602l-46.801 38.398c-4.8008 4.8008-6 12-1.1992 16.801 2.3984 2.3984 6 4.8008 9.6016 4.8008 2.3984 0 4.8008-1.1992 7.1992-2.3984l69.602-57.602h781.2l69.602 57.602c2.3945 2.3984 4.7969 2.3984 7.1953 2.3984 3.6016 0 7.1992-1.1992 9.6016-4.8008 4.8008-4.8008 3.6016-13.199-1.1992-16.801zm-789.6-24 73.199-60h577.2l73.199 60z"/>
 </g>
</svg>
