<?xml version="1.0" encoding="UTF-8"?>
<svg width="1200pt" height="1200pt" version="1.1" viewBox="0 0 1200 1200" xmlns="http://www.w3.org/2000/svg">
 <g>
  <path d="m1008 254.62h-761.95c-38.18 0.042969-74.781 15.227-101.78 42.223-26.996 26.996-42.18 63.598-42.223 101.78v353.88h-42.047c-3.1836-0.003906-6.2344 1.2617-8.4844 3.5117-2.2539 2.25-3.5156 5.3047-3.5156 8.4883v61.57c0 3.1797 1.2617 6.2344 3.5156 8.4844 2.25 2.25 5.3008 3.5156 8.4844 3.5156h193.01c3.957 35.508 25.227 66.762 56.809 83.469 31.582 16.707 69.387 16.707 100.97 0 31.582-16.707 52.852-47.961 56.809-83.469h412.07c3.957 35.508 25.227 66.762 56.809 83.469s69.387 16.707 100.97 0 52.852-47.961 56.809-83.469h45.742c3.1836 0 6.2344-1.2656 8.4844-3.5156 2.2539-2.25 3.5156-5.3047 3.5156-8.4844v-136.36c0-3.1836-1.2617-6.2344-3.5156-8.4844-2.25-2.2539-5.3008-3.5156-8.4844-3.5156h-31.676v-139.03h31.676c3.1836 0.003906 6.2344-1.2617 8.4844-3.5117 2.2539-2.25 3.5156-5.3047 3.5156-8.4883v-128.07c-0.042969-38.18-15.227-74.781-42.223-101.78s-63.598-42.18-101.78-42.223zm-761.95 24h761.95c31.816 0.035156 62.316 12.691 84.812 35.188s35.152 52.996 35.188 84.812v65.867h-1002v-65.867c0.035156-31.816 12.691-62.316 35.188-84.812s52.996-35.152 84.812-35.188zm-120 261.07c18.789 2.8789 35.93 12.383 48.324 26.793 12.395 14.414 19.227 32.785 19.258 51.793v134.22h-67.582zm-54.047 274.38v-37.57h121.63v37.57zm288.3 96c-22.277 0-43.645-8.8516-59.398-24.605-15.75-15.754-24.602-37.117-24.602-59.395 0-22.281 8.8516-43.645 24.602-59.398 15.754-15.754 37.121-24.602 59.398-24.602 22.277 0 43.645 8.8477 59.398 24.602 15.75 15.754 24.602 37.117 24.602 59.398-0.027344 22.27-8.8828 43.617-24.633 59.367-15.746 15.746-37.098 24.605-59.367 24.633zm626.66 0c-22.277 0-43.645-8.8516-59.398-24.605-15.75-15.754-24.602-37.117-24.602-59.395 0-22.281 8.8516-43.645 24.602-59.398 15.754-15.754 37.121-24.602 59.398-24.602s43.645 8.8477 59.398 24.602c15.75 15.754 24.602 37.117 24.602 59.398-0.027344 22.27-8.8828 43.617-24.633 59.367-15.746 15.746-37.098 24.605-59.367 24.633zm76.797-281.89 9.0078-8.3555c4.8594-4.5039 5.1484-12.094 0.64453-16.957-4.5039-4.8594-12.098-5.1484-16.957-0.64453l-33.539 31.102c-2.3438 2.1641-3.7305 5.168-3.8555 8.3516s1.0234 6.2891 3.1875 8.625c2.168 2.3398 5.1758 3.7188 8.3633 3.8359 3.1836 0.11719 6.2852-1.0391 8.6172-3.2109l6.8633-6.3633 19.184 24.719c-24.402-5.3008-49.238-8.3477-74.199-9.1094v-73.488c0.011719-12.727 5.0742-24.926 14.074-33.926 9-8.9961 21.199-14.059 33.926-14.074h45.246v116zm-24.684-113.5c-19.09 0.023438-37.391 7.6133-50.891 21.113-13.496 13.5-21.09 31.801-21.109 50.887v85.316c0 3.1797 1.2617 6.2344 3.5156 8.4844 2.25 2.25 5.3008 3.5156 8.4844 3.5156 38.547-0.011718 76.875 5.7773 113.7 17.18 1.1523 0.35156 2.3477 0.53125 3.5508 0.53125h31.676v112.36h-33.742c-3.957-35.512-25.227-66.766-56.809-83.473-31.582-16.707-69.387-16.707-100.97 0-31.582 16.707-52.852 47.961-56.809 83.473h-412.07c-3.957-35.512-25.227-66.766-56.809-83.473-31.582-16.707-69.387-16.707-100.97 0-31.582 16.707-52.852 47.961-56.809 83.473h-35.383v-195.79c-0.035156-25.379-9.3789-49.859-26.258-68.812s-40.121-31.055-65.324-34.02v-26.957h1002v26.203z"/>
  <path d="m986.96 766.07c-15.914 0-31.176 6.3203-42.426 17.57-11.254 11.254-17.574 26.516-17.574 42.43 0 15.91 6.3203 31.172 17.574 42.426 11.25 11.25 26.512 17.574 42.426 17.574 15.914 0 31.176-6.3242 42.426-17.574 11.254-11.254 17.574-26.516 17.574-42.426-0.019532-15.91-6.3477-31.16-17.594-42.406-11.25-11.25-26.5-17.578-42.406-17.594zm0 96c-9.5469 0-18.703-3.793-25.457-10.547-6.75-6.75-10.543-15.906-10.543-25.453 0-9.5508 3.793-18.707 10.543-25.457 6.7539-6.7539 15.91-10.543 25.457-10.543s18.703 3.7891 25.457 10.543c6.75 6.75 10.543 15.906 10.543 25.457-0.011719 9.543-3.8047 18.695-10.555 25.441-6.75 6.75-15.902 10.547-25.445 10.559z"/>
  <path d="m360.3 766.07c-15.914 0-31.176 6.3203-42.426 17.57-11.254 11.254-17.574 26.516-17.574 42.43 0 15.91 6.3203 31.172 17.574 42.426 11.25 11.25 26.512 17.574 42.426 17.574 15.914 0 31.176-6.3242 42.426-17.574 11.254-11.254 17.574-26.516 17.574-42.426-0.019532-15.91-6.3477-31.16-17.594-42.406-11.25-11.25-26.5-17.578-42.406-17.594zm0 96c-9.5469 0-18.703-3.793-25.457-10.547-6.75-6.75-10.543-15.906-10.543-25.453 0-9.5508 3.793-18.707 10.543-25.457 6.7539-6.7539 15.91-10.543 25.457-10.543 9.5469 0 18.703 3.7891 25.457 10.543 6.75 6.75 10.543 15.906 10.543 25.457-0.011719 9.543-3.8047 18.695-10.555 25.441-6.75 6.75-15.902 10.547-25.445 10.559z"/>
  <path d="m398.24 557.1h-131.25c-3.1836 0-6.2344 1.2656-8.4883 3.5156-2.25 2.25-3.5117 5.3047-3.5117 8.4844v89.188c0 3.1836 1.2617 6.2344 3.5117 8.4844 2.2539 2.2539 5.3047 3.5156 8.4883 3.5156h131.25c3.1836 0 6.2344-1.2617 8.4844-3.5156 2.2539-2.25 3.5156-5.3008 3.5156-8.4844v-89.188c0-3.1797-1.2617-6.2344-3.5156-8.4844-2.25-2.25-5.3008-3.5156-8.4844-3.5156zm-12 89.188h-107.25v-65.188h107.25z"/>
  <path d="m572 557.1h-131.24c-3.1836 0-6.2344 1.2656-8.4844 3.5156-2.2539 2.25-3.5156 5.3047-3.5156 8.4844v89.188c0 3.1836 1.2617 6.2344 3.5156 8.4844 2.25 2.2539 5.3008 3.5156 8.4844 3.5156h131.24c3.1836 0 6.2344-1.2617 8.4844-3.5156 2.2539-2.25 3.5156-5.3008 3.5156-8.4844v-89.188c0-3.1797-1.2617-6.2344-3.5156-8.4844-2.25-2.25-5.3008-3.5156-8.4844-3.5156zm-12 89.188h-107.24v-65.188h107.24z"/>
  <path d="m745.78 557.1h-131.25c-3.1836 0-6.2344 1.2656-8.4844 3.5156-2.2539 2.25-3.5156 5.3047-3.5156 8.4844v89.188c0 3.1836 1.2617 6.2344 3.5156 8.4844 2.25 2.2539 5.3008 3.5156 8.4844 3.5156h131.25c3.1836 0 6.2344-1.2617 8.4844-3.5156 2.2539-2.25 3.5156-5.3008 3.5156-8.4844v-89.188c0-3.1797-1.2617-6.2344-3.5156-8.4844-2.25-2.25-5.3008-3.5156-8.4844-3.5156zm-12 89.188h-107.25v-65.188h107.25z"/>
  <path d="m919.55 557.55h-131.25c-3.1836 0-6.2344 1.2656-8.4844 3.5156-2.2539 2.25-3.5156 5.3047-3.5156 8.4844v89.188c0 3.1836 1.2617 6.2344 3.5156 8.4844 2.25 2.2539 5.3008 3.5156 8.4844 3.5156h131.25c3.1836 0 6.2344-1.2617 8.4844-3.5156 2.2539-2.25 3.5156-5.3008 3.5156-8.4844v-89.188c0-3.1797-1.2617-6.2344-3.5156-8.4844-2.25-2.25-5.3008-3.5156-8.4844-3.5156zm-12 89.188h-107.25v-65.188h107.25z"/>
  <path d="m213.87 432.8h131.24c3.1836 0.003907 6.2344-1.2617 8.4844-3.5117 2.2539-2.25 3.5156-5.3047 3.5156-8.4883v-89.188c0-3.1836-1.2617-6.2383-3.5156-8.4883-2.25-2.25-5.3008-3.5156-8.4844-3.5117h-42.059c-26.828 0.027344-52.547 10.699-71.516 29.672-18.969 18.969-29.637 44.691-29.664 71.516 0 3.1836 1.2617 6.2383 3.5156 8.4883 2.25 2.25 5.3008 3.5156 8.4844 3.5117zm89.18-89.191h30.059v65.191h-106.31c2.8828-18.156 12.145-34.691 26.121-46.641 13.973-11.945 31.746-18.523 50.133-18.547z"/>
  <path d="m387.63 432.8h131.25c3.1836 0.003907 6.2344-1.2617 8.4844-3.5117 2.2539-2.25 3.5156-5.3047 3.5156-8.4883v-89.188c0-3.1836-1.2617-6.2383-3.5156-8.4883-2.25-2.25-5.3008-3.5156-8.4844-3.5117h-131.25c-3.1836-0.003906-6.2344 1.2617-8.4844 3.5117-2.2539 2.25-3.5156 5.3047-3.5156 8.4883v89.191-0.003907c0 3.1836 1.2617 6.2383 3.5156 8.4883 2.25 2.25 5.3008 3.5156 8.4844 3.5117zm12-89.191h107.25v65.191h-107.25z"/>
  <path d="m561.4 432.8h131.25c3.1836 0.003907 6.2344-1.2617 8.4844-3.5117 2.2539-2.25 3.5156-5.3047 3.5156-8.4883v-89.188c0-3.1836-1.2617-6.2383-3.5156-8.4883-2.25-2.25-5.3008-3.5156-8.4844-3.5117h-131.25c-3.1836-0.003906-6.2344 1.2617-8.4844 3.5117-2.2539 2.25-3.5156 5.3047-3.5156 8.4883v89.191-0.003907c0 3.1836 1.2617 6.2383 3.5156 8.4883 2.25 2.25 5.3008 3.5156 8.4844 3.5117zm12-89.191h107.25v65.191h-107.25z"/>
  <path d="m735.16 432.8h131.25c3.1836 0.003907 6.2344-1.2617 8.4844-3.5117 2.2539-2.25 3.5156-5.3047 3.5156-8.4883v-89.188c0-3.1836-1.2617-6.2383-3.5156-8.4883-2.25-2.25-5.3008-3.5156-8.4844-3.5117h-131.25c-3.1836-0.003906-6.2344 1.2617-8.4844 3.5117-2.2539 2.25-3.5156 5.3047-3.5156 8.4883v89.191-0.003907c0 3.1836 1.2617 6.2383 3.5156 8.4883 2.25 2.25 5.3008 3.5156 8.4844 3.5117zm12-89.191h107.25v65.191h-107.25z"/>
  <path d="m908.93 432.8h131.25c3.1836 0.003907 6.2344-1.2617 8.4844-3.5117 2.2539-2.25 3.5156-5.3047 3.5156-8.4883-0.027344-26.824-10.695-52.547-29.664-71.516-18.969-18.973-44.688-29.645-71.516-29.672h-42.07c-3.1836-0.003906-6.2344 1.2617-8.4844 3.5117-2.2539 2.25-3.5156 5.3047-3.5156 8.4883v89.191-0.003907c0 3.1836 1.2617 6.2383 3.5156 8.4883 2.25 2.25 5.3008 3.5156 8.4844 3.5117zm12-89.191 30.07 0.003906c18.387 0.023438 36.16 6.6016 50.133 18.547 13.977 11.949 23.238 28.484 26.121 46.641h-106.32z"/>
 </g>
</svg>
