<?xml version="1.0" encoding="UTF-8"?>
<svg width="1200pt" height="1200pt" version="1.1" viewBox="0 0 1200 1200" xmlns="http://www.w3.org/2000/svg">
 <path d="m996 132c-2.3984-3.6016-6-6-10.801-6h-114l45.602-57.602c3.6016-4.8008 3.6016-13.199-2.3984-16.801-4.8008-3.5977-13.203-3.5977-16.801 2.4023l-57.602 73.199h-625.2c-4.8008 0-8.3984 2.3984-10.801 6-2.3984 3.6016-1.1992 8.3984 1.1992 12l384 536.4v300l-152.4 150c-3.6016 3.6016-4.8008 8.3984-2.3984 13.199 2.3984 4.8008 6 7.1992 10.801 7.1992h308.4c4.8008 0 9.6016-2.3984 10.801-7.1992 2.3984-4.8008 1.1992-9.6016-2.3984-13.199l-150-151.2v-300l384-536.4c2.3984-3.6016 2.3984-8.3984 0-12zm-758.4 16.801h584.4l-58.801 74.398c-31.199-1.1992-63.598 4.8008-91.199 19.199-44.398 22.801-98.398 22.801-144 0-51.602-26.398-112.8-26.398-165.6 0l-43.199 21.602zm487.2 979.2h-249.6l124.8-124.8zm-124.8-471.6-266.4-373.2 40.801-20.398c44.398-22.801 98.398-22.801 144 0 51.602 26.398 112.8 26.398 165.6 0 19.199-9.6016 39.602-14.398 61.199-16.801l-97.203 122.4c-13.199-8.3984-28.801-13.199-45.602-13.199-49.199 0-88.801 39.602-88.801 88.801s39.602 88.801 88.801 88.801c49.199 0 88.801-39.602 88.801-88.801 0-24-9.6016-45.602-25.199-61.199l109.2-136.8c18 2.3984 36 7.1992 52.801 15.602l40.801 20.398zm-7.1992-201.6c2.3984 1.1992 4.8008 2.3984 7.1992 2.3984 3.6016 0 7.1992-1.1992 9.6016-4.8008l39.602-50.398c9.6016 12 15.602 26.398 15.602 42 0 36-28.801 64.801-64.801 64.801-36.004 0-64.805-28.801-64.805-64.801s28.801-64.801 64.801-64.801c10.801 0 21.602 2.3984 31.199 7.1992l-39.602 50.398c-4.7969 6.0039-4.7969 14.402 1.2031 18.004zm288-190.8-43.199-21.602c-14.398-7.1992-30-12-45.602-15.602l62.398-78h109.2z"/>
</svg>
