<?xml version="1.0" encoding="UTF-8"?>
<svg width="1200pt" height="1200pt" version="1.1" viewBox="0 0 1200 1200" xmlns="http://www.w3.org/2000/svg">
 <g>
  <path d="m1084.5 291v-81h-294v81h-462v-52.5h-213v52.5h-67.5v699h1104v-699zm-270-57h246v57h-246zm313.5 81v516h-106.19c44.859-55.496 67.008-125.93 61.988-197.11-5.0195-71.18-36.836-137.81-89.039-186.46-52.203-48.652-120.91-75.703-192.26-75.703s-140.06 27.051-192.26 75.703c-52.203 48.648-84.02 115.28-89.039 186.46-5.0195 71.184 17.129 141.62 61.988 197.11h-511.19v-381h438.47l135-135zm-325.5 597c-68.426 0-134.05-27.184-182.43-75.566-48.383-48.383-75.566-114.01-75.566-182.43s27.184-134.05 75.566-182.43c48.383-48.383 114.01-75.566 182.43-75.566s134.05 27.184 182.43 75.566c48.383 48.383 75.566 114.01 75.566 182.43-0.078125 68.402-27.285 133.98-75.652 182.35-48.367 48.367-113.95 75.574-182.35 75.652zm-730.5-486v-43.5h472.03l-43.5 43.5zm67.5-163.5h165v28.5h-165zm472.03 52.5-43.5 43.5h-496.03v-43.5zm-539.53 651v-111h532.96c52.648 51.902 123.61 81 197.54 81s144.89-29.098 197.54-81h127.96v111z"/>
  <path d="m802.5 432c-58.879 0-115.34 23.391-156.98 65.023-41.633 41.633-65.023 98.098-65.023 156.98s23.391 115.34 65.023 156.98c41.633 41.633 98.098 65.023 156.98 65.023s115.34-23.391 156.98-65.023c41.633-41.633 65.023-98.098 65.023-156.98-0.066406-58.859-23.477-115.29-65.094-156.91-41.621-41.617-98.047-65.027-156.91-65.094zm0 419c-52.246 0-102.35-20.758-139.3-57.699-36.941-36.945-57.695-87.055-57.695-139.3s20.758-102.35 57.703-139.3c36.941-36.945 87.051-57.699 139.3-57.695 52.246 0 102.36 20.754 139.3 57.699 36.945 36.941 57.699 87.051 57.699 139.3-0.058594 52.23-20.832 102.3-57.766 139.23-36.934 36.934-87.008 57.707-139.24 57.762z"/>
  <path d="m940.5 654c-0.042969 36.586-14.594 71.664-40.465 97.535s-60.949 40.422-97.535 40.465v24c42.949-0.046875 84.129-17.133 114.5-47.5 30.367-30.371 47.453-71.551 47.5-114.5z"/>
  <path d="m802.5 492c-42.949 0.046875-84.129 17.133-114.5 47.5-30.367 30.371-47.453 71.551-47.5 114.5h24c0.042969-36.586 14.594-71.664 40.465-97.535s60.949-40.422 97.535-40.465z"/>
 </g>
</svg>
