<?xml version="1.0" encoding="UTF-8"?>
<svg width="1200pt" height="1200pt" version="1.1" viewBox="0 0 1200 1200" xmlns="http://www.w3.org/2000/svg">
 <g>
  <path d="m817.08 528h-529.08v166.32c0 88.801 48.48 171.6 126.72 216.12l2.7617 1.5586h245.16l2.7617-1.5586c63.359-36 107.16-97.199 121.56-166.44h30.238c58.801 0 106.8-48.48 106.8-108s-48-108-106.92-108zm-49.078 166.32c0 79.199-42.719 153.12-111.84 193.68h-232.32c-69.121-40.559-111.84-114.48-111.84-193.68v-142.32h456zm49.078 25.68h-26.52c0.83984-8.5195 1.4414-17.039 1.4414-25.68v-142.32h25.078c45.723 0 82.922 37.68 82.922 84s-37.199 84-82.922 84z"/>
  <path d="m403.92 483.48 16.922 16.922c19.559-19.559 44.641-68.281 0-112.92-9.6016-9.6016-13.801-19.441-12.84-29.762 2.0391-21.238 26.039-41.641 35.039-47.762l-13.32-19.922c-1.6797 1.0781-41.879 28.32-45.602 65.281-1.8008 17.762 4.9219 34.32 19.801 49.199 38.156 38.043 3.957 75.004 0 78.965z"/>
  <path d="m523.92 483.48 16.922 16.922c19.559-19.559 44.641-68.281 0-112.92-9.6016-9.6016-13.801-19.441-12.84-29.762 2.0391-21.238 26.039-41.641 35.039-47.762l-13.32-19.922c-1.6797 1.0781-41.879 28.32-45.602 65.281-1.8008 17.762 4.9219 34.32 19.801 49.199 38.156 38.043 3.957 75.004 0 78.965z"/>
  <path d="m643.92 483.48 16.922 16.922c19.559-19.559 44.641-68.281 0-112.92-9.6016-9.6016-13.801-19.441-12.84-29.762 2.0391-21.238 26.039-41.641 35.039-47.762l-13.32-19.922c-1.6797 1.0781-41.879 28.32-45.602 65.281-1.8008 17.762 4.9219 34.32 19.801 49.199 38.156 38.043 3.957 75.004 0 78.965z"/>
 </g>
</svg>
