<?xml version="1.0" encoding="UTF-8"?>
<svg width="1200pt" height="1200pt" version="1.1" viewBox="0 0 1200 1200" xmlns="http://www.w3.org/2000/svg">
 <g>
  <path d="m900 888h-144c-6.6016 0-12 5.3984-12 12s5.3984 12 12 12h144c6.6016 0 12-5.3984 12-12s-5.3984-12-12-12z"/>
  <path d="m612 888h-48c-6.6016 0-12 5.3984-12 12s5.3984 12 12 12h48c6.6016 0 12-5.3984 12-12s-5.3984-12-12-12z"/>
  <path d="m408 888h-108c-6.6016 0-12 5.3984-12 12s5.3984 12 12 12h108c6.6016 0 12-5.3984 12-12s-5.3984-12-12-12z"/>
  <path d="m636 456c46.32 0 84-37.68 84-84s-37.68-84-84-84-84 37.68-84 84 37.68 84 84 84zm0-144c33.121 0 60 26.879 60 60s-26.879 60-60 60-60-26.879-60-60 26.879-60 60-60z"/>
  <path d="m706.68 716.16-77.641-69 11.16-51.84 29.398 25.801c8.0391 7.0781 18.359 10.922 28.199 10.922h0.12109l57.242 3.957h0.83984c24.48 0 44.281-19.922 44.281-44.281s-19.801-44.281-43.199-44.281h-0.12109l-41.16-3.6016-74.039-64.801c-11.762-10.32-28.32-13.68-43.199-8.7617l-96.961 32.281c-11.039 3.7188-20.398 11.762-25.559 22.199l-43.078 86.16c-10.922 21.84-2.0391 48.48 19.801 59.398 21.84 10.922 48.48 2.0391 59.398-19.801l34.922-69.719 5.8789-1.9219-35.641 162.96-70.32 100.44c-6.8398 9.7188-9.3594 21.48-7.3203 33.121 2.0391 11.641 8.5195 21.84 18.238 28.559 7.4414 5.2812 16.32 8.0391 25.32 8.0391 14.52 0 28.078-7.0781 36.359-18.961l75.359-107.64c3.3594-4.8008 5.6406-10.078 6.9609-15.84l5.1602-23.281 27.48 24.48 9.1211 101.04c2.0391 22.922 21 40.32 44.039 40.32 1.3203 0 2.7617-0.12109 4.0781-0.23828 11.762-1.0781 22.441-6.6016 30-15.719 7.5586-9.1211 11.16-20.641 10.078-32.398l-10.801-118.44c-0.71875-11.273-6-21.711-14.398-29.152zm-51-193.2 47.398 41.398c1.9219 1.6797 4.3203 2.6406 6.8398 2.8789l46.082 4.2031c11.16 0 20.281 9.1211 20.281 20.281 0 11.039-8.8789 20.16-19.922 20.281l-57.602-3.9609c-4.9219 0-9.7188-1.8008-13.32-5.0391l-39.48-34.559zm-77.039 241.44c-0.60156 2.6406-1.6797 5.0391-3.2383 7.3203l-75.359 107.64c-6.2383 8.8789-19.441 11.16-28.32 5.0391-4.4414-3.1211-7.4414-7.8008-8.3984-13.078-0.96094-5.3984 0.23828-10.68 3.3594-15.121l71.762-102.48c0.96094-1.3203 1.5586-2.7617 1.9219-4.3203l11.641-52.199 34.801 30.84zm124.92 116.28c-3.4805 4.1992-8.3984 6.7188-13.801 7.1992-11.16 1.0781-21-7.1992-21.961-18.359l-9.6016-105.72c-0.23828-3-1.6797-5.8789-3.9609-7.9219l-87.359-77.641c-5.3984-4.8008-7.9219-12.238-6.3594-19.441l20.398-95.52c0.96094-4.1992-0.48047-8.5195-3.7188-11.398-2.2812-2.0391-5.0391-3-8.0391-3-1.3203 0-2.5195 0.23828-3.8398 0.60156l-30.602 10.199c-3 0.96094-5.5195 3.1211-6.9609 6l-37.078 74.16c-5.0391 9.9609-17.16 14.039-27.238 9.1211-9.9609-5.0391-14.039-17.281-9.1211-27.238l43.078-86.16c2.3984-4.8008 6.7188-8.5195 11.762-10.199l96.961-32.281c6.9609-2.2812 14.52-0.71875 19.922 4.0781 5.3984 4.8008 7.8008 12.238 6.3594 19.441l-28.32 132.36c-0.96094 4.1992 0.48047 8.6406 3.7188 11.52l82.801 73.68c3.8398 3.4805 6.2383 8.1602 6.7188 13.32l10.801 118.44c0.60156 5.3984-1.0781 10.559-4.5586 14.758z"/>
 </g>
</svg>
