<?xml version="1.0" encoding="UTF-8"?>
<svg width="1200pt" height="1200pt" version="1.1" viewBox="0 0 1200 1200" xmlns="http://www.w3.org/2000/svg">
 <g>
  <path d="m540 456c46.32 0 84-37.68 84-84s-37.68-84-84-84-84 37.68-84 84 37.68 84 84 84zm0-144c33.121 0 60 26.879 60 60s-26.879 60-60 60-60-26.879-60-60 26.879-60 60-60z"/>
  <path d="m819.24 912-65.398-274.56-143.52-23.879-24.359-133.56h-82.801l4.3203 73.32c-90.242 10.199-159.48 86.281-159.48 178.68 0 99.238 80.762 180 180 180 81 0 149.4-53.16 171.96-127.2l47.758 127.2zm-253.32-408 23.762 130.44 144.48 24.121 54.598 229.44h-24.48l-71.762-191.4-153.24-11.762-10.562-180.84zm-37.922 384c-86.039 0-156-69.961-156-156 0-79.559 59.281-145.32 137.04-154.68l7.6797 129.84 158.76 12.238 8.1602 21.84c-4.8008 82.441-72.719 146.76-155.64 146.76z"/>
 </g>
</svg>
