<?xml version="1.0" encoding="UTF-8"?>
<svg width="1200pt" height="1200pt" version="1.1" viewBox="0 0 1200 1200" xmlns="http://www.w3.org/2000/svg">
 <g>
  <path d="m846 732c0-133.56-107.16-242.52-240-245.64v-48.359h54v-12h-120v12h54v48.359c-132.84 3.2383-240 112.08-240 245.64v6h492zm-479.88-6c3.2383-126.24 106.92-228 233.88-228 126.96 0 230.76 101.76 233.88 228z"/>
  <path d="m900 846c-29.762 0-54-24.238-54-54v-6h-492v6c0 29.762-24.238 54-54 54h-6v60h612v-60zm-6 48h-588v-36.238c31.559-2.8789 56.879-28.078 59.762-59.762h468.48c2.8789 31.559 28.078 56.879 59.762 59.762z"/>
 </g>
</svg>
