<?xml version="1.0" encoding="UTF-8"?>
<svg width="1200pt" height="1200pt" version="1.1" viewBox="0 0 1200 1200" xmlns="http://www.w3.org/2000/svg">
 <path d="m1151.2 839.04c-1.1484-2.9688-3.4336-5.3594-6.3477-6.6445-2.9141-1.2812-6.2227-1.3516-9.1875-0.19141-46.812 18.262-98.777 18.262-145.59 0-10.387-3.957-21.059-7.1445-31.918-9.5273l190.08-179.09c3.582-3.3711 4.7422-8.5898 2.9297-13.16-1.8164-4.5742-6.2383-7.5781-11.156-7.5742h-116.68l-114.42-68.648v-0.003907c-31.586-55.75-75.176-103.78-127.61-140.61-52.438-36.828-112.41-61.531-175.57-72.32l-57.742-51.387c-2.1992-1.957-5.0391-3.0391-7.9805-3.0352h-252c-6.6289 0-12 5.3711-12 12v108h-96c-6.6289 0-12 5.3711-12 12v90h-48c-6.6289 0-12 5.3711-12 12v102h-48c-3.6172-0.003906-7.043 1.6289-9.3203 4.4375-2.2812 2.8125-3.168 6.5-2.4219 10.039l42.797 202.96c-9.0781-2.0781-18-4.7773-26.707-8.0898-2.9688-1.1562-6.2734-1.0898-9.1914 0.19141-2.9141 1.2852-5.2031 3.6719-6.3555 6.6406-1.1562 2.9688-1.082 6.2773 0.20312 9.1914 1.2852 2.9141 3.6797 5.1992 6.6484 6.3477 52.402 20.445 110.58 20.445 162.98 0 46.812-18.258 98.777-18.258 145.59 0 52.402 20.445 110.57 20.445 162.98 0 46.816-18.258 98.781-18.258 145.59 0 52.406 20.438 110.57 20.438 162.98 0 46.812-18.258 98.777-18.258 145.59 0 52.402 20.445 110.57 20.445 162.98 0 2.9688-1.1523 5.3555-3.4375 6.6367-6.3516 1.2812-2.9102 1.3555-6.2148 0.20312-9.1836zm-539.19-472.36c54.695 10.844 106.59 32.781 152.47 64.457 45.887 31.676 84.797 72.422 114.33 119.72h-266.8zm284.68 208.18 80 48h-568.68v-48zm-308.68-24h-180v-192h124.9c18.43 0 36.84 1.25 55.098 3.7422zm-288-240h235.44l28.262 25.152c-10.203-0.73047-20.465-1.1523-30.793-1.1523h-232.91zm0 48h84v150h-84zm-108 72h84v78h-84zm-60 102h252v90h-252zm695.08 299.35c-46.812 18.262-98.777 18.262-145.59 0-52.406-20.426-110.57-20.426-162.98 0-46.812 18.262-98.777 18.262-145.59 0-52.41-20.426-110.58-20.426-162.98 0-29.699 11.543-61.723 15.84-93.414 12.535l-41.73-197.88h1035l-181.44 170.94c-34.406-3.0508-69.055 1.8789-101.24 14.406z"/>
</svg>
