<svg xmlns="http://www.w3.org/2000/svg">
  <defs>
    <symbol id="icon-venice" viewBox="0 0 1200 1200">
      <g>
        <path
          d="m1038.9 1034.4c-21.914 21.961-51.664 34.301-82.688 34.301s-60.773-12.34-82.688-34.301l-16.5-16.5-26.625 26.625 16.5 16.5c29.027 28.922 68.336 45.16 109.31 45.16s80.285-16.238 109.31-45.16l16.5-16.5-26.625-26.625z"
        />
        <path
          d="m682.69 978.19c-21.914 21.961-51.664 34.301-82.688 34.301s-60.773-12.34-82.688-34.301l-16.5-16.5-26.625 26.625 16.5 16.5c29.027 28.922 68.336 45.16 109.31 45.16s80.285-16.238 109.31-45.16l16.5-16.5-26.625-26.625z"
        />
        <path
          d="m345.19 1034.4c-21.914 21.961-51.664 34.301-82.688 34.301s-60.773-12.34-82.688-34.301l-16.5-16.5-26.625 26.625 16.5 16.5c29.027 28.922 68.336 45.16 109.31 45.16s80.285-16.238 109.31-45.16l16.5-16.5-26.625-26.625z"
        />
        <path
          d="m1166.6 356.25-397.88-90v-41.25c0.027344-4.9844-1.9297-9.7734-5.4375-13.312l-150-150c-3.5195-3.5508-8.3125-5.5469-13.312-5.5469s-9.793 1.9961-13.312 5.5469l-150 150c-3.5078 3.5391-5.4648 8.3281-5.4375 13.312v41.25l-397.88 90c-4.2305 0.95312-8 3.3398-10.664 6.7617-2.668 3.418-4.0664 7.6523-3.9609 11.988v787.5c0 4.9727 1.9766 9.7422 5.4922 13.258 3.5156 3.5156 8.2852 5.4922 13.258 5.4922h1125c4.9727 0 9.7422-1.9766 13.258-5.4922 3.5156-3.5156 5.4922-8.2852 5.4922-13.258v-787.5c0.10547-4.3359-1.293-8.5703-3.9609-11.988-2.6641-3.4219-6.4336-5.8086-10.664-6.7617zm-258.94 490.69c-0.78125 0.90625-1.6641 1.7266-2.625 2.4375-36.648-77.438-101.37-138.04-181.05-169.52-79.68-31.48-168.34-31.48-248.02 0-79.68 31.48-144.4 92.082-181.05 169.52-0.96094-0.71094-1.8438-1.5312-2.625-2.4375l-16.5-16.5c-3.5195-3.5508-8.3125-5.5469-13.312-5.5469s-9.793 1.9961-13.312 5.5469l-16.5 16.5c-21.914 21.961-51.664 34.301-82.688 34.301s-60.773-12.34-82.688-34.301l-11.062-10.875v-108.75l543.75-127.31 543.75 126.75v108.75l-11.062 10.875c-21.914 21.961-51.664 34.301-82.688 34.301s-60.773-12.34-82.688-34.301l-16.5-16.5c-3.5195-3.5508-8.3125-5.5469-13.312-5.5469s-9.793 1.9961-13.312 5.5469zm-34.125 23.625c-21.664 9.9805-45.867 13.062-69.344 8.8398-23.473-4.2266-45.082-15.559-61.906-32.465l-16.5-16.5c-3.5195-3.5508-8.3125-5.5469-13.312-5.5469s-9.793 1.9961-13.312 5.5469l-16.5 16.5c-21.914 21.961-51.664 34.301-82.688 34.301s-60.773-12.34-82.688-34.301l-16.5-16.5c-3.5195-3.5508-8.3125-5.5469-13.312-5.5469s-9.793 1.9961-13.312 5.5469l-16.5 16.5c-16.824 16.906-38.434 28.238-61.906 32.465-23.477 4.2227-47.68 1.1406-69.344-8.8398 31.797-70.641 89.691-126.25 161.56-155.17 71.867-28.922 152.14-28.922 224.01 0 71.867 28.922 129.76 84.527 161.56 155.17zm-817.31-405.56 375-85.312v146.62l-56.25 13.125v-33.188c0-20.098-10.723-38.664-28.125-48.715-17.402-10.047-38.848-10.047-56.25 0-17.402 10.051-28.125 28.617-28.125 48.715v59.438l-37.5 8.8125v-30.75c0-20.098-10.723-38.664-28.125-48.715-17.402-10.047-38.848-10.047-56.25 0-17.402 10.051-28.125 28.617-28.125 48.715v56.25l-56.25 13.125zm675-221.25v273.75l-37.5-8.625v-96.375c0-33.492-17.867-64.441-46.875-81.191-29.008-16.746-64.742-16.746-93.75 0-29.008 16.75-46.875 47.699-46.875 81.191v96.375l-37.5 8.625v-273.75zm412.5 370.12-56.25-13.875v-56.25c0-20.098-10.723-38.664-28.125-48.715-17.402-10.047-38.848-10.047-56.25 0-17.402 10.051-28.125 28.617-28.125 48.715v30.75l-37.5-8.8125v-59.438c0-20.098-10.723-38.664-28.125-48.715-17.402-10.047-38.848-10.047-56.25 0-17.402 10.051-28.125 28.617-28.125 48.715v33.188l-56.25-13.125v-146.62l375 85.312zm-93.75-21.938-37.5-8.625v-39.562c0-6.6992 3.5742-12.887 9.375-16.238 5.8008-3.3477 12.949-3.3477 18.75 0 5.8008 3.3516 9.375 9.5391 9.375 16.238zm-150-35.062-37.5-8.625v-42c0-6.6992 3.5742-12.887 9.375-16.238 5.8008-3.3477 12.949-3.3477 18.75 0 5.8008 3.3516 9.375 9.5391 9.375 16.238zm-243.75-56.25-51.938-13.125c-2.8477-0.5625-5.7773-0.5625-8.625 0l-51.938 12.562v-87.562c0-20.098 10.723-38.664 28.125-48.715 17.402-10.047 38.848-10.047 56.25 0 17.402 10.051 28.125 28.617 28.125 48.715zm-318.75 47.625-37.5 8.625v-50.625c0-6.6992 3.5742-12.887 9.375-16.238 5.8008-3.3477 12.949-3.3477 18.75 0 5.8008 3.3516 9.375 9.5391 9.375 16.238zm-150 35.062-37.5 8.625v-48.188c0-6.6992 3.5742-12.887 9.375-16.238 5.8008-3.3477 12.949-3.3477 18.75 0 5.8008 3.3516 9.375 9.5391 9.375 16.238zm-131.25 69 543.75-127.31 543.75 126.94v37.5l-539.44-126.94c-2.8281-0.74609-5.7969-0.74609-8.625 0l-539.44 126.38zm1087.5-262.5v36.562l-375-85.125v-36.562zm-543.75-288.38 104.81 104.81h-209.62zm-168.75 203.25v36.562l-375 85.312v-36.562zm-375 839.06v-256.88c29.703 22.793 66.676 34.008 104.04 31.559 37.359-2.4492 72.555-18.395 99.027-44.871l3.1875-3.375 3.1875 3.375c29.027 28.922 68.336 45.16 109.31 45.16s80.285-16.238 109.31-45.16l3.1875-3.375 3.1875 3.375c29.027 28.922 68.336 45.16 109.31 45.16s80.285-16.238 109.31-45.16l3.1875-3.375 3.1875 3.375c29.027 28.922 68.336 45.16 109.31 45.16s80.285-16.238 109.31-45.16l3.1875-3.375 3.1875 3.375c26.473 26.477 61.668 42.422 99.027 44.871 37.359 2.4492 74.332-8.7656 104.04-31.559v256.88z"
        />
        <path
          d="m900 187.5h150c20.098-0.43359 38.434-11.559 48.105-29.18 9.6719-17.621 9.207-39.066-1.2188-56.25-10.426-17.188-29.227-27.504-49.324-27.07-5.6328-21.555-20.555-39.488-40.727-48.941-20.172-9.457-43.5-9.457-63.672 0-20.172 9.4531-35.094 27.387-40.727 48.941-20.098-0.43359-38.898 9.8828-49.324 27.07-10.426 17.184-10.891 38.629-1.2188 56.25 9.6719 17.621 28.008 28.746 48.105 29.18zm0-75c3.3828 0.058594 6.6875 1.0312 9.5625 2.8125 2.957 1.8242 6.3672 2.793 9.8438 2.793s6.8867-0.96875 9.8438-2.793c2.918-1.9297 5.2383-4.6406 6.6953-7.8203 1.457-3.1836 1.9961-6.707 1.5547-10.18v-3.5625c0.19922-13.398 7.5352-25.672 19.238-32.195 11.703-6.5234 25.996-6.3086 37.5 0.5625 11.5 6.875 18.461 19.359 18.262 32.758v2.4375c-0.36719 3.4766 0.24609 6.9883 1.7695 10.137 1.5273 3.1484 3.8984 5.8047 6.8555 7.6758 2.957 1.8242 6.3672 2.793 9.8438 2.793s6.8867-0.96875 9.8438-2.793c5.0586-3 11.23-3.4492 16.672-1.2188s9.5234 6.8828 11.02 12.57c1.5 5.6875 0.24219 11.75-3.3945 16.371s-9.2305 7.2695-15.109 7.1523h-150c-6.6992 0-12.887-3.5742-16.238-9.375-3.3477-5.8008-3.3477-12.949 0-18.75 3.3516-5.8008 9.5391-9.375 16.238-9.375z"
        />
        <path
          d="m150 243.75h150c20.098-0.43359 38.434-11.559 48.105-29.18 9.6719-17.621 9.207-39.066-1.2188-56.25-10.426-17.188-29.227-27.504-49.324-27.07-5.6328-21.555-20.555-39.488-40.727-48.941-20.172-9.457-43.5-9.457-63.672 0-20.172 9.4531-35.094 27.387-40.727 48.941-20.098-0.43359-38.898 9.8828-49.324 27.07-10.426 17.184-10.891 38.629-1.2188 56.25 9.6719 17.621 28.008 28.746 48.105 29.18zm0-75c3.3828 0.058594 6.6875 1.0312 9.5625 2.8125 2.957 1.8242 6.3672 2.793 9.8438 2.793s6.8867-0.96875 9.8438-2.793c3.1133-1.9375 5.5898-4.75 7.125-8.082 1.5312-3.332 2.0547-7.043 1.5-10.668l-0.375-2.8125c0.19922-13.398 7.5352-25.672 19.238-32.195 11.703-6.5234 25.996-6.3086 37.5 0.5625 11.5 6.875 18.461 19.359 18.262 32.758v2.4375c-0.55469 3.625-0.03125 7.3359 1.5 10.668 1.5352 3.332 4.0117 6.1445 7.125 8.082 2.957 1.8242 6.3672 2.793 9.8438 2.793s6.8867-0.96875 9.8438-2.793c4.9961-3.5625 11.422-4.457 17.203-2.3906 5.7773 2.0664 10.18 6.832 11.785 12.754 1.6016 5.9258 0.20312 12.262-3.7422 16.961-3.9492 4.6992-9.9453 7.1719-16.059 6.6133h-150c-6.6992 0-12.887-3.5742-16.238-9.375-3.3477-5.8008-3.3477-12.949 0-18.75 3.3516-5.8008 9.5391-9.375 16.238-9.375z"
        />
      </g>
    </symbol>
    <symbol id="icon-florence" viewBox="0 0 1200 1200">
      <g>
        <path
          d="m1162.5 618.75h-18.75v-206.25c0-4.9727-1.9766-9.7422-5.4922-13.258-3.5156-3.5156-8.2852-5.4922-13.258-5.4922h-18.75v-18.75c-0.035156-51.504-16.387-101.67-46.703-143.3-30.316-41.637-73.043-72.598-122.05-88.445v-12c-0.054688-16.586-5.6055-32.684-15.781-45.781-10.18-13.094-24.41-22.449-40.469-26.594v-40.125h-37.5v40.125c-16.059 4.1445-30.289 13.5-40.469 26.594-10.176 13.098-15.727 29.195-15.781 45.781v12c-49.004 15.848-91.73 46.809-122.05 88.445-30.316 41.633-46.668 91.801-46.703 143.3v18.75h-18.75c-4.9727 0-9.7422 1.9766-13.258 5.4922-3.5156 3.5156-5.4922 8.2852-5.4922 13.258v206.25h-300v-168.75c-0.019531-2.9336-0.72266-5.8242-2.0625-8.4375l-110.44-221.06v-89.25h-37.5v89.25l-110.44 221.06c-1.3398 2.6133-2.043 5.5039-2.0625 8.4375v712.5c0 4.9727 1.9766 9.7422 5.4922 13.258 3.5156 3.5156 8.2852 5.4922 13.258 5.4922h1125c4.9727 0 9.7422-1.9766 13.258-5.4922 3.5156-3.5156 5.4922-8.2852 5.4922-13.258v-525c0-4.9727-1.9766-9.7422-5.4922-13.258-3.5156-3.5156-8.2852-5.4922-13.258-5.4922zm-93.75-243.75v18.75h-75c-4.3555-80.711-34.676-157.86-86.438-219.94 45.77 10.188 86.703 35.668 116.05 72.242 29.348 36.574 45.355 82.055 45.387 128.95zm-206.25-196.12 12.938 15c48.148 55.945 76.547 126.18 80.812 199.88h-187.5c4.0547-73.602 32.184-143.83 80.062-199.88zm-37.5-47.625c0-13.398 7.1484-25.777 18.75-32.477 11.602-6.6992 25.898-6.6992 37.5 0 11.602 6.6992 18.75 19.078 18.75 32.477v3.1875c-24.82-4.25-50.18-4.25-75 0zm-168.75 243.75c0.03125-46.891 16.039-92.371 45.387-128.95 29.348-36.574 70.281-62.055 116.05-72.242-51.762 62.082-82.082 139.23-86.438 219.94h-75zm-37.5 56.25h487.5v187.5h-37.5v-56.25c0-20.098-10.723-38.664-28.125-48.715-17.402-10.047-38.848-10.047-56.25 0-17.402 10.051-28.125 28.617-28.125 48.715v56.25h-37.5v-56.25c0-20.098-10.723-38.664-28.125-48.715-17.402-10.047-38.848-10.047-56.25 0-17.402 10.051-28.125 28.617-28.125 48.715v56.25h-37.5v-56.25c0-20.098-10.723-38.664-28.125-48.715-17.402-10.047-38.848-10.047-56.25 0-17.402 10.051-28.125 28.617-28.125 48.715v56.25h-37.5zm412.5 187.5h-37.5v-56.25c0-6.6992 3.5742-12.887 9.375-16.238 5.8008-3.3477 12.949-3.3477 18.75 0 5.8008 3.3516 9.375 9.5391 9.375 16.238zm-150 0h-37.5v-56.25c0-6.6992 3.5742-12.887 9.375-16.238 5.8008-3.3477 12.949-3.3477 18.75 0 5.8008 3.3516 9.375 9.5391 9.375 16.238zm-150 0h-37.5v-56.25c0-6.6992 3.5742-12.887 9.375-16.238 5.8008-3.3477 12.949-3.3477 18.75 0 5.8008 3.3516 9.375 9.5391 9.375 16.238zm412.5 37.5v187.5h-862.5v-187.5zm-900-187.5v487.5h-187.5v-487.5zm-175.88-37.5 82.125-164.25 82.125 164.25zm213.38 450h862.5v37.5h-862.5zm-225 262.5v-150h187.5v150zm375 0h-37.5v-56.25c0-6.6992 3.5742-12.887 9.375-16.238 5.8008-3.3477 12.949-3.3477 18.75 0 5.8008 3.3516 9.375 9.5391 9.375 16.238zm150 0h-37.5v-56.25c0-6.6992 3.5742-12.887 9.375-16.238 5.8008-3.3477 12.949-3.3477 18.75 0 5.8008 3.3516 9.375 9.5391 9.375 16.238zm150 0h-37.5v-56.25c0-6.6992 3.5742-12.887 9.375-16.238 5.8008-3.3477 12.949-3.3477 18.75 0 5.8008 3.3516 9.375 9.5391 9.375 16.238zm150 0h-37.5v-56.25c0-6.6992 3.5742-12.887 9.375-16.238 5.8008-3.3477 12.949-3.3477 18.75 0 5.8008 3.3516 9.375 9.5391 9.375 16.238zm150 0h-37.5v-56.25c0-6.6992 3.5742-12.887 9.375-16.238 5.8008-3.3477 12.949-3.3477 18.75 0 5.8008 3.3516 9.375 9.5391 9.375 16.238zm37.5 0v-56.25c0-20.098-10.723-38.664-28.125-48.715-17.402-10.047-38.848-10.047-56.25 0-17.402 10.051-28.125 28.617-28.125 48.715v56.25h-37.5v-56.25c0-20.098-10.723-38.664-28.125-48.715-17.402-10.047-38.848-10.047-56.25 0-17.402 10.051-28.125 28.617-28.125 48.715v56.25h-37.5v-56.25c0-20.098-10.723-38.664-28.125-48.715-17.402-10.047-38.848-10.047-56.25 0-17.402 10.051-28.125 28.617-28.125 48.715v56.25h-37.5v-56.25c0-20.098-10.723-38.664-28.125-48.715-17.402-10.047-38.848-10.047-56.25 0-17.402 10.051-28.125 28.617-28.125 48.715v56.25h-37.5v-56.25c0-20.098-10.723-38.664-28.125-48.715-17.402-10.047-38.848-10.047-56.25 0-17.402 10.051-28.125 28.617-28.125 48.715v56.25h-75v-187.5h862.5v187.5z"
        />
        <path
          d="m375 806.25h75c4.9727 0 9.7422-1.9766 13.258-5.4922 3.5156-3.5156 5.4922-8.2852 5.4922-13.258v-37.5c0-20.098-10.723-38.664-28.125-48.715-17.402-10.047-38.848-10.047-56.25 0-17.402 10.051-28.125 28.617-28.125 48.715v37.5c0 4.9727 1.9766 9.7422 5.4922 13.258 3.5156 3.5156 8.2852 5.4922 13.258 5.4922zm18.75-56.25c0-6.6992 3.5742-12.887 9.375-16.238 5.8008-3.3477 12.949-3.3477 18.75 0 5.8008 3.3516 9.375 9.5391 9.375 16.238v18.75h-37.5z"
        />
        <path
          d="m112.5 618.75h75c4.9727 0 9.7422-1.9766 13.258-5.4922 3.5156-3.5156 5.4922-8.2852 5.4922-13.258v-37.5c0-20.098-10.723-38.664-28.125-48.715-17.402-10.047-38.848-10.047-56.25 0-17.402 10.051-28.125 28.617-28.125 48.715v37.5c0 4.9727 1.9766 9.7422 5.4922 13.258 3.5156 3.5156 8.2852 5.4922 13.258 5.4922zm18.75-56.25c0-6.6992 3.5742-12.887 9.375-16.238 5.8008-3.3477 12.949-3.3477 18.75 0 5.8008 3.3516 9.375 9.5391 9.375 16.238v18.75h-37.5z"
        />
        <path
          d="m112.5 768.75h75c4.9727 0 9.7422-1.9766 13.258-5.4922 3.5156-3.5156 5.4922-8.2852 5.4922-13.258v-37.5c0-20.098-10.723-38.664-28.125-48.715-17.402-10.047-38.848-10.047-56.25 0-17.402 10.051-28.125 28.617-28.125 48.715v37.5c0 4.9727 1.9766 9.7422 5.4922 13.258 3.5156 3.5156 8.2852 5.4922 13.258 5.4922zm18.75-56.25c0-6.6992 3.5742-12.887 9.375-16.238 5.8008-3.3477 12.949-3.3477 18.75 0 5.8008 3.3516 9.375 9.5391 9.375 16.238v18.75h-37.5z"
        />
        <path
          d="m112.5 918.75h75c4.9727 0 9.7422-1.9766 13.258-5.4922 3.5156-3.5156 5.4922-8.2852 5.4922-13.258v-37.5c0-20.098-10.723-38.664-28.125-48.715-17.402-10.047-38.848-10.047-56.25 0-17.402 10.051-28.125 28.617-28.125 48.715v37.5c0 4.9727 1.9766 9.7422 5.4922 13.258 3.5156 3.5156 8.2852 5.4922 13.258 5.4922zm18.75-56.25c0-6.6992 3.5742-12.887 9.375-16.238 5.8008-3.3477 12.949-3.3477 18.75 0 5.8008 3.3516 9.375 9.5391 9.375 16.238v18.75h-37.5z"
        />
        <path
          d="m525 806.25h75c4.9727 0 9.7422-1.9766 13.258-5.4922 3.5156-3.5156 5.4922-8.2852 5.4922-13.258v-37.5c0-20.098-10.723-38.664-28.125-48.715-17.402-10.047-38.848-10.047-56.25 0-17.402 10.051-28.125 28.617-28.125 48.715v37.5c0 4.9727 1.9766 9.7422 5.4922 13.258 3.5156 3.5156 8.2852 5.4922 13.258 5.4922zm18.75-56.25c0-6.6992 3.5742-12.887 9.375-16.238 5.8008-3.3477 12.949-3.3477 18.75 0 5.8008 3.3516 9.375 9.5391 9.375 16.238v18.75h-37.5z"
        />
        <path
          d="m675 806.25h75c4.9727 0 9.7422-1.9766 13.258-5.4922 3.5156-3.5156 5.4922-8.2852 5.4922-13.258v-37.5c0-20.098-10.723-38.664-28.125-48.715-17.402-10.047-38.848-10.047-56.25 0-17.402 10.051-28.125 28.617-28.125 48.715v37.5c0 4.9727 1.9766 9.7422 5.4922 13.258 3.5156 3.5156 8.2852 5.4922 13.258 5.4922zm18.75-56.25c0-6.6992 3.5742-12.887 9.375-16.238 5.8008-3.3477 12.949-3.3477 18.75 0 5.8008 3.3516 9.375 9.5391 9.375 16.238v18.75h-37.5z"
        />
        <path
          d="m825 806.25h75c4.9727 0 9.7422-1.9766 13.258-5.4922 3.5156-3.5156 5.4922-8.2852 5.4922-13.258v-37.5c0-20.098-10.723-38.664-28.125-48.715-17.402-10.047-38.848-10.047-56.25 0-17.402 10.051-28.125 28.617-28.125 48.715v37.5c0 4.9727 1.9766 9.7422 5.4922 13.258 3.5156 3.5156 8.2852 5.4922 13.258 5.4922zm18.75-56.25c0-6.6992 3.5742-12.887 9.375-16.238 5.8008-3.3477 12.949-3.3477 18.75 0 5.8008 3.3516 9.375 9.5391 9.375 16.238v18.75h-37.5z"
        />
        <path
          d="m975 806.25h75c4.9727 0 9.7422-1.9766 13.258-5.4922 3.5156-3.5156 5.4922-8.2852 5.4922-13.258v-37.5c0-20.098-10.723-38.664-28.125-48.715-17.402-10.047-38.848-10.047-56.25 0-17.402 10.051-28.125 28.617-28.125 48.715v37.5c0 4.9727 1.9766 9.7422 5.4922 13.258 3.5156 3.5156 8.2852 5.4922 13.258 5.4922zm18.75-56.25c0-6.6992 3.5742-12.887 9.375-16.238 5.8008-3.3477 12.949-3.3477 18.75 0 5.8008 3.3516 9.375 9.5391 9.375 16.238v18.75h-37.5z"
        />
      </g>
    </symbol>
    <symbol id="icon-rome" viewBox="0 0 1200 1200">
      <g>
        <path
          d="m168.75 750h112.5c4.9727 0 9.7422-1.9766 13.258-5.4922 3.5156-3.5156 5.4922-8.2852 5.4922-13.258v-56.25c0-26.793-14.293-51.555-37.5-64.953-23.207-13.395-51.793-13.395-75 0-23.207 13.398-37.5 38.16-37.5 64.953v56.25c0 4.9727 1.9766 9.7422 5.4922 13.258 3.5156 3.5156 8.2852 5.4922 13.258 5.4922zm18.75-75c0-13.398 7.1484-25.777 18.75-32.477 11.602-6.6992 25.898-6.6992 37.5 0 11.602 6.6992 18.75 19.078 18.75 32.477v37.5h-75z"
        />
        <path
          d="m356.25 750h112.5c4.9727 0 9.7422-1.9766 13.258-5.4922 3.5156-3.5156 5.4922-8.2852 5.4922-13.258v-56.25c0-26.793-14.293-51.555-37.5-64.953-23.207-13.395-51.793-13.395-75 0-23.207 13.398-37.5 38.16-37.5 64.953v56.25c0 4.9727 1.9766 9.7422 5.4922 13.258 3.5156 3.5156 8.2852 5.4922 13.258 5.4922zm18.75-75c0-13.398 7.1484-25.777 18.75-32.477 11.602-6.6992 25.898-6.6992 37.5 0 11.602 6.6992 18.75 19.078 18.75 32.477v37.5h-75z"
        />
        <path
          d="m225 318.75c-19.891 0-38.969 7.9023-53.031 21.969-14.066 14.062-21.969 33.141-21.969 53.031v56.25c0 4.9727 1.9766 9.7422 5.4922 13.258 3.5156 3.5156 8.2852 5.4922 13.258 5.4922h112.5c4.9727 0 9.7422-1.9766 13.258-5.4922 3.5156-3.5156 5.4922-8.2852 5.4922-13.258v-56.25c0-19.891-7.9023-38.969-21.969-53.031-14.062-14.066-33.141-21.969-53.031-21.969zm37.5 112.5h-75v-37.5c0-13.398 7.1484-25.777 18.75-32.477 11.602-6.6992 25.898-6.6992 37.5 0 11.602 6.6992 18.75 19.078 18.75 32.477z"
        />
        <path
          d="m412.5 318.75c-19.891 0-38.969 7.9023-53.031 21.969-14.066 14.062-21.969 33.141-21.969 53.031v56.25c0 4.9727 1.9766 9.7422 5.4922 13.258 3.5156 3.5156 8.2852 5.4922 13.258 5.4922h112.5c4.9727 0 9.7422-1.9766 13.258-5.4922 3.5156-3.5156 5.4922-8.2852 5.4922-13.258v-56.25c0-19.891-7.9023-38.969-21.969-53.031-14.062-14.066-33.141-21.969-53.031-21.969zm37.5 112.5h-75v-37.5c0-13.398 7.1484-25.777 18.75-32.477 11.602-6.6992 25.898-6.6992 37.5 0 11.602 6.6992 18.75 19.078 18.75 32.477z"
        />
        <path
          d="m543.75 750h112.5c4.9727 0 9.7422-1.9766 13.258-5.4922 3.5156-3.5156 5.4922-8.2852 5.4922-13.258v-56.25c0-26.793-14.293-51.555-37.5-64.953-23.207-13.395-51.793-13.395-75 0-23.207 13.398-37.5 38.16-37.5 64.953v56.25c0 4.9727 1.9766 9.7422 5.4922 13.258 3.5156 3.5156 8.2852 5.4922 13.258 5.4922zm18.75-75c0-13.398 7.1484-25.777 18.75-32.477 11.602-6.6992 25.898-6.6992 37.5 0 11.602 6.6992 18.75 19.078 18.75 32.477v37.5h-75z"
        />
        <path
          d="m731.25 750h112.5c4.9727 0 9.7422-1.9766 13.258-5.4922 3.5156-3.5156 5.4922-8.2852 5.4922-13.258v-56.25c0-26.793-14.293-51.555-37.5-64.953-23.207-13.395-51.793-13.395-75 0-23.207 13.398-37.5 38.16-37.5 64.953v56.25c0 4.9727 1.9766 9.7422 5.4922 13.258 3.5156 3.5156 8.2852 5.4922 13.258 5.4922zm18.75-75c0-13.398 7.1484-25.777 18.75-32.477 11.602-6.6992 25.898-6.6992 37.5 0 11.602 6.6992 18.75 19.078 18.75 32.477v37.5h-75z"
        />
        <path
          d="m918.75 750h112.5c4.9727 0 9.7422-1.9766 13.258-5.4922 3.5156-3.5156 5.4922-8.2852 5.4922-13.258v-56.25c0-26.793-14.293-51.555-37.5-64.953-23.207-13.395-51.793-13.395-75 0-23.207 13.398-37.5 38.16-37.5 64.953v56.25c0 4.9727 1.9766 9.7422 5.4922 13.258 3.5156 3.5156 8.2852 5.4922 13.258 5.4922zm18.75-75c0-13.398 7.1484-25.777 18.75-32.477 11.602-6.6992 25.898-6.6992 37.5 0 11.602 6.6992 18.75 19.078 18.75 32.477v37.5h-75z"
        />
        <path
          d="m932.06 399.19c-3.5391-3.5078-8.3281-5.4648-13.312-5.4375h-86.062l-106.88-107.06c-3.5391-3.5078-8.3281-5.4648-13.312-5.4375h-198.56l-31.875-32.062c-3.5391-3.5078-8.3281-5.4648-13.312-5.4375h-450v37.5h56.25v225h-56.25v37.5h56.25v262.5h-56.25v37.5h56.25v225h-37.5c-4.9727 0-9.7422 1.9766-13.258 5.4922-3.5156 3.5156-5.4922 8.2852-5.4922 13.258v75c0 4.9727 1.9766 9.7422 5.4922 13.258 3.5156 3.5156 8.2852 5.4922 13.258 5.4922h1125c4.9727 0 9.7422-1.9766 13.258-5.4922 3.5156-3.5156 5.4922-8.2852 5.4922-13.258v-75c0-4.9727-1.9766-9.7422-5.4922-13.258-3.5156-3.5156-8.2852-5.4922-13.258-5.4922h-37.5v-225h56.25v-37.5h-56.25v-262.5h56.25v-37.5h-142.31zm-227.25-80.438 106.88 107.06c3.5391 3.5078 8.3281 5.4648 13.312 5.4375h86.062l75 75h-153.38l-144.38-144.56c-3.5391-3.5078-8.3281-5.4648-13.312-5.4375h-86.062l-37.5-37.5zm-142.31 75c0.054688-3.2266 0.49609-6.4375 1.3125-9.5625l4.125 4.125c3.5391 3.5078 8.3281 5.4648 13.312 5.4375h56.25v37.5h-75zm-450-112.5h348.56l75 75c-6.9375 11.301-10.754 24.242-11.062 37.5v56.25c0 4.9727 1.9766 9.7422 5.4922 13.258 3.5156 3.5156 8.2852 5.4922 13.258 5.4922h112.5c4.9727 0 9.7422-1.9766 13.258-5.4922 3.5156-3.5156 5.4922-8.2852 5.4922-13.258v-48.562l104.81 104.81h-667.31zm1031.2 862.5h-1087.5v-37.5h1087.5zm-825-75h-112.5v-93.75c0-20.098 10.723-38.664 28.125-48.715 17.402-10.047 38.848-10.047 56.25 0 17.402 10.051 28.125 28.617 28.125 48.715zm225 0h-112.5v-93.75c0-20.098 10.723-38.664 28.125-48.715 17.402-10.047 38.848-10.047 56.25 0 17.402 10.051 28.125 28.617 28.125 48.715zm225 0h-112.5v-93.75c0-20.098 10.723-38.664 28.125-48.715 17.402-10.047 38.848-10.047 56.25 0 17.402 10.051 28.125 28.617 28.125 48.715zm225 0h-112.5v-93.75c0-20.098 10.723-38.664 28.125-48.715 17.402-10.047 38.848-10.047 56.25 0 17.402 10.051 28.125 28.617 28.125 48.715zm93.75 0h-56.25v-93.75c0-33.492-17.867-64.441-46.875-81.191-29.008-16.746-64.742-16.746-93.75 0-29.008 16.75-46.875 47.699-46.875 81.191v93.75h-37.5v-93.75c0-33.492-17.867-64.441-46.875-81.191-29.008-16.746-64.742-16.746-93.75 0-29.008 16.75-46.875 47.699-46.875 81.191v93.75h-37.5v-93.75c0-33.492-17.867-64.441-46.875-81.191-29.008-16.746-64.742-16.746-93.75 0-29.008 16.75-46.875 47.699-46.875 81.191v93.75h-37.5v-93.75c0-33.492-17.867-64.441-46.875-81.191-29.008-16.746-64.742-16.746-93.75 0-29.008 16.75-46.875 47.699-46.875 81.191v93.75h-56.25v-225h975zm0-262.5h-975v-262.5h975z"
        />
        <path
          d="m975 318.75h150c20.098-0.43359 38.434-11.559 48.105-29.18 9.6719-17.621 9.207-39.066-1.2188-56.25-10.426-17.188-29.227-27.504-49.324-27.07-5.6328-21.555-20.555-39.488-40.727-48.941-20.172-9.457-43.5-9.457-63.672 0-20.172 9.4531-35.094 27.387-40.727 48.941-20.098-0.43359-38.898 9.8828-49.324 27.07-10.426 17.184-10.891 38.629-1.2188 56.25 9.6719 17.621 28.008 28.746 48.105 29.18zm0-75c3.3828 0.058594 6.6875 1.0312 9.5625 2.8125 2.957 1.8242 6.3672 2.793 9.8438 2.793s6.8867-0.96875 9.8438-2.793c3.1133-1.9375 5.5898-4.75 7.125-8.082 1.5312-3.332 2.0547-7.043 1.5-10.668l-0.375-2.8125c0.19922-13.398 7.5352-25.672 19.238-32.195 11.703-6.5234 25.996-6.3086 37.5 0.5625 11.5 6.875 18.461 19.359 18.262 32.758v2.4375c-0.69922 4.7266 0.43359 9.5391 3.1602 13.457 2.7305 3.9219 6.8516 6.6523 11.527 7.6328 4.6758 0.98438 9.5469 0.14844 13.625-2.3398 4.9961-3.5625 11.422-4.457 17.203-2.3906 5.7773 2.0664 10.18 6.832 11.785 12.754 1.6016 5.9258 0.20312 12.262-3.7422 16.961-3.9492 4.6992-9.9453 7.1719-16.059 6.6133h-150c-6.6992 0-12.887-3.5742-16.238-9.375-3.3477-5.8008-3.3477-12.949 0-18.75 3.3516-5.8008 9.5391-9.375 16.238-9.375z"
        />
        <path
          d="m412.5 187.5h150c20.098-0.43359 38.434-11.559 48.105-29.18 9.6719-17.621 9.207-39.066-1.2188-56.25-10.426-17.188-29.227-27.504-49.324-27.07-5.6328-21.555-20.555-39.488-40.727-48.941-20.172-9.457-43.5-9.457-63.672 0-20.172 9.4531-35.094 27.387-40.727 48.941-14.918-0.32422-29.355 5.293-40.133 15.613-10.777 10.32-17.012 24.5-17.336 39.418s5.293 29.355 15.613 40.133c10.32 10.777 24.5 17.012 39.418 17.336zm0-75c3.3828 0.058594 6.6875 1.0312 9.5625 2.8125 2.8516 1.6445 6.082 2.5117 9.375 2.5117s6.5234-0.86719 9.375-2.5117c3.0898-1.8086 5.5977-4.4648 7.2266-7.6562 1.6289-3.1914 2.3086-6.7812 1.9609-10.344v-3.5625c0.19922-13.398 7.5352-25.672 19.238-32.195 11.703-6.5234 25.996-6.3086 37.5 0.5625 11.5 6.875 18.461 19.359 18.262 32.758v2.4375c-0.69922 4.7266 0.43359 9.5391 3.1602 13.457 2.7305 3.9219 6.8516 6.6523 11.527 7.6328 4.6758 0.98438 9.5469 0.14844 13.625-2.3398 4.9961-3.5625 11.422-4.457 17.203-2.3906 5.7773 2.0664 10.18 6.832 11.785 12.754 1.6016 5.9258 0.20312 12.262-3.7422 16.961-3.9492 4.6992-9.9453 7.1719-16.059 6.6133h-150c-6.6992 0-12.887-3.5742-16.238-9.375-3.3477-5.8008-3.3477-12.949 0-18.75 3.3516-5.8008 9.5391-9.375 16.238-9.375z"
        />
      </g>
    </symbol>
  </defs>
</svg>
