<svg width="1136" height="1533" viewBox="0 0 1136 1533" fill="none" xmlns="http://www.w3.org/2000/svg">
<path fill-rule="evenodd" clip-rule="evenodd" d="M728.972 710.25C710.451 696.768 701.265 674.697 694.355 670.939C689.27 668.175 689.363 649.101 679.171 642.351C665.495 633.291 621.912 626.555 606.056 625.296C590.837 624.086 564.366 626.626 550.087 632.199C526.274 641.493 516.777 659.22 506.29 682.059C506.29 682.059 741.697 719.512 728.972 710.25Z" fill="#D08B5B"/>
<path fill-rule="evenodd" clip-rule="evenodd" d="M383.545 726H759.908L890.179 841.891L948 1329L865.758 1354.61L357.604 1363.1L198.902 1318.23L189 979.165L383.545 726Z" fill="#78E185"/>
<path fill-rule="evenodd" clip-rule="evenodd" d="M895.08 1240.51C892.458 1239.2 889.725 1237.7 886.731 1237.6C881.589 1237.42 881.582 1229.42 886.731 1229.6C891.222 1229.76 895.166 1231.63 899.118 1233.6C903.729 1235.9 899.673 1242.8 895.08 1240.51M886.731 1015.33C890.24 1015.33 893.777 1015.77 896.472 1018.23C898.074 1019.69 897.947 1022.41 896.472 1023.88C894.893 1025.46 892.411 1025.34 890.814 1023.88C891.335 1024.36 890.819 1023.89 890.63 1023.78C890.585 1023.76 890.56 1023.74 890.548 1023.73C890.508 1023.72 890.468 1023.71 890.403 1023.7C889.985 1023.59 889.572 1023.49 889.149 1023.41C889.142 1023.43 888.256 1023.35 888.048 1023.35C887.608 1023.33 887.17 1023.33 886.731 1023.33C884.561 1023.33 882.731 1021.5 882.731 1019.33C882.731 1017.17 884.569 1015.33 886.731 1015.33M849.116 1105.06C847.97 1110.09 840.259 1107.95 841.402 1102.94C843.064 1095.65 842.761 1088.18 841.402 1080.87C840.466 1075.83 848.177 1073.69 849.116 1078.74C850.746 1087.52 851.111 1096.32 849.116 1105.06M839.012 817.554C833.054 816.139 827.161 815.971 821.067 815.969C815.911 815.967 815.919 807.967 821.067 807.969C827.864 807.971 834.499 808.263 841.139 809.84C846.153 811.031 844.017 818.742 839.012 817.554M819.048 1012.41C815.593 1010.69 812.136 1008.96 808.681 1007.23C804.069 1004.92 808.126 998.027 812.718 1000.32L823.086 1005.51C827.696 1007.81 823.64 1014.71 819.048 1012.41M817.609 1169.95C813.226 1176.27 807.063 1180.2 799.667 1182.16C794.677 1183.48 792.567 1175.76 797.54 1174.45C802.829 1173.04 807.528 1170.49 810.701 1165.92C813.618 1161.71 820.55 1165.71 817.609 1169.95M789.966 888.291C788.78 886.075 786.995 885.139 784.779 885.089C779.631 884.971 779.63 876.971 784.779 877.089C789.829 877.203 794.46 879.739 796.873 884.254C799.302 888.797 792.393 892.834 789.966 888.291M739.224 942.669C737.79 944.231 735.009 944.192 733.567 942.669C732.684 941.737 731.942 940.696 731.358 939.555C731.136 939.122 730.927 938.681 730.683 938.26C730.574 938.073 730.453 937.887 730.329 937.707C730.287 937.67 730.2 937.58 730.11 937.485C728.573 935.86 728.612 933.461 730.11 931.828C731.545 930.266 734.326 930.305 735.768 931.828C736.65 932.76 737.393 933.801 737.976 934.942C738.198 935.375 738.407 935.816 738.652 936.238C738.761 936.425 738.882 936.61 739.006 936.79C739.048 936.827 739.134 936.917 739.224 937.012C740.762 938.637 740.723 941.036 739.224 942.669M734.958 1060.8C729.748 1063.18 724.034 1063.18 718.824 1060.8C716.851 1059.89 716.383 1057.05 717.39 1055.32C718.556 1053.33 720.899 1052.99 722.862 1053.89C725.225 1054.97 728.561 1054.97 730.921 1053.89C732.893 1052.99 735.213 1053.31 736.393 1055.32C737.406 1057.06 736.923 1059.9 734.958 1060.8M720.747 1144.41C719.852 1146.53 717.919 1147.66 715.659 1147.74C713.42 1147.83 711.753 1145.84 711.659 1143.74C711.599 1142.39 712.332 1141.23 713.385 1140.51C713.386 1140.44 713.388 1140.36 713.388 1140.29C713.389 1138.05 715.22 1136.38 717.388 1136.29C719.547 1136.19 721.389 1138.2 721.388 1140.29C721.387 1141.7 721.3 1143.1 720.747 1144.41M700.107 1277.34C693.723 1277.45 687.485 1278.97 681.1 1279.07C675.941 1279.15 675.957 1271.15 681.1 1271.07C687.484 1270.97 693.722 1269.45 700.107 1269.34C705.266 1269.26 705.25 1277.26 700.107 1277.34M673.559 764.685C669.822 768.245 665.206 769.999 660.654 772.223C656.042 774.476 651.991 767.575 656.616 765.315C660.472 763.431 664.741 762.039 667.903 759.029C671.633 755.476 677.296 761.127 673.559 764.685M663.528 856.895C660.906 855.586 658.173 854.089 655.18 853.985C650.037 853.805 650.03 845.805 655.18 845.985C659.67 846.141 663.614 848.014 667.566 849.987C672.179 852.289 668.122 859.187 663.528 856.895M615.437 1226.98C614.253 1224.76 612.468 1223.83 610.252 1223.78C605.103 1223.66 605.101 1215.66 610.252 1215.78C615.302 1215.89 619.933 1218.43 622.346 1222.94C624.774 1227.48 617.866 1231.52 615.437 1226.98M598.783 1053.26C597.191 1051.8 597.302 1049.08 598.783 1047.6C600.511 1045.88 602.239 1044.15 603.968 1042.42C605.548 1040.84 608.027 1040.95 609.624 1042.42C611.216 1043.88 611.105 1046.59 609.624 1048.08C607.895 1049.8 606.168 1051.53 604.44 1053.26C602.858 1054.84 600.38 1054.73 598.783 1053.26M579.147 1324C573.376 1323.86 567.966 1322.21 562.532 1320.4C557.663 1318.78 559.763 1311.06 564.659 1312.69C569.382 1314.26 574.126 1315.88 579.147 1316C584.296 1316.12 584.298 1324.12 579.147 1324M553.227 1152.93C548.013 1152.78 543.688 1150.13 540.031 1146.57C536.332 1142.98 541.995 1137.32 545.688 1140.92C547.781 1142.95 550.196 1144.84 553.227 1144.93C558.374 1145.07 558.378 1153.07 553.227 1152.93M569.323 932.928C569.386 935.058 570.286 937.34 571.608 938.74C575.143 942.484 569.493 948.148 565.951 944.397C563.029 941.303 561.446 937.162 561.323 932.928C561.175 927.77 569.176 927.792 569.323 932.928M508.302 758.692C506.628 755.414 504.434 751.57 501.097 749.759C496.565 747.3 500.608 740.395 505.135 742.851C509.671 745.313 512.917 750.165 515.21 754.654C517.55 759.235 510.644 763.278 508.302 758.692M497.932 841.889C496.076 841.836 494.234 841.518 492.444 841.033C491.679 840.825 490.923 840.586 490.157 840.378C489.829 840.289 488.436 840.115 489.292 840.161C487.126 840.045 485.292 838.423 485.292 836.161C485.292 834.082 487.132 832.045 489.292 832.161C492.261 832.32 494.961 833.805 497.932 833.889C503.077 834.034 503.081 842.034 497.932 841.889M472.012 969.76H463.372C458.216 969.76 458.225 961.76 463.372 961.76H472.012C477.168 961.76 477.159 969.76 472.012 969.76M461.934 1323.45C459.314 1324.76 456.226 1326.01 454.104 1328.01C450.362 1331.55 444.698 1325.9 448.447 1322.35C451.15 1319.8 454.606 1318.19 457.897 1316.55C459.836 1315.58 462.22 1316.01 463.37 1317.98C464.409 1319.76 463.866 1322.49 461.934 1323.45M442.629 1222.37C442.294 1222.28 441.94 1222.21 441.601 1222.17C440.241 1221.98 438.818 1222.05 437.452 1222.05C432.296 1222.04 432.304 1214.04 437.452 1214.05C441.509 1214.05 445.731 1214.11 448.921 1216.95C450.54 1218.39 450.383 1221.14 448.921 1222.6C447.331 1224.19 444.876 1224.04 443.264 1222.6C443.434 1222.76 442.851 1222.43 442.629 1222.37M437.454 1086.43C438.616 1084.03 438.634 1082.47 438.636 1079.81C438.64 1074.65 446.64 1074.66 446.636 1079.81C446.634 1083.67 446.059 1086.97 444.362 1090.47C443.415 1092.42 440.643 1092.93 438.89 1091.9C436.924 1090.75 436.513 1088.37 437.454 1086.43M414.323 898.77C409.683 900.348 405.541 902.582 401.455 905.279C397.142 908.125 393.139 901.194 397.417 898.371C402.08 895.294 406.903 892.856 412.196 891.055C417.09 889.391 419.171 897.121 414.323 898.77M387.34 764.129C383.893 764.225 380.335 765.547 377.263 767.039C372.646 769.281 368.595 762.38 373.226 760.131C377.614 757.999 382.415 756.267 387.34 756.129C392.499 755.984 392.477 763.985 387.34 764.129M375.244 1123.55C373.888 1123.61 372.729 1122.88 372.011 1121.83C371.936 1121.83 371.862 1121.82 371.788 1121.82C369.546 1121.82 367.886 1119.99 367.788 1117.82C367.691 1115.66 369.696 1113.82 371.788 1113.82C373.2 1113.82 374.601 1113.91 375.913 1114.46C378.032 1115.36 379.158 1117.29 379.244 1119.55C379.329 1121.79 377.343 1123.46 375.244 1123.55M355.571 846.93C350.658 848.535 348.572 840.808 353.444 839.216C359.163 837.347 365.007 835.9 370.725 834.031C375.638 832.426 377.724 840.154 372.851 841.746C367.134 843.614 361.289 845.061 355.571 846.93M337.63 997.928C336.106 1002.84 328.387 1000.73 329.915 995.801C331.391 991.043 331.497 986.255 331.5 981.312C331.503 976.156 339.503 976.165 339.5 981.312C339.497 986.938 339.308 992.513 337.63 997.928M284.143 1178.78C283.852 1180.78 282.272 1182.21 280.204 1182.3C278.099 1182.4 276.128 1180.4 276.204 1178.3C276.351 1174.28 279.634 1170.99 283.66 1170.85C285.9 1170.77 287.566 1172.75 287.66 1174.85C287.752 1176.89 286.046 1178.49 284.143 1178.78M257.075 948.882C252.848 950.293 248.331 951.636 245.017 954.765C241.272 958.299 235.608 952.65 239.36 949.108C243.73 944.983 249.351 943.036 254.949 941.167C259.851 939.531 261.934 947.26 257.075 948.882M238.73 1104.29C237.568 1106.28 235.215 1106.64 233.258 1105.73C230.634 1104.51 227.737 1104.55 224.908 1104.54C219.753 1104.54 219.761 1096.54 224.908 1096.54C229.272 1096.55 233.298 1096.96 237.296 1098.82C239.263 1099.73 239.742 1102.56 238.73 1104.29M228.364 1292.9C226.124 1292.98 224.458 1291 224.364 1288.9C224.272 1286.85 225.977 1285.26 227.882 1284.96C228.172 1282.97 229.753 1281.53 231.82 1281.44C233.926 1281.34 235.897 1283.35 235.82 1285.44C235.673 1289.47 232.392 1292.75 228.364 1292.9M957.19 1323.14C955.831 1318.25 952.721 1314.3 950.371 1309.9C949.583 1308.42 949.309 1307.5 948.882 1306.41C948.302 1307.57 947.176 1308.45 945.483 1308.45C942.235 1308.45 938.436 1308.24 935.405 1309.63C933.434 1310.53 931.112 1310.21 929.933 1308.19C928.92 1306.46 929.404 1303.62 931.368 1302.72C935.835 1300.67 940.637 1300.45 945.483 1300.45C946.68 1300.45 947.586 1300.89 948.226 1301.55C950.078 1276.19 950.032 1250.81 948.28 1225.43C946.411 1198.31 942.11 1171.73 937.61 1144.96C935.431 1131.98 932.601 1118.87 933.151 1105.65C933.701 1092.52 939.331 1080.28 935.341 1067.11C933.741 1061.83 931.001 1056.99 929.221 1051.77C927.311 1046.15 927.481 1040.6 928.351 1034.78C930.141 1022.93 933.11 1011.22 928.36 999.654C926.261 994.524 922.86 989.944 921.221 984.644C919.181 978.054 919.461 970.764 919.121 963.934C918.431 950.154 918.251 936.284 917.11 922.534C916.601 916.374 915.491 910.534 912.961 904.884C910.53 899.444 906.921 894.494 905.311 888.724C903.711 883.044 903.571 877.054 902.711 871.244C901.811 865.104 900.401 859.054 898.501 853.154C891.161 830.314 877.711 809.794 861.821 792.004C844.931 773.094 824.741 758.854 803.311 745.584C792.042 738.606 780.774 731.628 769.513 724.65C769.273 725.959 768.438 727.162 766.835 727.698C762.606 729.11 758.091 730.452 754.776 733.581C751.032 737.115 745.367 731.466 749.119 727.925C753.033 724.229 757.952 722.284 762.958 720.575C757.827 717.341 752.641 713.992 746.851 712.124C741.78 710.484 734.301 711.914 730.19 708.194C726.961 705.264 725.94 699.834 724.701 695.854C723.151 690.914 721.811 685.704 719.841 680.904C718.501 677.624 716.551 674.474 714.091 671.934C713.011 667.774 711.03 663.974 707.53 661.664C698.371 655.604 687.121 661.624 683.091 670.264C679.761 670.254 676.251 670.984 673.011 671.184C666.351 671.604 659.681 671.794 653.011 671.774C639.961 671.734 626.901 670.884 613.961 669.154C590.821 666.054 568.371 659.804 545.621 654.934C545.491 654.634 545.341 654.334 545.161 654.034C540.261 645.814 528.051 647.204 520.36 650.314C517.061 651.644 513.701 653.324 511.811 656.444C509.811 657.794 508.081 659.434 506.931 661.164C504.551 664.734 502.711 671.934 497.881 672.534C494.701 672.924 491.471 672.314 488.241 672.774C484.201 673.334 480.581 674.754 476.851 676.374C448.451 688.704 419.091 702.414 388.27 707.194C381.041 708.314 373.681 709.474 367.401 713.524C362.301 716.814 358.36 721.334 354.151 725.624C350.051 729.804 346.671 731.654 340.821 732.404C333.721 733.314 327.571 735.274 322.381 740.434C318.071 744.724 315.261 750.204 311.881 755.184C308.44 760.264 303.391 763.124 298.151 766.074C285.761 773.054 274.221 781.484 264.171 791.594C243.001 812.914 230.181 840.314 217.261 867.014C203.291 895.894 190.231 925.124 181.171 955.964C172.291 986.244 167.011 1017.39 164.571 1048.83C162.001 1081.82 161.641 1114.94 159.501 1147.95C158.431 1164.44 157.621 1180.95 156.801 1197.45C156.001 1213.75 154.831 1230.08 155.02 1246.4C155.381 1277.95 161.69 1309.6 172.721 1339.14C175.471 1346.49 178.52 1353.74 181.77 1360.88C184.621 1367.15 194.371 1366.45 197.431 1360.88C198.131 1359.6 198.681 1358.28 199.141 1356.94C207.141 1357.01 215.221 1356.39 223.171 1357.13C237.211 1358.44 251.28 1359.17 265.36 1360.04C293.221 1361.77 321.131 1362.92 349.001 1364.51C351.705 1364.67 354.409 1364.82 357.112 1364.98C337.251 1303.51 339.827 1237.05 336.684 1173.12C336.431 1167.97 344.433 1168 344.684 1173.12C347.84 1237.33 345.153 1303.95 365.716 1365.53C373.694 1366.07 381.661 1366.73 389.601 1367.69C396.02 1368.46 402.471 1369.37 408.951 1369.05C416.301 1368.7 423.481 1367.02 430.651 1365.56C443.681 1362.91 456.231 1364.11 469.311 1365.74C483.301 1367.49 497.341 1368.46 511.421 1369.07C567.801 1371.54 624.561 1373.79 680.921 1370.02C694.561 1369.11 708.171 1367.83 721.721 1366.09C735.681 1364.3 749.491 1361.29 763.44 1359.58C777.19 1357.9 789.831 1362.51 803.421 1363.36C817.28 1364.23 831.511 1361.34 845.241 1359.68C849.72 1359.14 854.204 1358.61 858.689 1358.09C852.915 1318.51 849.632 1278.64 846.443 1238.78C846.032 1233.64 854.035 1233.69 854.443 1238.78C857.606 1278.33 860.816 1317.91 866.581 1357.17C890.356 1354.4 914.154 1351.6 937.681 1347.29C944.381 1346.07 951.041 1344.08 955.051 1338.1C958.02 1333.67 958.621 1328.24 957.19 1323.14" fill="black"/>
<path fill-rule="evenodd" clip-rule="evenodd" d="M566.983 262.672C718.233 255.218 728.797 299.272 749.567 327.357C759.874 341.295 786.486 361.936 790.901 409.602C793.965 442.69 774.457 480.827 774.457 510.393C774.457 525.485 792.897 557.886 784.312 579.882C765.206 628.841 724.752 683.176 673.2 683.176C621.649 683.176 526.488 654.704 469.526 572.973C450.869 546.201 415.733 270.126 566.983 262.672Z" fill="#D08B5B"/>
<path fill-rule="evenodd" clip-rule="evenodd" d="M787.132 513.345C783.829 509.695 781.264 506.695 780.406 501.675C780.047 499.584 779.887 497.435 779.817 495.275C793.079 476.695 805.974 432.808 805.972 408.804C805.97 374.939 793.508 342.355 773.051 315.405C733.176 262.914 666.796 236.004 601.833 238.115C539.625 240.124 473.457 263.104 434.651 312.226C305.899 475.201 413.959 653.217 493.103 690.254C499.993 693.478 522.244 692.358 519.143 685.473C510.238 665.694 503.222 629.265 501.585 621.064C504.12 622.775 506.675 624.445 509.239 626.175C513.78 629.224 519.867 632.714 525.575 631.704C525.844 631.655 526.014 631.365 526.024 631.115C526.283 625.744 522.451 620.224 519.078 616.394C514.398 611.074 509.948 605.624 504.908 600.634C502.763 598.504 500.587 596.394 498.412 594.284C498.133 581.624 498.981 568.905 501.246 556.175C505.168 534.105 511.934 512.605 519.707 491.445C526.203 486.644 532.51 481.595 538.348 476.074C552.408 462.784 563.135 446.525 572.336 429.425C572.446 429.374 572.565 429.314 572.675 429.265C590.507 420.954 608.19 412.325 625.733 403.425C634.784 398.834 643.775 394.134 652.766 389.435C657.655 386.874 662.695 384.544 667.694 382.134C666.347 389.054 664.531 395.874 662.326 402.584C660.509 408.095 666.058 412.164 670.967 411.254C687.682 408.155 703.838 401.925 718.377 393.105C725.582 388.735 732.437 383.685 738.794 378.144C745.15 387.634 752.874 396.534 760.668 404.195C765.927 409.365 771.425 414.284 777.133 418.945C774.548 436.775 772.333 454.644 769.529 472.435C768.062 481.735 766.296 491.034 765.188 500.384C763.981 510.574 767.344 517.834 774.039 525.284C783.4 535.695 783.39 550.754 779.807 563.685C779.368 565.284 778.819 566.845 778.25 568.394C778.131 568.714 777.781 569.584 777.652 569.925C777.652 569.935 777.652 569.945 777.642 569.964C777.642 569.974 777.632 569.985 777.632 569.994C777.622 569.994 777.622 570.004 777.612 570.015V570.034V570.044L777.602 570.054C777.183 571.034 776.734 571.994 776.285 572.954C774.239 577.284 771.954 581.515 769.579 585.675C757.903 606.214 743.155 625.004 726.35 641.584C718.527 649.304 710.394 656.485 701.203 662.365C699.267 663.595 697.292 664.784 695.266 665.874C694.178 666.464 693.061 667.015 691.943 667.574C690.306 668.384 690.985 668.064 689.987 668.464C688.181 669.175 686.335 669.794 684.449 670.284C683.441 670.544 682.423 670.765 681.395 670.954C681.385 670.954 681.365 670.964 681.335 670.964C681.325 670.964 681.315 670.974 681.305 670.964C681.295 670.974 681.275 670.974 681.256 670.974C680.876 671.004 680.198 671.064 680.068 671.064C665.738 671.115 651.528 669.185 637.658 665.615C630.144 663.675 622.639 661.324 615.574 658.095C611.982 656.445 608.469 654.615 605.107 652.544C603.6 651.615 602.173 650.494 600.586 649.685C598.211 648.464 595.886 648.595 593.321 648.485C589.41 648.324 586.636 652.425 587.594 656.025C588.761 660.414 590.597 663.004 594.369 665.615C597.383 667.695 600.576 669.534 603.829 671.204C610.914 674.855 618.408 677.824 625.992 680.254C640.192 684.794 655.141 687.584 670.009 688.605C680.836 689.345 690.217 687.894 700.076 683.324C710.484 678.494 719.814 671.284 728.446 663.804C747.775 647.064 764.589 626.754 778.849 605.564C792.251 585.644 802.649 563.954 799.226 539.224C797.859 529.304 793.828 520.765 787.132 513.345" fill="#69066C"/>
<path fill-rule="evenodd" clip-rule="evenodd" d="M686.884 616.932C694.443 615.88 702.571 611.599 709.791 615.078C713.166 616.704 714.768 622.265 712.486 625.356C709.001 630.077 705.403 630.858 699.746 631.312C695.505 631.652 691.241 631.677 687.011 631.188L685.935 631.056C678.387 630.082 670.542 627.975 664.695 622.903C663.499 621.865 664.112 619.623 665.647 619.299C672.591 617.838 679.855 617.911 686.884 616.932ZM677.987 599.526C677.984 599.465 678.077 599.465 678.08 599.526C678.263 603.846 679.477 607.851 681.721 611.547C681.752 611.6 681.671 611.647 681.64 611.595C679.395 607.896 678.17 603.85 677.987 599.526ZM701.814 510.367C709.366 514.957 720.872 525.66 712.748 537.04C703.186 547.073 689.419 535.569 682.634 530.366C676.343 526.334 669.275 536.705 675.112 541.413C724.136 577.708 744.031 511.567 705.634 504.97C701.406 504.243 699.836 508.947 701.814 510.367ZM740.464 459C742.237 459 743.933 459.602 745.478 460.716C746.998 461.812 748.374 463.412 749.52 465.407C751.689 469.183 753.045 474.396 753.045 480.16C753.045 485.925 751.689 491.138 749.52 494.914C748.374 496.909 746.998 498.509 745.478 499.605C743.933 500.718 742.237 501.32 740.464 501.32C738.691 501.32 736.995 500.718 735.45 499.605C733.93 498.509 732.554 496.909 731.408 494.914C729.239 491.138 727.883 485.925 727.883 480.16C727.883 474.396 729.239 469.183 731.408 465.407C732.554 463.412 733.93 461.812 735.45 460.716C736.995 459.602 738.691 459 740.464 459ZM658.347 464.88L659.014 464.753C662.909 464.045 664.877 464.283 668.269 466.938C670.818 468.933 670.088 472.862 668.269 474.96C665.1 478.616 662.005 477.968 657.665 478.108L657.36 478.119C653.743 478.266 650.123 478.369 646.503 478.424C645.513 478.44 644.522 478.436 643.532 478.442C643.637 487.603 638.355 494.578 631.399 499.881C626.903 503.31 621.216 499.354 619.612 495.086C618.285 491.554 618 487.211 618.688 483.344C618.943 481.918 619.474 480.371 620.286 479.052L620.515 478.698L620.478 478.192C620.469 478.067 620.478 477.946 620.474 477.821C614.016 477.428 607.596 476.781 601.178 475.967L599.039 475.69C593.561 474.965 585.516 474.732 581.083 471.169C580.943 471.055 580.993 470.806 581.141 470.727C583.578 469.414 586.05 469.489 588.776 469.368L589.167 469.349C592.131 469.196 595.088 469.068 598.05 468.967L601.015 468.874C608.597 468.657 616.186 468.289 623.761 467.886C625.078 467.816 626.395 467.733 627.714 467.652C629.093 467.074 630.559 466.728 632.007 466.664C633.207 466.61 634.361 466.776 635.446 467.121C638.212 466.907 640.978 466.674 643.74 466.424L646.503 466.168C650.401 465.797 654.499 465.635 658.347 464.88ZM706.215 396.22C714.548 392.125 724.68 392.025 733.262 395.414L733.831 395.644C742.499 399.241 752.943 407.549 750.681 417.898C748.612 427.37 733.755 425.765 733.002 416.812C728.205 410.166 717.448 408.708 710.686 412.934C706.585 415.498 703.77 419.815 701.846 424.169C700.206 427.877 699.897 432.456 697.378 435.686C697.296 435.791 697.132 435.81 697.013 435.782C689.501 434.044 689.327 422.107 690.608 416.317C692.469 407.899 698.442 400.042 706.215 396.22Z" fill="black"/>
<path fill-rule="evenodd" clip-rule="evenodd" d="M756.809 436C780.281 436 793.676 441.048 798.584 441.441L798.732 441.451C800.773 441.582 802.605 441.753 804.526 442.496C811.592 445.217 812.743 452.627 808.619 457.298C808.33 466.961 809.601 478.253 807.42 487.947C804.73 528.818 785.509 535.716 774.584 538.233C769.098 539.497 762.597 540 756.771 538.666C746.831 538.295 737.004 535.184 728.597 529.765C716.888 522.213 708.191 510.606 705.368 496.83C704.031 490.264 703.406 483.429 704.134 476.754L704.242 475.835C700.436 474.014 696.025 473.67 691.479 473.509C689.307 473.432 687.166 473.363 685.087 473.455C683.054 473.682 681.045 473.984 679.031 474.396C676.831 475.059 674.753 476.155 672.835 477.89L672.703 480.423C672.343 486.749 671.512 493.094 670.231 499.3C668.339 508.458 665.297 517.204 658.822 523.699C656.63 526.973 653.918 529.895 650.626 532.425C638.665 541.634 622.415 545.015 607.502 543.742C577.225 541.158 559.724 517.123 555.691 506.85L555.45 506.228C552.537 498.59 550.215 488.681 541.009 487.04L539.051 486.688C534.85 485.899 530.973 484.802 528.51 480.703C527.43 478.913 526.875 476.912 526.739 474.872C525.301 474.982 523.866 475.088 522.436 475.19C511.028 477.603 442.6 479.648 437.138 479.648C437.138 479.648 426.639 484.067 422.207 480.643C419.134 478.263 418.123 475.09 419.815 471.495C422.367 466.086 434.14 462.833 439.368 461.803C439.368 461.803 523.733 462.503 529.805 461.352C533.562 457.478 540.282 458.008 545.898 457.396C550.546 454.081 557.049 451.861 562.186 450.375C563.233 449.978 564.27 449.595 565.278 449.233C574.695 445.88 584.484 444.103 594.422 443.149C604.67 442.175 614.948 442.616 625.136 444.012C629.429 444.594 633.682 445.347 637.906 446.332C645.468 447.329 652.986 448.971 660.551 450.919L662.065 451.313C670.031 453.401 678.217 455.208 686.464 453.792C693.177 452.647 699.634 450.063 705.824 447.269L706.629 446.904C720.24 440.689 741.496 436 756.809 436ZM637.087 458.722C632.065 457.618 629.92 465.361 634.958 466.468C638.526 467.253 641.549 469.052 643.592 472.099L643.807 472.431C646.548 476.793 653.48 472.766 650.72 468.376C647.614 463.436 642.788 459.976 637.087 458.722ZM784.173 453.922C782.403 452.675 779.724 453.6 778.696 455.363C777.565 457.303 778.306 459.464 779.964 460.733L780.133 460.857C781.654 461.929 783.135 463.851 783.321 465.819L783.338 466.066C783.537 471.218 791.544 471.244 791.344 466.066C791.149 461 788.215 456.767 784.173 453.922Z" fill="black"/>
</svg>
