<?xml version="1.0" encoding="UTF-8"?>
<svg width="1200pt" height="1200pt" version="1.1" viewBox="0 0 1200 1200" xmlns="http://www.w3.org/2000/svg">
 <g>
  <path d="m1038.9 1034.4c-21.914 21.961-51.664 34.301-82.688 34.301s-60.773-12.34-82.688-34.301l-16.5-16.5-26.625 26.625 16.5 16.5c29.027 28.922 68.336 45.16 109.31 45.16s80.285-16.238 109.31-45.16l16.5-16.5-26.625-26.625z"/>
  <path d="m682.69 978.19c-21.914 21.961-51.664 34.301-82.688 34.301s-60.773-12.34-82.688-34.301l-16.5-16.5-26.625 26.625 16.5 16.5c29.027 28.922 68.336 45.16 109.31 45.16s80.285-16.238 109.31-45.16l16.5-16.5-26.625-26.625z"/>
  <path d="m345.19 1034.4c-21.914 21.961-51.664 34.301-82.688 34.301s-60.773-12.34-82.688-34.301l-16.5-16.5-26.625 26.625 16.5 16.5c29.027 28.922 68.336 45.16 109.31 45.16s80.285-16.238 109.31-45.16l16.5-16.5-26.625-26.625z"/>
  <path d="m1166.6 356.25-397.88-90v-41.25c0.027344-4.9844-1.9297-9.7734-5.4375-13.312l-150-150c-3.5195-3.5508-8.3125-5.5469-13.312-5.5469s-9.793 1.9961-13.312 5.5469l-150 150c-3.5078 3.5391-5.4648 8.3281-5.4375 13.312v41.25l-397.88 90c-4.2305 0.95312-8 3.3398-10.664 6.7617-2.668 3.418-4.0664 7.6523-3.9609 11.988v787.5c0 4.9727 1.9766 9.7422 5.4922 13.258 3.5156 3.5156 8.2852 5.4922 13.258 5.4922h1125c4.9727 0 9.7422-1.9766 13.258-5.4922 3.5156-3.5156 5.4922-8.2852 5.4922-13.258v-787.5c0.10547-4.3359-1.293-8.5703-3.9609-11.988-2.6641-3.4219-6.4336-5.8086-10.664-6.7617zm-258.94 490.69c-0.78125 0.90625-1.6641 1.7266-2.625 2.4375-36.648-77.438-101.37-138.04-181.05-169.52-79.68-31.48-168.34-31.48-248.02 0-79.68 31.48-144.4 92.082-181.05 169.52-0.96094-0.71094-1.8438-1.5312-2.625-2.4375l-16.5-16.5c-3.5195-3.5508-8.3125-5.5469-13.312-5.5469s-9.793 1.9961-13.312 5.5469l-16.5 16.5c-21.914 21.961-51.664 34.301-82.688 34.301s-60.773-12.34-82.688-34.301l-11.062-10.875v-108.75l543.75-127.31 543.75 126.75v108.75l-11.062 10.875c-21.914 21.961-51.664 34.301-82.688 34.301s-60.773-12.34-82.688-34.301l-16.5-16.5c-3.5195-3.5508-8.3125-5.5469-13.312-5.5469s-9.793 1.9961-13.312 5.5469zm-34.125 23.625c-21.664 9.9805-45.867 13.062-69.344 8.8398-23.473-4.2266-45.082-15.559-61.906-32.465l-16.5-16.5c-3.5195-3.5508-8.3125-5.5469-13.312-5.5469s-9.793 1.9961-13.312 5.5469l-16.5 16.5c-21.914 21.961-51.664 34.301-82.688 34.301s-60.773-12.34-82.688-34.301l-16.5-16.5c-3.5195-3.5508-8.3125-5.5469-13.312-5.5469s-9.793 1.9961-13.312 5.5469l-16.5 16.5c-16.824 16.906-38.434 28.238-61.906 32.465-23.477 4.2227-47.68 1.1406-69.344-8.8398 31.797-70.641 89.691-126.25 161.56-155.17 71.867-28.922 152.14-28.922 224.01 0 71.867 28.922 129.76 84.527 161.56 155.17zm-817.31-405.56 375-85.312v146.62l-56.25 13.125v-33.188c0-20.098-10.723-38.664-28.125-48.715-17.402-10.047-38.848-10.047-56.25 0-17.402 10.051-28.125 28.617-28.125 48.715v59.438l-37.5 8.8125v-30.75c0-20.098-10.723-38.664-28.125-48.715-17.402-10.047-38.848-10.047-56.25 0-17.402 10.051-28.125 28.617-28.125 48.715v56.25l-56.25 13.125zm675-221.25v273.75l-37.5-8.625v-96.375c0-33.492-17.867-64.441-46.875-81.191-29.008-16.746-64.742-16.746-93.75 0-29.008 16.75-46.875 47.699-46.875 81.191v96.375l-37.5 8.625v-273.75zm412.5 370.12-56.25-13.875v-56.25c0-20.098-10.723-38.664-28.125-48.715-17.402-10.047-38.848-10.047-56.25 0-17.402 10.051-28.125 28.617-28.125 48.715v30.75l-37.5-8.8125v-59.438c0-20.098-10.723-38.664-28.125-48.715-17.402-10.047-38.848-10.047-56.25 0-17.402 10.051-28.125 28.617-28.125 48.715v33.188l-56.25-13.125v-146.62l375 85.312zm-93.75-21.938-37.5-8.625v-39.562c0-6.6992 3.5742-12.887 9.375-16.238 5.8008-3.3477 12.949-3.3477 18.75 0 5.8008 3.3516 9.375 9.5391 9.375 16.238zm-150-35.062-37.5-8.625v-42c0-6.6992 3.5742-12.887 9.375-16.238 5.8008-3.3477 12.949-3.3477 18.75 0 5.8008 3.3516 9.375 9.5391 9.375 16.238zm-243.75-56.25-51.938-13.125c-2.8477-0.5625-5.7773-0.5625-8.625 0l-51.938 12.562v-87.562c0-20.098 10.723-38.664 28.125-48.715 17.402-10.047 38.848-10.047 56.25 0 17.402 10.051 28.125 28.617 28.125 48.715zm-318.75 47.625-37.5 8.625v-50.625c0-6.6992 3.5742-12.887 9.375-16.238 5.8008-3.3477 12.949-3.3477 18.75 0 5.8008 3.3516 9.375 9.5391 9.375 16.238zm-150 35.062-37.5 8.625v-48.188c0-6.6992 3.5742-12.887 9.375-16.238 5.8008-3.3477 12.949-3.3477 18.75 0 5.8008 3.3516 9.375 9.5391 9.375 16.238zm-131.25 69 543.75-127.31 543.75 126.94v37.5l-539.44-126.94c-2.8281-0.74609-5.7969-0.74609-8.625 0l-539.44 126.38zm1087.5-262.5v36.562l-375-85.125v-36.562zm-543.75-288.38 104.81 104.81h-209.62zm-168.75 203.25v36.562l-375 85.312v-36.562zm-375 839.06v-256.88c29.703 22.793 66.676 34.008 104.04 31.559 37.359-2.4492 72.555-18.395 99.027-44.871l3.1875-3.375 3.1875 3.375c29.027 28.922 68.336 45.16 109.31 45.16s80.285-16.238 109.31-45.16l3.1875-3.375 3.1875 3.375c29.027 28.922 68.336 45.16 109.31 45.16s80.285-16.238 109.31-45.16l3.1875-3.375 3.1875 3.375c29.027 28.922 68.336 45.16 109.31 45.16s80.285-16.238 109.31-45.16l3.1875-3.375 3.1875 3.375c26.473 26.477 61.668 42.422 99.027 44.871 37.359 2.4492 74.332-8.7656 104.04-31.559v256.88z"/>
  <path d="m900 187.5h150c20.098-0.43359 38.434-11.559 48.105-29.18 9.6719-17.621 9.207-39.066-1.2188-56.25-10.426-17.188-29.227-27.504-49.324-27.07-5.6328-21.555-20.555-39.488-40.727-48.941-20.172-9.457-43.5-9.457-63.672 0-20.172 9.4531-35.094 27.387-40.727 48.941-20.098-0.43359-38.898 9.8828-49.324 27.07-10.426 17.184-10.891 38.629-1.2188 56.25 9.6719 17.621 28.008 28.746 48.105 29.18zm0-75c3.3828 0.058594 6.6875 1.0312 9.5625 2.8125 2.957 1.8242 6.3672 2.793 9.8438 2.793s6.8867-0.96875 9.8438-2.793c2.918-1.9297 5.2383-4.6406 6.6953-7.8203 1.457-3.1836 1.9961-6.707 1.5547-10.18v-3.5625c0.19922-13.398 7.5352-25.672 19.238-32.195 11.703-6.5234 25.996-6.3086 37.5 0.5625 11.5 6.875 18.461 19.359 18.262 32.758v2.4375c-0.36719 3.4766 0.24609 6.9883 1.7695 10.137 1.5273 3.1484 3.8984 5.8047 6.8555 7.6758 2.957 1.8242 6.3672 2.793 9.8438 2.793s6.8867-0.96875 9.8438-2.793c5.0586-3 11.23-3.4492 16.672-1.2188s9.5234 6.8828 11.02 12.57c1.5 5.6875 0.24219 11.75-3.3945 16.371s-9.2305 7.2695-15.109 7.1523h-150c-6.6992 0-12.887-3.5742-16.238-9.375-3.3477-5.8008-3.3477-12.949 0-18.75 3.3516-5.8008 9.5391-9.375 16.238-9.375z"/>
  <path d="m150 243.75h150c20.098-0.43359 38.434-11.559 48.105-29.18 9.6719-17.621 9.207-39.066-1.2188-56.25-10.426-17.188-29.227-27.504-49.324-27.07-5.6328-21.555-20.555-39.488-40.727-48.941-20.172-9.457-43.5-9.457-63.672 0-20.172 9.4531-35.094 27.387-40.727 48.941-20.098-0.43359-38.898 9.8828-49.324 27.07-10.426 17.184-10.891 38.629-1.2188 56.25 9.6719 17.621 28.008 28.746 48.105 29.18zm0-75c3.3828 0.058594 6.6875 1.0312 9.5625 2.8125 2.957 1.8242 6.3672 2.793 9.8438 2.793s6.8867-0.96875 9.8438-2.793c3.1133-1.9375 5.5898-4.75 7.125-8.082 1.5312-3.332 2.0547-7.043 1.5-10.668l-0.375-2.8125c0.19922-13.398 7.5352-25.672 19.238-32.195 11.703-6.5234 25.996-6.3086 37.5 0.5625 11.5 6.875 18.461 19.359 18.262 32.758v2.4375c-0.55469 3.625-0.03125 7.3359 1.5 10.668 1.5352 3.332 4.0117 6.1445 7.125 8.082 2.957 1.8242 6.3672 2.793 9.8438 2.793s6.8867-0.96875 9.8438-2.793c4.9961-3.5625 11.422-4.457 17.203-2.3906 5.7773 2.0664 10.18 6.832 11.785 12.754 1.6016 5.9258 0.20312 12.262-3.7422 16.961-3.9492 4.6992-9.9453 7.1719-16.059 6.6133h-150c-6.6992 0-12.887-3.5742-16.238-9.375-3.3477-5.8008-3.3477-12.949 0-18.75 3.3516-5.8008 9.5391-9.375 16.238-9.375z"/>
 </g>
</svg>
