<svg xmlns="http://www.w3.org/2000/svg">
  <defs>
  <symbol id="icon-hotel" viewBox="0 0 1200 1200">
 <g>
  <path d="m468 480h-204c-3.6016 0-6 1.1992-8.3984 3.6016l-72 72c-2.4023 2.3984-3.6016 4.7969-3.6016 8.3984v576c0 7.1992 4.8008 12 12 12h276c7.1992 0 12-4.8008 12-12v-648c0-7.1992-4.8008-12-12-12zm-12 648h-252v-559.2l64.801-64.801h187.2z"/>
  <path d="m264 576v108c0 7.1992 4.8008 12 12 12h108c7.1992 0 12-4.8008 12-12v-108c0-7.1992-4.8008-12-12-12h-108c-7.1992 0-12 4.8008-12 12zm24 12h84v84h-84z"/>
  <path d="m384 744h-108c-7.1992 0-12 4.8008-12 12v108c0 7.1992 4.8008 12 12 12h108c7.1992 0 12-4.8008 12-12v-108c0-7.1992-4.8008-12-12-12zm-12 108h-84v-84h84z"/>
  <path d="m384 924h-108c-7.1992 0-12 4.8008-12 12v108c0 7.1992 4.8008 12 12 12h108c7.1992 0 12-4.8008 12-12v-108c0-7.1992-4.8008-12-12-12zm-12 108h-84v-84h84z"/>
  <path d="m1016.4 123.6-72-72c-2.3984-2.4023-4.7969-3.6016-8.3984-3.6016h-348c-3.6016 0-6 1.1992-8.3984 3.6016l-72 72c-2.4023 2.3984-3.6016 4.7969-3.6016 8.3984v1008c0 7.1992 4.8008 12 12 12h492c7.1992 0 12-4.8008 12-12v-1008c0-3.6016-1.1992-6-3.6016-8.3984zm-176.4 1004.4h-156v-132h156zm156 0h-132v-144c0-7.1992-4.8008-12-12-12h-180c-7.1992 0-12 4.8008-12 12v144h-132v-991.2l64.801-64.801h338.4l64.801 64.801z"/>
  <path d="m708 564h-108c-7.1992 0-12 4.8008-12 12v108c0 7.1992 4.8008 12 12 12h108c7.1992 0 12-4.8008 12-12v-108c0-7.1992-4.8008-12-12-12zm-12 108h-84v-84h84z"/>
  <path d="m708 744h-108c-7.1992 0-12 4.8008-12 12v108c0 7.1992 4.8008 12 12 12h108c7.1992 0 12-4.8008 12-12v-108c0-7.1992-4.8008-12-12-12zm-12 108h-84v-84h84z"/>
  <path d="m708 204h-108c-7.1992 0-12 4.8008-12 12v108c0 7.1992 4.8008 12 12 12h108c7.1992 0 12-4.8008 12-12v-108c0-7.1992-4.8008-12-12-12zm-12 108h-84v-84h84z"/>
  <path d="m708 384h-108c-7.1992 0-12 4.8008-12 12v108c0 7.1992 4.8008 12 12 12h108c7.1992 0 12-4.8008 12-12v-108c0-7.1992-4.8008-12-12-12zm-12 108h-84v-84h84z"/>
  <path d="m924 564h-108c-7.1992 0-12 4.8008-12 12v108c0 7.1992 4.8008 12 12 12h108c7.1992 0 12-4.8008 12-12v-108c0-7.1992-4.8008-12-12-12zm-12 108h-84v-84h84z"/>
  <path d="m924 744h-108c-7.1992 0-12 4.8008-12 12v108c0 7.1992 4.8008 12 12 12h108c7.1992 0 12-4.8008 12-12v-108c0-7.1992-4.8008-12-12-12zm-12 108h-84v-84h84z"/>
  <path d="m816 204c-7.1992 0-12 4.8008-12 12v108c0 7.1992 4.8008 12 12 12h108c7.1992 0 12-4.8008 12-12v-108c0-7.1992-4.8008-12-12-12zm96 108h-84v-84h84z"/>
  <path d="m924 384h-108c-7.1992 0-12 4.8008-12 12v108c0 7.1992 4.8008 12 12 12h108c7.1992 0 12-4.8008 12-12v-108c0-7.1992-4.8008-12-12-12zm-12 108h-84v-84h84z"/>
 </g>
</symbol>
    <symbol id="icon-walk" viewBox="0 0 1200 1200">
      <g>
        <path d="m636 450c42.961 0 78-35.039 78-78s-35.039-78-78-78-78 35.039-78 78 35.039 78 78 78zm0-144c36.359 0 66 29.641 66 66s-29.641 66-66 66-66-29.641-66-66 29.641-66 66-66z"/>
        <path d="m630.36 646.08 9.9609-69.359 27.48 27.48 3 1.5586 108 24 6.9609-3.9609 12-36-3.3594-7.4414-82.68-35.398-59.039-70.922c-1.1992-1.4414-2.8789-2.0391-4.5586-2.0391l-0.125 0.003906h-60l-109.92 36.359-3.3594 2.8789-72 132 3.3594 8.5195 36 12 6.4805-1.8008 70.801-82.559 36.719-9.1211-21.84 98.398-23.762 83.039-71.641 119.28 1.8008 8.0391 36 24 8.0391-1.1992 96-120 23.52-46.68 38.281 34.078 23.641 129.96 5.8828 4.8047h36l6-6v-156l-1.4414-3.9609zm75.242-88.559 78.961 33.84-8.5195 25.68-101.04-22.441-32.641-32.641 9.7188-67.68 51.359 61.68zm-111 171.84-23.762 47.398-92.16 115.2-26.641-17.762 69-115.08 21.961-76.32 51.84 46.078c0 0.125-0.12109 0.24609-0.23828 0.48438zm107.4 164.64h-24.961l-23.039-127.08-1.9219-3.3594-105.36-93.602 23.281-104.52-7.3203-7.0781-48 12-3.1211 1.9219-69.359 80.879-25.32-8.3984 67.441-123.6 104.88-34.922h52.078l-23.277 160.92 1.4414 4.8008 82.559 94.32z"/>
        <path d="m900 894h-144c-3.3594 0-6 2.6406-6 6s2.6406 6 6 6h144c3.3594 0 6-2.6406 6-6s-2.6406-6-6-6z"/>
        <path d="m612 894h-72c-3.3594 0-6 2.6406-6 6s2.6406 6 6 6h72c3.3594 0 6-2.6406 6-6s-2.6406-6-6-6z"/>
        <path d="m408 894h-108c-3.3594 0-6 2.6406-6 6s2.6406 6 6 6h108c3.3594 0 6-2.6406 6-6s-2.6406-6-6-6z"/>
      </g>
    </symbol>
    <symbol id="icon-boat" viewBox="0 0 1200 1200">
      <path d="m1151.2 839.04c-1.1484-2.9688-3.4336-5.3594-6.3477-6.6445-2.9141-1.2812-6.2227-1.3516-9.1875-0.19141-46.812 18.262-98.777 18.262-145.59 0-10.387-3.957-21.059-7.1445-31.918-9.5273l190.08-179.09c3.582-3.3711 4.7422-8.5898 2.9297-13.16-1.8164-4.5742-6.2383-7.5781-11.156-7.5742h-116.68l-114.42-68.648v-0.003907c-31.586-55.75-75.176-103.78-127.61-140.61-52.438-36.828-112.41-61.531-175.57-72.32l-57.742-51.387c-2.1992-1.957-5.0391-3.0391-7.9805-3.0352h-252c-6.6289 0-12 5.3711-12 12v108h-96c-6.6289 0-12 5.3711-12 12v90h-48c-6.6289 0-12 5.3711-12 12v102h-48c-3.6172-0.003906-7.043 1.6289-9.3203 4.4375-2.2812 2.8125-3.168 6.5-2.4219 10.039l42.797 202.96c-9.0781-2.0781-18-4.7773-26.707-8.0898-2.9688-1.1562-6.2734-1.0898-9.1914 0.19141-2.9141 1.2852-5.2031 3.6719-6.3555 6.6406-1.1562 2.9688-1.082 6.2773 0.20312 9.1914 1.2852 2.9141 3.6797 5.1992 6.6484 6.3477 52.402 20.445 110.58 20.445 162.98 0 46.812-18.258 98.777-18.258 145.59 0 52.402 20.445 110.57 20.445 162.98 0 46.816-18.258 98.781-18.258 145.59 0 52.406 20.438 110.57 20.438 162.98 0 46.812-18.258 98.777-18.258 145.59 0 52.402 20.445 110.57 20.445 162.98 0 2.9688-1.1523 5.3555-3.4375 6.6367-6.3516 1.2812-2.9102 1.3555-6.2148 0.20312-9.1836zm-539.19-472.36c54.695 10.844 106.59 32.781 152.47 64.457 45.887 31.676 84.797 72.422 114.33 119.72h-266.8zm284.68 208.18 80 48h-568.68v-48zm-308.68-24h-180v-192h124.9c18.43 0 36.84 1.25 55.098 3.7422zm-288-240h235.44l28.262 25.152c-10.203-0.73047-20.465-1.1523-30.793-1.1523h-232.91zm0 48h84v150h-84zm-108 72h84v78h-84zm-60 102h252v90h-252zm695.08 299.35c-46.812 18.262-98.777 18.262-145.59 0-52.406-20.426-110.57-20.426-162.98 0-46.812 18.262-98.777 18.262-145.59 0-52.41-20.426-110.58-20.426-162.98 0-29.699 11.543-61.723 15.84-93.414 12.535l-41.73-197.88h1035l-181.44 170.94c-34.406-3.0508-69.055 1.8789-101.24 14.406z"/>
    </symbol>
  </defs>
</svg>
